<svg xmlns="http://www.w3.org/2000/svg" xmlns:xlink="http://www.w3.org/1999/xlink">
  <symbol id="cart-plus-alt" fill="currentColor" viewBox="0 0 24 24">
    <path d="M12.268 6A2 2 0 0 0 14 9h1v1a2 2 0 0 0 3.04 1.708l-.311 1.496a1 1 0 0 1-.979.796H8.605l.208 1H16a3 3 0 1 1-2.83 2h-2.34a3 3 0 1 1-4.009-1.76L4.686 5H4a1 1 0 0 1 0-2h1.5a1 1 0 0 1 .979.796L6.939 6h5.329Z"/>
    <path d="M18 4a1 1 0 1 0-2 0v2h-2a1 1 0 1 0 0 2h2v2a1 1 0 1 0 2 0V8h2a1 1 0 1 0 0-2h-2V4Z"/>
  </symbol>
  <symbol id="cart-plus" fill="currentColor" viewBox="0 0 24 24">
    <path fill-rule="evenodd" d="M5 3a1 1 0 0 0 0 2h.687L7.82 15.24A3 3 0 1 0 11.83 17h2.34A3 3 0 1 0 17 15H9.813l-.208-1h8.145a1 1 0 0 0 .979-.796l1.25-6A1 1 0 0 0 19 6h-2.268A2 2 0 0 1 15 9a2 2 0 1 1-4 0 2 2 0 0 1-1.732-3h-1.33L7.48 3.796A1 1 0 0 0 6.5 3H5Z" clip-rule="evenodd"/>
    <path fill-rule="evenodd" d="M14 5a1 1 0 1 0-2 0v1h-1a1 1 0 1 0 0 2h1v1a1 1 0 1 0 2 0V8h1a1 1 0 1 0 0-2h-1V5Z" clip-rule="evenodd"/>
  </symbol>
  <symbol id="cart" fill="currentColor" viewBox="0 0 24 24">
    <path fill-rule="evenodd" d="M4 4a1 1 0 0 1 1-1h1.5a1 1 0 0 1 .979.796L7.939 6H19a1 1 0 0 1 .979 1.204l-1.25 6a1 1 0 0 1-.979.796H9.605l.208 1H17a3 3 0 1 1-2.83 2h-2.34a3 3 0 1 1-4.009-1.76L5.686 5H5a1 1 0 0 1-1-1Z" clip-rule="evenodd"/>
  </symbol>
  <symbol id="cash-register" fill="none" viewBox="0 0 24 24">
    <path fill="currentColor" d="M4 19v2c0 .5523.44772 1 1 1h14c.5523 0 1-.4477 1-1v-2H4Z"/>
    <path fill="currentColor" fill-rule="evenodd" d="M9 3c0-.55228.44772-1 1-1h8c.5523 0 1 .44772 1 1v3c0 .55228-.4477 1-1 1h-2v1h2c.5096 0 .9376.38314.9939.88957L19.8951 17H4.10498l.90116-8.11043C5.06241 8.38314 5.49047 8 6.00002 8H12V7h-2c-.55228 0-1-.44772-1-1V3Zm1.01 8H8.00002v2.01H10.01V11Zm.99 0h2.01v2.01H11V11Zm5.01 0H14v2.01h2.01V11Zm-8.00998 3H10.01v2.01H8.00002V14ZM13.01 14H11v2.01h2.01V14Zm.99 0h2.01v2.01H14V14ZM11 4h6v1h-6V4Z" clip-rule="evenodd"/>
  </symbol>
  <symbol id="cash" fill="currentColor" viewBox="0 0 24 24">
    <path fill-rule="evenodd" d="M7 6a2 2 0 0 1 2-2h11a2 2 0 0 1 2 2v7a2 2 0 0 1-2 2h-2v-4a3 3 0 0 0-3-3H7V6Z" clip-rule="evenodd"/>
    <path fill-rule="evenodd" d="M2 11a2 2 0 0 1 2-2h11a2 2 0 0 1 2 2v7a2 2 0 0 1-2 2H4a2 2 0 0 1-2-2v-7Zm7.5 1a2.5 2.5 0 1 0 0 5 2.5 2.5 0 0 0 0-5Z" clip-rule="evenodd"/>
    <path d="M10.5 14.5a1 1 0 1 1-2 0 1 1 0 0 1 2 0Z"/>
  </symbol>
  <symbol id="credit-card-plus-alt" fill="none" viewBox="0 0 24 24">
    <path fill="currentColor" d="M2 7c0-1.10457.89543-2 2-2h16c1.1046 0 2 .89543 2 2v4c0 .5523-.4477 1-1 1s-1-.4477-1-1v-1H4v7h10c.5523 0 1 .4477 1 1s-.4477 1-1 1H4c-1.10457 0-2-.8954-2-2V7Z"/>
    <path fill="currentColor" d="M5 14c0-.5523.44772-1 1-1h2c.55228 0 1 .4477 1 1s-.44772 1-1 1H6c-.55228 0-1-.4477-1-1Zm5 0c0-.5523.4477-1 1-1h4c.5523 0 1 .4477 1 1s-.4477 1-1 1h-4c-.5523 0-1-.4477-1-1Zm9-1c.5523 0 1 .4477 1 1v1h1c.5523 0 1 .4477 1 1s-.4477 1-1 1h-1v1c0 .5523-.4477 1-1 1s-1-.4477-1-1v-1h-1c-.5523 0-1-.4477-1-1s.4477-1 1-1h1v-1c0-.5523.4477-1 1-1Z"/>
  </symbol>
  <symbol id="credit-card-plus" fill="currentColor" viewBox="0 0 24 24">
    <path fill-rule="evenodd" d="M11 16.5a5.5 5.5 0 1 1 11 0 5.5 5.5 0 0 1-11 0Zm4.5 2.5v-1.5H14v-2h1.5V14h2v1.5H19v2h-1.5V19h-2Z" clip-rule="evenodd"/>
    <path d="M3.987 4A2 2 0 0 0 2 6v9a2 2 0 0 0 2 2h5v-2H4v-5h16V6a2 2 0 0 0-2-2H3.987Z"/>
    <path fill-rule="evenodd" d="M5 12a1 1 0 0 1 1-1h3a1 1 0 1 1 0 2H6a1 1 0 0 1-1-1Z" clip-rule="evenodd"/>
  </symbol>
  <symbol id="credit-card" fill="currentColor" viewBox="0 0 24 24">
    <path fill-rule="evenodd" d="M4 5a2 2 0 0 0-2 2v10a2 2 0 0 0 2 2h16a2 2 0 0 0 2-2V7a2 2 0 0 0-2-2H4Zm0 6h16v6H4v-6Z" clip-rule="evenodd"/>
    <path fill-rule="evenodd" d="M5 14a1 1 0 0 1 1-1h2a1 1 0 1 1 0 2H6a1 1 0 0 1-1-1Zm5 0a1 1 0 0 1 1-1h5a1 1 0 1 1 0 2h-5a1 1 0 0 1-1-1Z" clip-rule="evenodd"/>
  </symbol>
  <symbol id="filter-dollar" fill="none" viewBox="0 0 24 24">
    <path fill="currentColor" d="M3.69869 6.31701C2.56717 5.02384 3.48553 3 5.20384 3H18.7547c1.7316 0 2.6449 2.05088 1.4866 3.33793L17.47 9.34198s-.4632-.20588-.6184-.24042c-.1551-.03453-.488-.10604-.9206-.10604-.9034 0-2.138.66073-2.5716 1.73108-1.3256.8485-1.6921 1.8133-1.7929 2.0078-.1009.1944-.2618.5312-.3399 1.2148-.0781.6836 0 1.6055.5235 2.4688-.0721.0626-.2383.289-.3321.4375-.0937.1484-.5898.875-.3515 2.1445-.1993 0-.6387-.158-.92-.4393l-.70708-.7071c-.28131-.2814-.43934-.6629-.43934-1.0607v-4.4172L3.69869 6.31701Z"/>
    <path fill="currentColor" fill-rule="evenodd" d="M16.0604 11c.5523 0 1 .4477 1 1v.1013c.6366.1591 1.2184.4937 1.668.9715.3784.4022.3592 1.0351-.0431 1.4135-.4022.3785-1.0351.3592-1.4135-.043-.1902-.2021-.4506-.3504-.7488-.4139-.0363-.0077-.0722-.0174-.1074-.0292-.0543-.018-.1098-.0317-.1658-.041-.0614.0117-.1247.0179-.1894.0179-.063 0-.1245-.0058-.1843-.017-.0784.0136-.1554.0355-.2292.0658-.1976.0812-.3513.2132-.4504.3673.0006.002.0013.0042.002.0064.0138.0431.0516.1195.1396.2154.1806.1971.4983.3934.8907.4835.746.1712 1.4369.5572 1.9192 1.0838.476.5197.8461 1.3054.5891 2.1704-.0136.0459-.0305.0907-.0506.1342-.3123.6768-.8768 1.2008-1.5636 1.483-.0208.0085-.0416.0168-.0625.0248V20c0 .5523-.4477 1-1 1-.5271 0-.9589-.4077-.9973-.9249-.0154-.0046-.0308-.0093-.0462-.0141-.6707-.1541-1.2837-.502-1.7506-1.0062-.3752-.4053-.3509-1.038.0544-1.4132.4052-.3752 1.0379-.3508 1.4131.0544.1903.2055.4527.3566.754.4209.0359.0077.0713.0173.1061.0289.0754.025.1531.0416.2315.0499.0753-.0181.154-.0277.235-.0277.0421 0 .0836.0026.1244.0076.0608-.0134.1204-.032.1781-.0557.1979-.0813.3518-.2135.451-.368l-.001-.0032c-.0136-.0424-.0513-.1189-.1398-.2156-.1817-.1984-.5007-.3955-.8919-.4854-.7448-.171-1.4351-.5549-1.9176-1.0814-.4776-.5211-.8432-1.304-.5924-2.167.0138-.0477.0312-.0943.052-.1394.312-.6773.8766-1.2017 1.5637-1.4839.0573-.0236.1151-.0453.1735-.0653V12c0-.5523.4477-1 1-1Z" clip-rule="evenodd"/>
  </symbol>
  <symbol id="receipt" fill="currentColor" viewBox="0 0 24 24">
    <path fill-rule="evenodd" d="M5.617 2.076a1 1 0 0 1 1.09.217L8 3.586l1.293-1.293a1 1 0 0 1 1.414 0L12 3.586l1.293-1.293a1 1 0 0 1 1.414 0L16 3.586l1.293-1.293A1 1 0 0 1 19 3v18a1 1 0 0 1-1.707.707L16 20.414l-1.293 1.293a1 1 0 0 1-1.414 0L12 20.414l-1.293 1.293a1 1 0 0 1-1.414 0L8 20.414l-1.293 1.293A1 1 0 0 1 5 21V3a1 1 0 0 1 .617-.924ZM9 7a1 1 0 0 0 0 2h6a1 1 0 1 0 0-2H9Zm0 4a1 1 0 1 0 0 2h6a1 1 0 1 0 0-2H9Zm0 4a1 1 0 1 0 0 2h6a1 1 0 1 0 0-2H9Z" clip-rule="evenodd"/>
  </symbol>
  <symbol id="sale-percent" fill="currentColor" viewBox="0 0 24 24">
    <path fill-rule="evenodd" d="M20.29 8.567c.133.323.334.613.59.85v.002a3.536 3.536 0 0 1 0 5.166 2.442 2.442 0 0 0-.776 1.868 3.534 3.534 0 0 1-3.651 3.653 2.483 2.483 0 0 0-1.87.776 3.537 3.537 0 0 1-5.164 0 2.44 2.44 0 0 0-1.87-.776 3.533 3.533 0 0 1-3.653-3.654 2.44 2.44 0 0 0-.775-1.868 3.537 3.537 0 0 1 0-5.166 2.44 2.44 0 0 0 .775-1.87 3.55 3.55 0 0 1 1.033-2.62 3.594 3.594 0 0 1 2.62-1.032 2.401 2.401 0 0 0 1.87-.775 3.535 3.535 0 0 1 5.165 0 2.444 2.444 0 0 0 1.869.775 3.532 3.532 0 0 1 3.652 3.652c-.012.35.051.697.184 1.02ZM9.927 7.371a1 1 0 1 0 0 2h.01a1 1 0 0 0 0-2h-.01Zm5.889 2.226a1 1 0 0 0-1.414-1.415L8.184 14.4a1 1 0 0 0 1.414 1.414l6.218-6.217Zm-2.79 5.028a1 1 0 1 0 0 2h.01a1 1 0 1 0 0-2h-.01Z" clip-rule="evenodd"/>
  </symbol>
  <symbol id="scale-balanced" fill="currentColor" viewBox="0 0 24 24">
    <path fill-rule="evenodd" d="M12 4a1 1 0 1 0 0 2 1 1 0 0 0 0-2Zm-2.952.462c-.483.19-.868.432-1.19.71-.363.315-.638.677-.831.93l-.106.14c-.21.268-.36.418-.574.527C6.125 6.883 5.74 7 5 7a1 1 0 0 0 0 2c.364 0 .696-.022 1-.067v.41l-1.864 4.2a1.774 1.774 0 0 0 .821 2.255c.255.133.538.202.825.202h2.436a1.786 1.786 0 0 0 1.768-1.558 1.774 1.774 0 0 0-.122-.899L8 9.343V8.028c.2-.188.36-.38.495-.553.062-.079.118-.15.168-.217.185-.24.311-.406.503-.571a1.89 1.89 0 0 1 .24-.177A3.01 3.01 0 0 0 11 7.829V20H5.5a1 1 0 1 0 0 2h13a1 1 0 1 0 0-2H13V7.83a3.01 3.01 0 0 0 1.63-1.387c.206.091.373.19.514.29.31.219.532.465.811.78l.025.027.02.023v1.78l-1.864 4.2a1.774 1.774 0 0 0 .821 2.255c.255.133.538.202.825.202h2.436a1.785 1.785 0 0 0 1.768-1.558 1.773 1.773 0 0 0-.122-.899L18 9.343v-.452c.302.072.633.109 1 .109a1 1 0 1 0 0-2c-.48 0-.731-.098-.899-.2-.2-.12-.363-.293-.651-.617l-.024-.026c-.267-.3-.622-.7-1.127-1.057a5.152 5.152 0 0 0-1.355-.678 3.001 3.001 0 0 0-5.896.04Z" clip-rule="evenodd"/>
  </symbol>
  <symbol id="shopping-bag" fill="currentColor" viewBox="0 0 24 24">
    <path fill-rule="evenodd" d="M14 7h-4v3a1 1 0 0 1-2 0V7H6a1 1 0 0 0-.997.923l-.917 11.924A2 2 0 0 0 6.08 22h11.84a2 2 0 0 0 1.994-2.153l-.917-11.924A1 1 0 0 0 18 7h-2v3a1 1 0 1 1-2 0V7Zm-2-3a2 2 0 0 0-2 2v1H8V6a4 4 0 0 1 8 0v1h-2V6a2 2 0 0 0-2-2Z" clip-rule="evenodd"/>
  </symbol>
  <symbol id="store" fill="currentColor" viewBox="0 0 24 24">
    <path fill-rule="evenodd" d="M5.535 7.677c.313-.98.687-2.023.926-2.677H17.46c.253.63.646 1.64.977 2.61.166.487.312.953.416 1.347.11.42.148.675.148.779 0 .18-.032.355-.09.515-.06.161-.144.3-.243.412-.1.111-.21.192-.324.245a.809.809 0 0 1-.686 0 1.004 1.004 0 0 1-.324-.245c-.1-.112-.183-.25-.242-.412a1.473 1.473 0 0 1-.091-.515 1 1 0 1 0-2 0 1.4 1.4 0 0 1-.333.927.896.896 0 0 1-.667.323.896.896 0 0 1-.667-.323A1.401 1.401 0 0 1 13 9.736a1 1 0 1 0-2 0 1.4 1.4 0 0 1-.333.927.896.896 0 0 1-.667.323.896.896 0 0 1-.667-.323A1.4 1.4 0 0 1 9 9.74v-.008a1 1 0 0 0-2 .003v.008a1.504 1.504 0 0 1-.18.712 1.22 1.22 0 0 1-.146.209l-.007.007a1.01 1.01 0 0 1-.325.248.82.82 0 0 1-.316.08.973.973 0 0 1-.563-.256 1.224 1.224 0 0 1-.102-.103A1.518 1.518 0 0 1 5 9.724v-.006a2.543 2.543 0 0 1 .029-.207c.024-.132.06-.296.11-.49.098-.385.237-.85.395-1.344ZM4 12.112a3.521 3.521 0 0 1-1-2.376c0-.349.098-.8.202-1.208.112-.441.264-.95.428-1.46.327-1.024.715-2.104.958-2.767A1.985 1.985 0 0 1 6.456 3h11.01c.803 0 1.539.481 1.844 1.243.258.641.67 1.697 1.019 2.72a22.3 22.3 0 0 1 .457 1.487c.114.433.214.903.214 1.286 0 .412-.072.821-.214 1.207A3.288 3.288 0 0 1 20 12.16V19a2 2 0 0 1-2 2h-6a1 1 0 0 1-1-1v-4H8v4a1 1 0 0 1-1 1H6a2 2 0 0 1-2-2v-6.888ZM13 15a1 1 0 0 1 1-1h2a1 1 0 0 1 1 1v2a1 1 0 0 1-1 1h-2a1 1 0 0 1-1-1v-2Z" clip-rule="evenodd"/>
  </symbol>
  <symbol id="tag" fill="currentColor" viewBox="0 0 24 24">
    <path d="M18.045 3.007 12.31 3a1.965 1.965 0 0 0-1.4.585l-7.33 7.394a2 2 0 0 0 0 2.805l6.573 6.631a1.957 1.957 0 0 0 1.4.585 1.965 1.965 0 0 0 1.4-.585l7.409-7.477A2 2 0 0 0 21 11.479v-5.5a2.972 2.972 0 0 0-2.955-2.972Zm-2.452 6.438a1 1 0 1 1 0-2 1 1 0 0 1 0 2Z"/>
  </symbol>
  <symbol id="user-headset" fill="currentColor" viewBox="0 0 24 24">
    <path fill-rule="evenodd" d="M12 2a7 7 0 0 0-7 7 3 3 0 0 0-3 3v2a3 3 0 0 0 3 3h1a1 1 0 0 0 1-1V9a5 5 0 1 1 10 0v7.083A2.919 2.919 0 0 1 14.083 19H14a2 2 0 0 0-2-2h-1a2 2 0 0 0-2 2v1a2 2 0 0 0 2 2h1a2 2 0 0 0 1.732-1h.351a4.917 4.917 0 0 0 4.83-4H19a3 3 0 0 0 3-3v-2a3 3 0 0 0-3-3 7 7 0 0 0-7-7Zm1.45 3.275a4 4 0 0 0-4.352.976 1 1 0 0 0 1.452 1.376 2.001 2.001 0 0 1 2.836-.067 1 1 0 1 0 1.386-1.442 4 4 0 0 0-1.321-.843Z" clip-rule="evenodd"/>
  </symbol>
  <symbol id="wallet" fill="currentColor" viewBox="0 0 24 24">
    <path fill-rule="evenodd" d="M12 14a3 3 0 0 1 3-3h4a2 2 0 0 1 2 2v2a2 2 0 0 1-2 2h-4a3 3 0 0 1-3-3Zm3-1a1 1 0 1 0 0 2h4v-2h-4Z" clip-rule="evenodd"/>
    <path fill-rule="evenodd" d="M12.293 3.293a1 1 0 0 1 1.414 0L16.414 6h-2.828l-1.293-1.293a1 1 0 0 1 0-1.414ZM12.414 6 9.707 3.293a1 1 0 0 0-1.414 0L5.586 6h6.828ZM4.586 7l-.056.055A2 2 0 0 0 3 9v10a2 2 0 0 0 2 2h12a2 2 0 0 0 2-2h-4a5 5 0 0 1 0-10h4a2 2 0 0 0-1.53-1.945L17.414 7H4.586Z" clip-rule="evenodd"/>
  </symbol>
</svg>