<svg xmlns="http://www.w3.org/2000/svg" xmlns:xlink="http://www.w3.org/1999/xlink">
  <symbol id="book-open-reader" fill="currentColor" viewBox="0 0 24 24">
    <path d="M9 6c0-1.65685 1.3431-3 3-3s3 1.34315 3 3-1.3431 3-3 3-3-1.34315-3-3Zm2 3.62992c-.1263-.04413-.25-.08799-.3721-.13131-1.33928-.47482-2.49256-.88372-4.77995-.8482C4.84875 8.66593 4 9.46413 4 10.5v7.2884c0 1.0878.91948 1.8747 1.92888 1.8616 1.283-.0168 2.04625.1322 2.79671.3587.29285.0883.57733.1863.90372.2987l.00249.0008c.11983.0413.24534.0845.379.1299.2989.1015.6242.2088.9892.3185V9.62992Zm2-.00374V20.7551c.5531-.1678 1.0379-.3374 1.4545-.4832.2956-.1034.5575-.1951.7846-.2653.7257-.2245 1.4655-.3734 2.7479-.3566.5019.0065.9806-.1791 1.3407-.4788.3618-.3011.6723-.781.6723-1.3828V10.5c0-.58114-.2923-1.05022-.6377-1.3503-.3441-.29904-.8047-.49168-1.2944-.49929-2.2667-.0352-3.386.36906-4.6847.83812-.1256.04539-.253.09138-.3832.13765Z"/>
  </symbol>
  <symbol id="chalkboard-user" fill="currentColor" viewBox="0 0 24 24">
    <path d="M6 2c-1.10457 0-2 .89543-2 2v4c0 .55228.44772 1 1 1s1-.44772 1-1V4h12v7h-2c-.5523 0-1 .4477-1 1v2h-1c-.5523 0-1 .4477-1 1s.4477 1 1 1h5c.5523 0 1-.4477 1-1V3.85714C20 2.98529 19.3667 2 18.268 2H6Z"/>
    <path d="M6 11.5C6 9.567 7.567 8 9.5 8S13 9.567 13 11.5 11.433 15 9.5 15 6 13.433 6 11.5ZM4 20c0-2.2091 1.79086-4 4-4h3c2.2091 0 4 1.7909 4 4 0 1.1046-.8954 2-2 2H6c-1.10457 0-2-.8954-2-2Z"/>
  </symbol>
  <symbol id="chalkboard" fill="currentColor" viewBox="0 0 24 24">
    <path d="M3 4.92857C3 3.90506 3.80497 3 4.88889 3H19.1111C20.195 3 21 3.90506 21 4.92857V13h-3v-2c0-.5523-.4477-1-1-1h-4c-.5523 0-1 .4477-1 1v2H3V4.92857ZM3 15v1.0714C3 17.0949 3.80497 18 4.88889 18h3.47608L7.2318 19.3598c-.35356.4243-.29624 1.0548.12804 1.4084.42428.3536 1.05484.2962 1.40841-.128L10.9684 18h2.0632l2.2002 2.6402c.3535.4242.9841.4816 1.4084.128.4242-.3536.4816-.9841.128-1.4084L15.635 18h3.4761C20.195 18 21 17.0949 21 16.0714V15H3Z"/>
    <path d="M16 12v1h-2v-1h2Z"/>
  </symbol>
  <symbol id="graduation-cap" fill="currentColor" viewBox="0 0 24 24">
    <path d="M12.4472 4.10557c-.2815-.14076-.6129-.14076-.8944 0L2.76981 8.49706l9.21949 4.39024L21 8.38195l-8.5528-4.27638Z"/>
    <path d="M5 17.2222v-5.448l6.5701 3.1286c.278.1325.6016.1293.8771-.0084L19 11.618v5.6042c0 .2857-.1229.5583-.3364.7481l-.0025.0022-.0041.0036-.0103.009-.0119.0101-.0181.0152c-.024.02-.0562.0462-.0965.0776-.0807.0627-.1942.1465-.3405.2441-.2926.195-.7171.4455-1.2736.6928C15.7905 19.5208 14.1527 20 12 20c-2.15265 0-3.79045-.4792-4.90614-.9751-.5565-.2473-.98098-.4978-1.27356-.6928-.14631-.0976-.2598-.1814-.34049-.2441-.04036-.0314-.07254-.0576-.09656-.0776-.01201-.01-.02198-.0185-.02991-.0253l-.01038-.009-.00404-.0036-.00174-.0015-.0008-.0007s-.00004 0 .00978-.0112l-.00009-.0012-.01043.0117C5.12215 17.7799 5 17.5079 5 17.2222Zm-3-6.8765 2 .9523V17c0 .5523-.44772 1-1 1s-1-.4477-1-1v-6.6543Z"/>
  </symbol>
  <symbol id="laptop-code" fill="currentColor" viewBox="0 0 24 24">
    <path fill-rule="evenodd" d="M4 5.78571C4 4.80909 4.78639 4 5.77778 4H18.2222C19.2136 4 20 4.80909 20 5.78571V15H4V5.78571ZM12 12c0-.5523.4477-1 1-1h2c.5523 0 1 .4477 1 1s-.4477 1-1 1h-2c-.5523 0-1-.4477-1-1ZM8.27586 6.31035c.38089-.39993 1.01387-.41537 1.4138-.03449l2.62504 2.5c.1981.18875.3103.45047.3103.72414 0 .27368-.1122.5354-.3103.7241l-2.62504 2.5c-.39993.3809-1.03291.3655-1.4138-.0344-.38088-.4-.36544-1.033.03449-1.4138L10.175 9.5 8.31035 7.72414c-.39993-.38089-.41537-1.01386-.03449-1.41379Z" clip-rule="evenodd"/>
    <path d="M2 17v1c0 1.1046.89543 2 2 2h16c1.1046 0 2-.8954 2-2v-1H2Z"/>
  </symbol>
  <symbol id="laptop-file" fill="currentColor" viewBox="0 0 24 24">
    <path d="M4 5.78571C4 4.80909 4.78639 4 5.77778 4H18.2222C19.2136 4 20 4.80909 20 5.78571v1.34031C19.6804 7.04375 19.3453 7 19 7h-3.566c-1.1074 0-2.1653.45912-2.9217 1.26802l-2.434 2.60308C9.38544 11.612 9 12.5886 9 13.603V19c0 .3453.04375.6804.12602 1H4c-1.10457 0-2-.8954-2-2v-1c0-1.1046.89543-2 2-2V5.78571Z"/>
    <path d="M15 9.04765V13h-3.9069c.0892-.282.2406-.5432.4461-.763l2.434-2.60299c.2776-.29692.6365-.49959 1.0268-.58636Z"/>
    <path d="M17 9v4c0 1.1046-.8954 2-2 2h-4v4c0 1.1046.8954 2 2 2h6c1.1046 0 2-.8954 2-2v-8c0-1.10457-.8954-2-2-2h-2Z"/>
  </symbol>
  <symbol id="microscope" fill="currentColor" viewBox="0 0 24 24">
    <path d="m17.9646 5.49185.3705.37054c.3906.39052 1.0237.39052 1.4142 0 .3906-.39053.3906-1.02369 0-1.41422L17.594 2.29283c-.3905-.39052-1.0237-.39052-1.4142 0-.3905.39053-.3905 1.02369 0 1.41422l.3706.37059-.7412.74118-.3706-.37059c-.3905-.39053-1.0237-.39053-1.4142 0L9.71372 8.75891c-.39053.39053-.39053 1.02369 0 1.41419l.34948.3495-.77031.7703c-.39053.3905-.39053 1.0237 0 1.4142.39052.3905 1.02371.3905 1.41421 0l.7703-.7703.3917.3917c.3905.3905 1.0236.3905 1.4142 0l2.0628-2.0629c.4145.6745.6539 1.4706.6539 2.3256 0 2.4448-1.9584 4.4087-4.3521 4.4087-1.0458 0-2.00787-.3737-2.76051-.9999H11c.5523 0 1-.4477 1-1s-.4477-1-1-1H5c-.55228 0-1 .4477-1 1s.44772 1 1 1h1.26803C6.92225 17.0489 7.8715 17.8952 9 18.4182V20H5c-.55228 0-1 .4477-1 1s.44772 1 1 1h14c.5523 0 1-.4477 1-1s-.4477-1-1-1h-4v-1.9637c1.8034-1.1328 3-3.1517 3-5.4451 0-1.4061-.4498-2.70897-1.2126-3.76687l.8066-.80655c.3905-.39052.3905-1.02369 0-1.41421l-.3706-.37054.7412-.74118Z"/>
  </symbol>
  <symbol id="person-chalkboard" fill="currentColor" viewBox="0 0 24 24">
    <path d="M16 10c0-.55228-.4477-1-1-1h-3v2h3c.5523 0 1-.4477 1-1Z"/>
    <path d="M13 15v-2h2c1.6569 0 3-1.3431 3-3 0-1.65685-1.3431-3-3-3h-2.256c.1658-.46917.256-.97405.256-1.5 0-.51464-.0864-1.0091-.2454-1.46967C12.8331 4.01052 12.9153 4 13 4h7c.5523 0 1 .44772 1 1v9c0 .5523-.4477 1-1 1h-2.5l1.9231 4.6154c.2124.5098-.0287 1.0953-.5385 1.3077-.5098.2124-1.0953-.0287-1.3077-.5385L15.75 16l-1.827 4.3846c-.1825.438-.6403.6776-1.0889.6018.1075-.3089.1659-.6408.1659-.9864v-2.6002L14 15h-1ZM6 5.5C6 4.11929 7.11929 3 8.5 3S11 4.11929 11 5.5 9.88071 8 8.5 8 6 6.88071 6 5.5Z"/>
    <path d="M15 11h-4v9c0 .5523-.4477 1-1 1-.55228 0-1-.4477-1-1v-4H8v4c0 .5523-.44772 1-1 1s-1-.4477-1-1v-6.6973l-1.16797 1.752c-.30635.4595-.92722.5837-1.38675.2773-.45952-.3063-.5837-.9272-.27735-1.3867l2.99228-4.48843c.09402-.14507.2246-.26423.37869-.34445.11427-.05949.24148-.09755.3763-.10887.03364-.00289.06747-.00408.10134-.00355H15c.5523 0 1 .44772 1 1 0 .5523-.4477 1-1 1Z"/>
  </symbol>
  <symbol id="school-alt" fill="currentColor" viewBox="0 0 24 24">
    <path d="M12 12c-.5523 0-1 .4477-1 1s.4477 1 1 1 1-.4477 1-1-.4477-1-1-1Z"/>
    <path fill-rule="evenodd" d="M6.65111 11.6306 12 5.04736l5.3489 6.58324c.1899.2337.475.3694.7761.3694H21v7c0 .5523-.4477 1-1 1H4c-.55228 0-1-.4477-1-1v-7h2.87499c.30113 0 .58623-.1357.77612-.3694ZM8.99999 13c0-1.6568 1.34311-3 3.00001-3 1.6568 0 3 1.3432 3 3 0 1.6569-1.3432 3-3 3-1.6569 0-3.00001-1.3431-3.00001-3Z" clip-rule="evenodd"/>
    <path d="m2.5 10 2.7-3.59999c.18885-.2518.48524-.4.8-.4h2.64902L5.39902 10H2.5Zm12.851-3.99999L18.601 10H21.5l-2.7-3.59999c-.1888-.2518-.4852-.4-.8-.4h-2.649Z"/>
  </symbol>
  <symbol id="school-check-alt" fill="currentColor" viewBox="0 0 24 24">
    <path fill-rule="evenodd" d="M21.7071 14.2929c.3905.3905.3905 1.0237 0 1.4142l-4 4c-.3905.3905-1.0237.3905-1.4142 0l-2-2c-.3905-.3905-.3905-1.0237 0-1.4142.3905-.3905 1.0237-.3905 1.4142 0L17 17.5858l3.2929-3.2929c.3905-.3905 1.0237-.3905 1.4142 0Z" clip-rule="evenodd"/>
    <path d="M6.65111 11.6306 12 5.04736l5.3489 6.58324c.1899.2337.475.3694.7761.3694h2.8655c-.7646.0024-1.5284.2953-2.1118.8787l-1.8821 1.8821c-.6135-.548-1.3982-.8-2.1691-.7559C14.9392 13.6908 15 13.3525 15 13c0-1.6568-1.3432-3-3-3-1.6569 0-3.00001 1.3432-3.00001 3 0 1.6569 1.34311 3 3.00001 3 .0579 0 .1154-.0016.1726-.0049-.3747 1.0565-.1393 2.2808.7061 3.1262l.8787.8787H4c-.55228 0-1-.4477-1-1v-7h2.87499c.30113 0 .58623-.1357.77612-.3694Z"/>
    <path d="M12 12c-.5523 0-1 .4477-1 1s.4477 1 1 1 1-.4477 1-1-.4477-1-1-1Zm-9.5-2 2.7-3.59999c.18885-.2518.48524-.4.8-.4h2.64902L5.39902 10H2.5Zm12.851-3.99999L18.601 10H21.5l-2.7-3.59999c-.1888-.2518-.4852-.4-.8-.4h-2.649Z"/>
  </symbol>
  <symbol id="school-check" fill="currentColor" viewBox="0 0 24 24">
    <path fill-rule="evenodd" d="M11.4453 3.16795c.3359-.22393.7735-.22393 1.1094 0l6 4c.4595.30635.5837.92722.2773 1.38675-.1925.28877-.5092.44511-.832.44541-.1748.00016-.3515-.04546-.5112-.1406-.0146-.00873-.0292-.01789-.0435-.02746L16 7.86853v8.59597l-.2322-.2323c-.9763-.9763-2.5593-.9763-3.5356 0-.9763.9763-.9763 2.5593 0 3.5356L13.4645 21H8V7.86853l-1.44532.96352c-.45952.30635-1.08039.18218-1.38675-.27735-.30635-.45953-.18217-1.0804.27735-1.38675l6.00002-4ZM11 11c-.5523 0-1 .4477-1 1s.4477 1 1 1h2c.5523 0 1-.4477 1-1s-.4477-1-1-1h-2Zm-1-2c0-.55228.4477-1 1-1h2c.5523 0 1 .44772 1 1s-.4477 1-1 1h-2c-.5523 0-1-.44772-1-1Z" clip-rule="evenodd"/>
    <path d="M21 13.708v-1.583c0-.448-.298-.8414-.7293-.9627L18 10.5237v3.9408l.2322-.2323c.7484-.7483 1.853-.923 2.7678-.5242ZM6 10.5237l-2.27075.6386C3.29797 11.2836 3 11.677 3 12.125V20c0 .5523.44772 1 1 1h2V10.5237Z"/>
    <path fill-rule="evenodd" d="M20.7071 15.2929c.3905.3905.3905 1.0237 0 1.4142l-4 4c-.3905.3905-1.0237.3905-1.4142 0l-2-2c-.3905-.3905-.3905-1.0237 0-1.4142.3905-.3905 1.0237-.3905 1.4142 0L16 18.5858l3.2929-3.2929c.3905-.3905 1.0237-.3905 1.4142 0Z" clip-rule="evenodd"/>
  </symbol>
  <symbol id="school-exclamation-alt" fill="currentColor" viewBox="0 0 24 24">
    <path fill-rule="evenodd" d="M19 19c0-.5523.4477-1 1-1h.01c.5523 0 1 .4477 1 1s-.4477 1-1 1H20c-.5523 0-1-.4477-1-1Zm1-7c.5523 0 1 .4477 1 1v3c0 .5523-.4477 1-1 1s-1-.4477-1-1v-3c0-.5523.4477-1 1-1Z" clip-rule="evenodd"/>
    <path d="M11 13c0-.5523.4477-1 1-1s1 .4477 1 1-.4477 1-1 1-1-.4477-1-1Z"/>
    <path fill-rule="evenodd" d="M12 5.04736 6.65111 11.6306c-.18989.2337-.47499.3694-.77612.3694H3v7c0 .5523.44772 1 1 1h13.1707c-.1105-.3128-.1707-.6494-.1707-1 0-.5464.1461-1.0587.4013-1.5C17.1461 17.0587 17 16.5464 17 16v-3c0-.499.1218-.9696.3374-1.3835L12 5.04736ZM12 10c-1.6569 0-3.00001 1.3432-3.00001 3 0 1.6569 1.34311 3 3.00001 3 1.6568 0 3-1.3431 3-3 0-1.6568-1.3432-3-3-3Z" clip-rule="evenodd"/>
    <path d="M20.0095 10H18.601l-3.25-3.99999H18c.3148 0 .6112.1482.8.4L21.5 10h-1.4905Zm-.015 2c-.5498.003-.9945.4495-.9945 1v3c0 .0565.0047.1119.0137.1659.079.4733.4905.8341.9863.8341h.01c.4924-.0049.8997-.3656.9768-.8374.0087-.0529.0132-.1072.0132-.1626v-3c0-.5505-.4447-.997-.9945-1h-.011ZM21 18.8581c-.0013-.0092-.0027-.0183-.0043-.0273-.0803-.4717-.4911-.8308-.9857-.8308H20c-.4958 0-.9073.3608-.9863.8341-.009.054-.0137.1094-.0137.1659 0 .5523.4477 1 1 1h.0056c.5497-.003.9944-.4496.9944-1v-.1419ZM2.5 10l2.7-3.59999c.18885-.2518.48524-.4.8-.4h2.64902L5.39902 10H2.5Z"/>
  </symbol>
  <symbol id="school-exclamation" fill="currentColor" viewBox="0 0 24 24">
    <path d="m6 10.5237-2.27075.6386C3.29797 11.2836 3 11.677 3 12.125V20c0 .5523.44772 1 1 1h2V10.5237Z"/>
    <path fill-rule="evenodd" d="M12.5547 3.16795c-.3359-.22393-.7735-.22393-1.1094 0l-6.00002 4c-.45952.30635-.5837.92722-.27735 1.38675.30636.45953.92723.5837 1.38675.27735L8 7.86853V21h8V7.86853l1.4453.96352c.0143.00957.0289.01873.0435.02746.1597.09514.3364.14076.5112.1406.3228-.0003.6395-.15664.832-.44541.3064-.45953.1822-1.0804-.2773-1.38675l-6-4ZM10 12c0-.5523.4477-1 1-1h2c.5523 0 1 .4477 1 1s-.4477 1-1 1h-2c-.5523 0-1-.4477-1-1Zm1-4c-.5523 0-1 .44772-1 1s.4477 1 1 1h2c.5523 0 1-.44772 1-1s-.4477-1-1-1h-2Zm8 12c0-.5523.4477-1 1-1h.01c.5523 0 1 .4477 1 1s-.4477 1-1 1H20c-.5523 0-1-.4477-1-1Zm1-8c.5523 0 1 .4477 1 1v4c0 .5523-.4477 1-1 1s-1-.4477-1-1v-4c0-.5523.4477-1 1-1Z" clip-rule="evenodd"/>
  </symbol>
  <symbol id="school-flag-alt" fill="currentColor" viewBox="0 0 24 24">
    <path d="M12 12c-.5523 0-1 .4477-1 1s.4477 1 1 1 1-.4477 1-1-.4477-1-1-1Z"/>
    <path fill-rule="evenodd" d="M17 4c-.5523 0-1 .44772-1 1v4.97045l-4-4.92309-5.34889 6.58324c-.18989.2337-.47499.3694-.77612.3694H3v7c0 .5523.44772 1 1 1h16c.5523 0 1-.4477 1-1v-7h-2.875c-.0421 0-.0838-.0026-.125-.0078V9h3c.5523 0 1-.44772 1-1V5c0-.55228-.4477-1-1-1h-4Zm-8.00001 9c0-1.6568 1.34311-3 3.00001-3 1.6568 0 3 1.3432 3 3 0 1.6569-1.3432 3-3 3-1.6569 0-3.00001-1.3431-3.00001-3Z" clip-rule="evenodd"/>
    <path d="M5.2 6.40001 2.5 10h2.89902l3.25-3.99999H6c-.31476 0-.61115.1482-.8.4Z"/>
  </symbol>
  <symbol id="school-flag" fill="currentColor" viewBox="0 0 24 24">
    <path fill-rule="evenodd" d="M15 4c0-.55228.4477-1 1-1h4c.5523 0 1 .44772 1 1v3c0 .55228-.4477 1-1 1h-4v13H8V7.86853l-1.44532.96352c-.45952.30635-1.08039.18218-1.38675-.27735-.30635-.45953-.18217-1.0804.27735-1.38675l6.00002-4c.3359-.22393.7735-.22393 1.1094 0L15 4.79816V4Zm-5 8c0-.5523.4477-1 1-1h2c.5523 0 1 .4477 1 1s-.4477 1-1 1h-2c-.5523 0-1-.4477-1-1Zm1-4c-.5523 0-1 .44772-1 1s.4477 1 1 1h2c.5523 0 1-.44772 1-1s-.4477-1-1-1h-2Z" clip-rule="evenodd"/>
    <path d="M18 9.00011 17.9843 9h.0296L18 9.00011ZM6 10.5237l-2.27075.6386C3.29797 11.2836 3 11.677 3 12.125V20c0 .5523.44772 1 1 1h2V10.5237Zm14.2707.6386L18 10.5237V21h2c.5523 0 1-.4477 1-1v-7.875c0-.448-.298-.8414-.7293-.9627Z"/>
  </symbol>
  <symbol id="school-lock-alt" fill="currentColor" viewBox="0 0 24 24">
    <path d="M6.65111 11.6306 12 5.04736l3.0095 3.70405c-.627.41739-1.1433.9879-1.4955 1.65809C13.0696 10.1492 12.5522 10 12 10c-1.6569 0-3.00001 1.3432-3.00001 3 0 1.3076.8365 2.4197 2.00351 2.8306-.0023.0561-.0035.1126-.0035.1694v2c0 .7286.1948 1.4117.5351 2H4c-.55228 0-1-.4477-1-1v-7h2.87499c.30113 0 .58623-.1357.77612-.3694Z"/>
    <path fill-rule="evenodd" d="M16.1022 10.427C15.4372 10.8762 15 11.6371 15 12.5V14c-.0584 0-.1162.0025-.1733.0074-.9663.083-1.7363.853-1.8193 1.8193l-.0006.0067c-.0045.055-.0068.1105-.0068.1666v2c0 1.1046.8954 2 2 2h5.0079C21.1088 19.9957 22 19.1019 22 18v-2c0-.7403-.4022-1.3866-1-1.7324-.0154-.009-.031-.0177-.0467-.0262C20.6699 14.0874 20.3452 14 20 14v-1.5c0-.1712-.0172-.3384-.05-.5-.2316-1.1411-1.2405-2-2.45-2-.4425 0-.8581.115-1.2187.3167-.0613.0343-.1211.0711-.1791.1103ZM17.5 12c-.2761 0-.5.2239-.5.5V14h1v-1.5c0-.2761-.2239-.5-.5-.5Z" clip-rule="evenodd"/>
    <path d="M21.2422 10c-.8072-1.20598-2.182-2-3.7422-2-.1695 0-.3369.00938-.5016.02764L15.351 6.00001H18c.3148 0 .6112.1482.8.4L21.5 10h-.2578Zm-8.3308 2.5879C12.7544 12.2412 12.4054 12 12 12c-.5523 0-1 .4477-1 1 0 .4054.2412.7544.5879.9114.3304-.5386.7848-.9931 1.3235-1.3235ZM5.2 6.40001 2.5 10h2.89902l3.25-3.99999H6c-.31476 0-.61115.1482-.8.4Z"/>
  </symbol>
  <symbol id="school-lock" fill="currentColor" viewBox="0 0 24 24">
    <path fill-rule="evenodd" d="M11.4453 3.16795c.3359-.22393.7735-.22393 1.1094 0l6 4c.4595.30635.5837.92722.2773 1.38675-.1925.28877-.5092.44511-.832.44541-.1748.00016-.3515-.04546-.5112-.1406-.0146-.00873-.0292-.01789-.0435-.02746L16 7.86853v1.66242c-1.0832.13507-2.0319.70325-2.6673 1.52575C13.2286 11.02 13.1166 11 13 11h-2c-.5523 0-1 .4477-1 1s.4477 1 1 1h1.5309c-.0204.1638-.0309.3307-.0309.5v.3368c-1.1825.5617-2 1.767-2 3.1632v2c0 .7436.2319 1.4331.6273 2H8V7.86853l-1.44532.96352c-.45952.30635-1.08039.18218-1.38675-.27735-.30635-.45953-.18217-1.0804.27735-1.38675l6.00002-4ZM10 9c0-.55228.4477-1 1-1h2c.5523 0 1 .44772 1 1s-.4477 1-1 1h-2c-.5523 0-1-.44772-1-1Z" clip-rule="evenodd"/>
    <path fill-rule="evenodd" d="M16.5 11c.5628 0 1.0822.186 1.5.4998.0306.023.0607.0467.0902.0711.5557.4585.9098 1.1524.9098 1.9291V15c1.1046 0 2 .8954 2 2v2c0 1.1016-.8907 1.9952-1.9912 2H14c-1.1046 0-2-.8954-2-2v-2c0-1.1046.8954-2 2-2v-1.5c0-1.2081.857-2.2161 1.9962-2.4492L16 11.05c.1616-.0328.3288-.05.5-.05Zm0 2c-.2761 0-.5.2239-.5.5V15h1v-1.5c0-.2761-.2239-.5-.5-.5Z" clip-rule="evenodd"/>
    <path d="M3.72925 11.1623 6 10.5237V21H4c-.55228 0-1-.4477-1-1v-7.875c0-.448.29797-.8414.72925-.9627Z"/>
  </symbol>
  <symbol id="school-xmark-alt" fill="currentColor" viewBox="0 0 24 24">
    <path d="M6.65111 11.6306 12 5.04736l5.3489 6.58324c.1899.2337.475.3694.7761.3694H21v1.0646c-.8482-.2477-1.8019-.0371-2.4708.6319-.9763-.9764-2.5592-.9763-3.5355 0-.0357.0356-.0701.0721-.1032.1094.0714-.2564.1095-.5267.1095-.8059 0-1.6568-1.3432-3-3-3-1.6569 0-3.00001 1.3432-3.00001 3 0 1.6569 1.34311 3 3.00001 3 .9389 0 1.777-.4313 2.3271-1.1066-.19.8138.0322 1.7042.6666 2.3386-.7484.7484-.9231 1.8532-.5242 2.768H4c-.55228 0-1-.4477-1-1v-7h2.87499c.30113 0 .58623-.1357.77612-.3694Z"/>
    <path d="M17.4685 14.7571c-.3905-.3905-1.0237-.3905-1.4142 0-.3905.3905-.3905 1.0237 0 1.4142l1.0607 1.0607-1.0607 1.0607c-.3905.3905-.3905 1.0236 0 1.4142.3905.3905 1.0237.3905 1.4142 0l1.0607-1.0607 1.0606 1.0607c.1465.1464.327.2379.5161.2746.0145.0028.0291.0052.0437.0074.3025.0448.6216-.0492.8544-.282.3906-.3906.3906-1.0237 0-1.4142l-1.0606-1.0607L21 16.1754l.004-.0041c.3906-.3905.3906-1.0237 0-1.4142l-.004-.004c-.0403-.0398-.0831-.0756-.128-.1072-.3902-.2749-.9331-.2378-1.2822.1112l-1.0606 1.0607-1.0607-1.0607ZM12 12c-.5523 0-1 .4477-1 1s.4477 1 1 1 1-.4477 1-1-.4477-1-1-1Zm-9.5-2 2.7-3.59999c.18885-.2518.48524-.4.8-.4h2.64902L5.39902 10H2.5Zm12.851-3.99999L18.601 10H21.5l-2.7-3.59999c-.1888-.2518-.4852-.4-.8-.4h-2.649Z"/>
  </symbol>
  <symbol id="school-xmark" fill="currentColor" viewBox="0 0 24 24">
    <path fill-rule="evenodd" d="M15.3077 15.7016c.3906-.3905 1.0237-.3905 1.4142 0l1.0607 1.0607 1.0607-1.0607c.3905-.3905 1.0237-.3905 1.4142 0 .3905.3905.3905 1.0237 0 1.4142l-1.0607 1.0607 1.0607 1.0606c.3905.3906.3905 1.0237 0 1.4143-.3905.3905-1.0237.3905-1.4142 0l-1.0607-1.0607-1.0607 1.0607c-.3905.3905-1.0236.3905-1.4142 0-.3905-.3906-.3905-1.0237 0-1.4143l1.0607-1.0606-1.0607-1.0607c-.3905-.3905-.3905-1.0237 0-1.4142Z" clip-rule="evenodd"/>
    <path fill-rule="evenodd" d="M11.4453 3.16795c.3359-.22393.7735-.22393 1.1094 0l6 4c.4595.30635.5837.92722.2773 1.38675-.1925.28877-.5092.44511-.832.44541-.1748.00016-.3515-.04546-.5112-.1406-.0146-.00873-.0292-.01789-.0435-.02746L16 7.86853v6.04017c-.6348.0038-1.2685.2478-1.7529.7322-.9763.9763-.9763 2.5592 0 3.5356-.7636.7635-.93 1.8982-.4991 2.8235H8V7.86853l-1.44532.96352c-.45952.30635-1.08039.18218-1.38675-.27735-.30635-.45953-.18217-1.0804.27735-1.38675l6.00002-4ZM11 11c-.5523 0-1 .4477-1 1s.4477 1 1 1h2c.5523 0 1-.4477 1-1s-.4477-1-1-1h-2Zm-1-2c0-.55228.4477-1 1-1h2c.5523 0 1 .44772 1 1s-.4477 1-1 1h-2c-.5523 0-1-.44772-1-1Z" clip-rule="evenodd"/>
    <path d="M21 14.3714V12.125c0-.448-.298-.8414-.7293-.9627L18 10.5237v3.9235c.873-.6918 2.1011-.7171 3-.0758Zm-3 2.1735.8433-.8433c.3905-.3905 1.0237-.3905 1.4142 0 .3905.3905.3905 1.0237 0 1.4142l-1.0607 1.0607 1.0607 1.0606c.3905.3906.3905 1.0237 0 1.4143-.3905.3905-1.0237.3905-1.4142 0L18 19.8081v-3.2632Zm-2-1.1361c-.251.0037-.5008.1013-.6923.2928-.3905.3905-.3905 1.0237 0 1.4142l.6923.6923v-2.3993Zm0 3.1361v2.3992c-.251-.0037-.5008-.1013-.6923-.2927-.3905-.3906-.3905-1.0237 0-1.4143L16 18.5449ZM6 10.5237l-2.27075.6386C3.29797 11.2836 3 11.677 3 12.125V20c0 .5523.44772 1 1 1h2V10.5237Z"/>
  </symbol>
  <symbol id="school" fill="currentColor" viewBox="0 0 24 24">
    <path d="m6 10.5237-2.27075.6386C3.29797 11.2836 3 11.677 3 12.125V20c0 .5523.44772 1 1 1h2V10.5237Zm12 0 2.2707.6386c.4313.1213.7293.5147.7293.9627V20c0 .5523-.4477 1-1 1h-2V10.5237Z"/>
    <path fill-rule="evenodd" d="M12.5547 3.16795c-.3359-.22393-.7735-.22393-1.1094 0l-6.00002 4c-.45952.30635-.5837.92722-.27735 1.38675.30636.45953.92723.5837 1.38675.27735L8 7.86853V21h8V7.86853l1.4453.96352c.0143.00957.0289.01873.0435.02746.1597.09514.3364.14076.5112.1406.3228-.0003.6395-.15664.832-.44541.3064-.45953.1822-1.0804-.2773-1.38675l-6-4ZM10 12c0-.5523.4477-1 1-1h2c.5523 0 1 .4477 1 1s-.4477 1-1 1h-2c-.5523 0-1-.4477-1-1Zm1-4c-.5523 0-1 .44772-1 1s.4477 1 1 1h2c.5523 0 1-.44772 1-1s-.4477-1-1-1h-2Z" clip-rule="evenodd"/>
  </symbol>
  <symbol id="shapes" fill="currentColor" viewBox="0 0 24 24">
    <path d="M12.8638 3.49613C12.6846 3.18891 12.3557 3 12 3s-.6846.18891-.8638.49613l-3.49998 6c-.18042.30929-.1817.69147-.00336 1.00197S8.14193 11 8.5 11h7c.3581 0 .6888-.1914.8671-.5019.1784-.3105.1771-.69268-.0033-1.00197l-3.5-6ZM4 13c-.55228 0-1 .4477-1 1v6c0 .5523.44772 1 1 1h6c.5523 0 1-.4477 1-1v-6c0-.5523-.4477-1-1-1H4Zm12.5-1c-2.4853 0-4.5 2.0147-4.5 4.5s2.0147 4.5 4.5 4.5 4.5-2.0147 4.5-4.5-2.0147-4.5-4.5-4.5Z"/>
  </symbol>
  <symbol id="theatre" fill="currentColor" viewBox="0 0 24 24">
    <path fill-rule="evenodd" d="M7.50001 6.49476c-.00222.00067-.00443.00134-.00665.00202-1.36964.41615-2.57189 1.22541-3.40555 1.89335-.42318.33907-.76614.65372-1.00483.88517-.11959.11596-.21369.21169-.2793.27999-.03283.03417-.05857.06153-.07687.08118l-.02184.02361-.00665.00728-.00225.00247-.00152.00167c-.23565.26049-.31736.6255-.21524.9616l1.88966 6.2193c.28122.9255.90731 1.6328 1.59535 2.159.68925.5272 1.4966.9166 2.25327 1.198.76111.2832 1.50814.4708 2.10341.5791.2973.054.5684.0904.7934.1077.1117.0085.2238.0133.3286.0113.0814-.0016.2434-.0076.4111-.0586.1678-.051.3057-.1361.3743-.18.0882-.0566.1786-.123.2667-.1923.1774-.1395.3824-.3205.5994-.5309-.076-.0369-.1525-.0755-.2297-.1152-.6068-.312-1.3433-.7546-2.0675-1.3064-.4898-.3733-1.01068-.8242-1.48988-1.3492-.28662.4467-.87678.5935-1.34124.3253-.47829-.2761-.64217-.8877-.36603-1.366.01906-.033.03873-.0675.05915-.1034.10835-.1902.23774-.4173.40797-.6498C7.73454 14.6941 7.5 13.8935 7.5 13V6.5l.00001-.00524ZM5.72195 11.0461c-.52844.1606-.82665.7191-.6661 1.2476.16056.5284.7191.8266 1.24753.6661l.00957-.003c.52843-.1605.82665-.7191.66609-1.2475-.16056-.5284-.7191-.8266-1.24753-.6661l-.00956.0029Z" clip-rule="evenodd"/>
    <path fill-rule="evenodd" d="M15 4c-1.4315 0-2.8171.42479-3.8089.82152-.5035.2014-.9231.40276-1.21876.55482-.14814.07618-.26601.14043-.34864.1867-.04134.02315-.07393.04184-.09715.05533l-.02775.01624-.00849.00502-.00286.00171-.00195.00117C9.1843 5.82323 9 6.14874 9 6.5V13c0 .9673.39342 1.8261.89875 2.5296.50625.7048 1.16555 1.312 1.80765 1.8013.646.4922 1.3062.8889 1.8442 1.1655.2688.1382.5176.2518.7279.3338.1044.0407.2102.0778.3111.1063.0784.0222.2351.0635.4104.0635.1753 0 .332-.0413.4104-.0635.1009-.0285.2067-.0656.3111-.1063.2103-.082.4591-.1956.7279-.3338.538-.2766 1.1982-.6733 1.8442-1.1655.6421-.4893 1.3014-1.0965 1.8076-1.8013C20.6066 14.8261 21 13.9673 21 13V6.5c0-.35126-.1852-.67728-.4864-.85801l-.001-.00065-.0029-.00171-.0085-.00502-.0278-.01624c-.0232-.01349-.0558-.03218-.0971-.05533-.0826-.04627-.2005-.11052-.3486-.1867-.2957-.15206-.7153-.35342-1.2188-.55482C17.8171 4.42479 16.4315 4 15 4Zm5 2.5.5136-.85801S20.5145 5.64251 20 6.5ZM13 7c-.5523 0-1 .44772-1 1s.4477 1 1 1h.01c.5523 0 1-.44772 1-1s-.4477-1-1-1H13Zm4 0c-.5523 0-1 .44772-1 1s.4477 1 1 1h.01c.5523 0 1-.44772 1-1s-.4477-1-1-1H17Zm-4.7071 4.2929c-.3905.3905-.3905 1.0237 0 1.4142.0269.027.0549.0552.0838.0845.4776.4831 1.243 1.2574 2.6233 1.2574 1.3803 0 2.1457-.7743 2.6232-1.2573.029-.0294.057-.0576.0839-.0846.3905-.3905.3905-1.0237 0-1.4142-.3905-.3905-1.0237-.3905-1.4142 0-.5293.5293-.757.7561-1.2929.7561-.5359 0-.7636-.2268-1.2929-.7561-.3905-.3905-1.0237-.3905-1.4142 0Z" clip-rule="evenodd"/>
  </symbol>
  <symbol id="user-graduate" fill="currentColor" viewBox="0 0 24 24">
    <path d="M12.4472 2.10557c-.2815-.14076-.6129-.14076-.8944 0L5.90482 4.92956l.37762.11119c.01131.00333.02257.00687.03376.0106L12 6.94594l5.6808-1.89361.3927-.13363-5.6263-2.81313ZM5 10V6.74803l.70053.20628L7 7.38747V10c0 .5523-.44772 1-1 1s-1-.4477-1-1Zm3-1c0-.42413.06601-.83285.18832-1.21643l3.49538 1.16514c.2053.06842.4272.06842.6325 0l3.4955-1.16514C15.934 8.16715 16 8.57587 16 9c0 2.2091-1.7909 4-4 4-2.20914 0-4-1.7909-4-4Z"/>
    <path d="M14.2996 13.2767c.2332-.2289.5636-.3294.8847-.2692C17.379 13.4191 19 15.4884 19 17.6488v2.1525c0 1.2289-1.0315 2.1428-2.2 2.1428H7.2c-1.16849 0-2.2-.9139-2.2-2.1428v-2.1525c0-2.1409 1.59079-4.1893 3.75163-4.6288.32214-.0655.65589.0315.89274.2595l2.34883 2.2606 2.3064-2.2634Z"/>
  </symbol>
</svg>