<svg xmlns="http://www.w3.org/2000/svg" xmlns:xlink="http://www.w3.org/1999/xlink">
  <symbol id="apple-full" fill="none" viewBox="0 0 24 24">
    <path fill="currentColor" d="M15.0524 2.01283c-.2634-.00221-.7706-.00646-1.3064.08808-.6053.10681-1.377.35866-1.975.99279-.557.59067-.8308 1.31504-.9706 1.92248-.1413.61388-.1628 1.1828-.1628 1.5327v1h1c.0429 0 .0873.00018.1333.00036.8172.00329 2.1026.00847 3.2375-.9589.7023-.59862.9572-1.43277 1.059-2.06861.0871-.54385.0798-1.08153.0758-1.37798-.0007-.051-.0013-.09486-.0013-.13038v-1h-1c-.0255 0-.0554-.00025-.0895-.00054Zm-3.0525 7.02912c-.2934 0-.3974-.0566-.7263-.23555-.1027-.05589-.2273-.12372-.3865-.20548-.6797-.34907-1.55211-.64467-3.12486-.59552-1.30968.04093-2.37715.88151-3.01521 2.0359-.64078 1.1594-.90215 2.7005-.65499 4.4145.1543 1.07.66239 2.84 1.39644 4.358.36735.7596.81762 1.5119 1.34963 2.0895C7.35502 21.4646 8.08053 22 8.99163 22c1.17857 0 1.86287-.2589 2.38977-.5504.1663-.092.2761-.1558.3523-.2001.1161-.0674.1542-.0895.1949-.0968.0198-.0035.0403-.0035.0708-.0035.0105 0 .0195-.0003.0268-.0005.0132-.0003.0222-.0006.031.0009.0193.0032.0373.0146.095.0514.0638.0408.1761.1125.3925.2382.5319.3091 1.2263.5608 2.4635.5608.9293 0 1.6712-.5145 2.2105-1.0909.5456-.5832.9936-1.3421 1.3526-2.1048.7186-1.5268 1.1845-3.2947 1.3365-4.3485.2471-1.714-.0142-3.2551-.655-4.4145-.6381-1.15439-1.7055-1.99497-3.0152-2.0359-1.5728-.04915-2.4451.24645-3.1248.59552-.1592.08176-.2839.14959-.3866.20548-.3289.17895-.4329.23555-.7263.23555Z"/>
  </symbol>
  <symbol id="bacon" fill="none" viewBox="0 0 24 24">
    <path fill="currentColor" d="m16.1325 4.33451-2.5233-1.40664c-.4721-.26314-1.0678-.1036-1.3452.36025-.5301.88653-.995 1.16623-1.5715 1.51306l-.0109.00653c-.68512.41222-1.48439.89668-2.26786 2.20693-.78556 1.31373-.82234 2.23251-.84978 3.01976l-.00064.0183c-.02242.6445-.04051 1.1644-.56688 2.0447-.53011.8866-.99504 1.1663-1.57156 1.5131l-.01086.0065c-.68515.4122-1.48441.8967-2.26789 2.207-.13881.2321-.17767.5106-.10769.7719.06998.2612.24281.483.47907.6147l2.62175 1.4615c.14127-.4135.30621-.7369.42823-.941.78347-1.3102 1.58276-1.7947 2.26791-2.2069l.01085-.0066c.57652-.3468 1.04146-.6265 1.57155-1.513.5264-.8803.5445-1.4003.5669-2.0448l.0006-.0183c.0275-.7872.0643-1.706.8498-3.01973.7835-1.31024 1.5828-1.79471 2.2679-2.20692l.0109-.00653c.5738-.34523 1.0371-.62397 1.5642-1.50087.1235-.22119.2956-.5451.4544-.87294ZM7.93136 19.6711l2.42894 1.354c.4721.2632 1.0678.1037 1.3452-.3602.5301-.8865.995-1.1662 1.5715-1.513l.0109-.0066c.6852-.4122 1.4844-.8967 2.2679-2.2069.7855-1.3137.8223-2.2325.8498-3.0198l.0006-.0183c.0224-.6444.0405-1.1644.5669-2.0447.5301-.8865.995-1.1662 1.5715-1.5131l.0109-.0065c.6852-.41221 1.4844-.89667 2.2679-2.20692.1388-.23214.1777-.51061.1077-.77188-.07-.26128-.2428-.48306-.479-.61477L17.882 5.30974c-.1678.34035-.34.6625-.4657.88717-.0047.00832-.0095.01658-.0143.02476-.7835 1.31025-1.5828 1.79471-2.2679 2.20693l-.0109.00653c-.5765.34683-1.0415.62653-1.5716 1.51306-.5263.88031-.5444 1.40031-.5668 2.04471l-.0007.0183c-.0274.7873-.0642 1.7061-.8498 3.0198-.7834 1.3102-1.5827 1.7947-2.26785 2.2069l-.01085.0065c-.57651.3469-1.04144.6266-1.57154 1.5131-.10167.17-.25746.4945-.3527.9136Z"/>
  </symbol>
  <symbol id="beer-mug-empty" fill="none" viewBox="0 0 24 24">
    <path fill="currentColor" fill-rule="evenodd" d="M3.94343 4.87524C4.00931 3.82117 4.88341 3 5.93953 3h9.12107c1.0562 0 1.9303.82117 1.9961 1.87524L17.0645 5h2.9356c.5523 0 1 .44772 1 1v3.85927c0 1.67173-.8355 3.23293-2.2265 4.16023l-1.0995.733L17.752 16H3.24813l.6953-11.12476ZM17.5298 12.445l.1344-.0896c.8346-.5564 1.3359-1.4931 1.3359-2.49613V7h-1.8106l.3403 5.445ZM10 7c0-.55228-.44772-1-1-1s-1 .44772-1 1v7c0 .5523.44772 1 1 1s1-.4477 1-1V7Zm3 0c0-.55228-.4477-1-1-1s-1 .44772-1 1v7c0 .5523.4477 1 1 1s1-.4477 1-1V7Z" clip-rule="evenodd"/>
    <path fill="currentColor" d="m3.12313 18-.0547.8752C2.99647 20.0266 3.91089 21 5.06453 21H15.9356c1.1537 0 2.0681-.9734 1.9961-2.1248L17.877 18H3.12313Z"/>
  </symbol>
  <symbol id="bone" fill="none" viewBox="0 0 24 24">
    <path fill="currentColor" d="M4.13982 11.889c-1.40388 1.4039-1.40388 3.5869 0 4.9907.52114.5212 1.22247.8909 1.9657 1.0148.12387.7432.49363 1.4446 1.01476 1.9657 1.40388 1.4039 3.58692 1.4039 4.99072 0 1.1572-1.1571 1.3605-2.8435.6102-4.1867l2.9523-2.9523c1.3432.7503 3.0296.5469 4.1867-.6102 1.4039-1.4039 1.4039-3.58687 0-4.99075-.5211-.52113-1.2224-.89089-1.9657-1.01476-.1238-.74323-.4936-1.44456-1.0147-1.9657-1.4039-1.40388-3.5869-1.40388-4.9908 0-1.1571 1.15712-1.3605 2.84353-.6102 4.18672L8.32654 11.2788c-1.34319-.7503-3.0296-.5469-4.18672.6102Z"/>
  </symbol>
  <symbol id="bowl-food" fill="none" viewBox="0 0 24 24">
    <path fill="currentColor" fill-rule="evenodd" d="M21 11.0001c0-.8815-.3799-1.6731-.984-2.22145.5031-1.33846.2177-2.97144-.9813-3.94213-1.059-.8574-2.4761-.97568-3.6271-.42051-.2908-.39083-.6632-.70423-1.0895-.93179-.8229-.43923-1.8026-.53949-2.7413-.35637-1.2172.23745-2.18257 1.03558-2.68037 2.07405-.08983-.05265-.18224-.10165-.27714-.14661-.86027-.40752-1.89128-.46242-2.91449.05292-1.40603.70815-2.13029 2.35257-1.84394 3.8504-.16121.14468-.30525.31046-.42787.49818C3.13246 9.91685 3 10.4482 3 11.0001c0 .5506.445.9972.99497.9999H20.005c.55-.0027.995-.4493.995-.9999Zm-6.8905-.7654c-.2294-.50238-.8227-.72362-1.325-.49417-.5024.22945-1.0956.00821-1.3251-.49415-.2294-.50237-.0082-1.09562.4942-1.32507 1.5071-.68836 3.2868-.02463 3.9752 1.48247.2294.50236.0082 1.09562-.4942 1.32502-.5024.2295-1.0956.0083-1.3251-.4941Z" clip-rule="evenodd"/>
    <path fill="currentColor" d="M20.3593 15.2241c.2828-.5949-.195-1.2241-.8537-1.2241H4.49439c-.6587 0-1.1365.6292-.85371 1.2241.85327 1.7951 2.4178 3.2323 4.33593 4.0722V20c0 .5523.44772 1 1 1h6.04679c.5523 0 1-.4477 1-1v-.7037c1.9181-.8399 3.4827-2.2771 4.3359-4.0722Z"/>
  </symbol>
  <symbol id="bowl-rice" fill="none" viewBox="0 0 24 24">
    <path fill="currentColor" fill-rule="evenodd" d="M12.2605 3.79368c-.281-.22353-.5975-.3898-.9173-.5062-.7024-.25567-1.49918-.30568-2.24095-.18661-1.15818.18592-2.51613.88193-2.97474 2.22764-.40442.04107-.77944.1442-1.12195.31017-.59942.29046-1.02697.73841-1.32274 1.22999C3.11436 7.81349 3 8.97014 3 9.78568c0 .89142.27124 1.65012.76053 2.21432H20.3218c.0101-.0125.0201-.0251.0301-.0379.4919-.6324.6411-1.4185.6479-2.12509.1233-1.32715-.3036-2.47-1.0971-3.27874-.6018-.6132-1.3829-1.00304-2.2193-1.15392-.431-1.19435-1.444-2.10209-2.8973-2.26254-.9135-.10087-1.819.19102-2.5256.65187ZM9 8c0-.55228.44772-1 1-1h.01c.5523 0 1 .44772 1 1s-.4477 1-1 1H10c-.55228 0-1-.44772-1-1Zm4 0c0-.55228.4477-1 1-1h.01c.5523 0 1 .44772 1 1s-.4477 1-1 1H14c-.5523 0-1-.44772-1-1Zm-7 2c0-.55228.44772-1 1-1h.01c.55228 0 1 .44772 1 1 0 .5523-.44772 1-1 1H7c-.55228 0-1-.4477-1-1Zm5 0c0-.55228.4477-1 1-1h.01c.5523 0 1 .44772 1 1 0 .5523-.4477 1-1 1H12c-.5523 0-1-.4477-1-1Zm5 0c0-.55228.4477-1 1-1h.01c.5523 0 1 .44772 1 1 0 .5523-.4477 1-1 1H17c-.5523 0-1-.4477-1-1Z" clip-rule="evenodd"/>
    <path fill="currentColor" d="M20.6134 14.6222c.1145-.3088-.1249-.6222-.4542-.6222H3.84086c-.32935 0-.56875.3134-.45429.6222.76918 2.0753 2.462 3.7423 4.59004 4.6741V20c0 .5523.44772 1 1 1h6.04679c.5523 0 1-.4477 1-1v-.7037c2.128-.9318 3.8209-2.5988 4.59-4.6741Z"/>
  </symbol>
  <symbol id="bread-slice" fill="none" viewBox="0 0 24 24">
    <path fill="currentColor" d="M11.9925 3.01102c-1.9214.01439-3.85188.37019-6.25505 1.0241-.01805.00491-.03595.01032-.05369.01624-.91244.30416-1.60323.7905-2.06 1.42998C3.16866 6.1185 3 6.83191 3 7.50006c0 .63697.15395 1.45811.5895 2.15498.31425.50276.78203.94286 1.4105 1.17356V19c0 1.1046.89543 2 2 2h10c1.1046 0 2-.8954 2-2v-8.1714c.6285-.2307 1.0962-.6708 1.4105-1.17356C20.846 8.95817 21 8.13703 21 7.50006c0-.66815-.1687-1.38156-.6238-2.01872-.4567-.63948-1.1475-1.12582-2.06-1.42998-.0177-.00592-.0356-.01133-.0536-.01624-2.4032-.65391-4.3337-1.00971-6.2551-1.0241h-.015Z"/>
  </symbol>
  <symbol id="burger" fill="none" viewBox="0 0 24 24">
    <path fill="currentColor" d="M15 3.00009H9.00003c-2.76143 0-5 2.23858-5 5v1c0 .55229.44771 1.00001 1 1.00001H19c.5523 0 1-.44773 1-1.00001v-1c0-2.76142-2.2386-5-5-5Z"/>
    <path fill="currentColor" d="m4.35115 12.9364 2.31554-.8683 2.31555.8683c.22638.0849.47586.0849.70224 0L12 12.0681l2.3156.8683c.2264.0849.4758.0849.7022 0l2.3156-.8683 2.3155.8683c.5171.1939 1.0935-.0681 1.2875-.5852.1939-.5171-.0681-1.0935-.5852-1.2874l-2.6667-1c-.2264-.08493-.4759-.08493-.7023 0l-2.3155.8683-2.3155-.8683c-.2264-.08493-.4759-.08493-.7023 0l-2.31554.8683-2.31554-.8683c-.22639-.08493-.47586-.08493-.70225 0l-2.66667 1c-.51712.1939-.77912.7703-.5852 1.2874.19392.5171.77033.7791 1.28745.5852Z"/>
    <path fill="currentColor" d="M21 15.5001c0 .8179-.3927 1.5441-1 2.0002v.4998c0 1.6568-1.3431 3-3 3H7.00003c-1.65686 0-3-1.3432-3-3v-.4998c-.60723-.4561-1-1.1823-1-2.0002 0-1.3807 1.11928-2.5 2.5-2.5H18.5c1.3807 0 2.5 1.1193 2.5 2.5Z"/>
  </symbol>
  <symbol id="cake-candles" fill="none" viewBox="0 0 24 24">
    <path fill="currentColor" d="M11.6643 2.05648c.0197-.00699.1589-.05645.3357-.05645.1768 0 .316.04946.3357.05645l.0019.00067c.0461.01577.0846.03229.1092.04332.0514.02304.1015.04898.1449.07268.0896.04898.1957.11302.3102.18855.2291.15109.521.36725.8121.63689C14.247 3.49218 15 4.37 15 5.50003c0 1.12688-.7447 2.00396-1.2779 2.49995-.2531.23541-.5075.43043-.7221.57742V10h5c.5523 0 1 .4477 1 1v3h-4c-.0568 0-.1125.0048-.1667.0139-.0542-.0091-.1099-.0139-.1667-.0139H5v-3c0-.5523.44772-1 1-1h5V8.57622c-.2139-.14666-.4676-.34115-.7202-.57589C9.74664 7.50489 9 6.62764 9 5.50003c0-1.13003.753-2.00785 1.286-2.50144.2911-.26964.583-.4858.8121-.63689.1145-.07553.2206-.13957.3102-.18855.0434-.0237.0935-.04964.1449-.07268.0246-.01103.0631-.02755.1092-.04332l.0019-.00067ZM4 17.8377V21c0 .5523.44772 1 1 1h14c.5523 0 1-.4477 1-1v-2.8243c-.0609.0534-.1248.1054-.1917.1556-.56.42-1.274.6687-2.1416.6687-.8677 0-1.5817-.2487-2.1417-.6687-.281-.2108-.5081-.4531-.6917-.7045-.1835.2514-.4106.4937-.6917.7045-.5599.42-1.2739.6687-2.1416.6687-.8677 0-1.5817-.2487-2.14169-.6687-.20142-.1511-.37514-.3184-.52499-.4936-.14984.1752-.32356.3425-.52499.4936-.55999.42-1.27398.6687-2.14166.6687s-1.58168-.2487-2.14167-.6687c-.20143-.1511-.37515-.3184-.525-.4936ZM5.2078 16c.0124.0314.0255.0628.03934.0939.11841.2664.27553.4856.47786.6374.19001.1425.47602.2687.94167.2687s.75165-.1262.94166-.2687c.20234-.1518.35945-.371.47786-.6374.01384-.0311.02694-.0625.03934-.0939H5.2078Zm5.3727.0939c-.0139-.0311-.027-.0625-.0394-.0939h2.9177c-.0124.0314-.0255.0628-.0393.0939-.1184.2664-.2755.4856-.4779.6374-.19.1425-.476.2687-.9416.2687-.4657 0-.7517-.1262-.9417-.2687-.2023-.1518-.3594-.371-.4778-.6374Zm5.6666 0c-.0138-.0311-.0269-.0625-.0393-.0939h2.9177c-.0124.0314-.0255.0628-.0393.0939-.1184.2664-.2755.4856-.4779.6374-.19.1425-.476.2687-.9416.2687-.4657 0-.7517-.1262-.9417-.2687-.2023-.1518-.3594-.371-.4779-.6374Z"/>
  </symbol>
  <symbol id="candy-cane" fill="none" viewBox="0 0 24 24">
    <path fill="currentColor" d="m11 9.16318-5-.8017V10.5C6 11.8807 7.11929 13 8.5 13s2.5-1.1193 2.5-2.5V9.16318ZM6.1404 6.35844 11 7.13764V2.08771c-1.14494.19988-2.22828.73028-3.08702 1.47474-.83378.72283-1.49585 1.68517-1.77258 2.79599ZM13 2.08771v4.91232h4.9734c-.1477-1.38214-.8959-2.57887-1.8864-3.43758-.8587-.74446-1.9421-1.27485-3.087-1.47474Zm5 6.91232h-5V11h5V9.00003ZM18 13h-5v2h5v-2Zm0 4h-5v2.5c0 1.3807 1.1193 2.5 2.5 2.5s2.5-1.1193 2.5-2.5V17Z"/>
  </symbol>
  <symbol id="carrot" fill="none" viewBox="0 0 24 24">
    <path fill="currentColor" d="M16.0001 3c.5522 0 1 .44772 1 1v1.64215l1.5644-1.51254c.397-.38389 1.0301-.37322 1.414.02383.3839.39705.3732 1.03013-.0239 1.41401L18.473 6.99998l1.5271.00001c.5522 0 1 .44772.9999 1 0 .55229-.4477 1-1 1l-2.1048-.00001c.263.59002.4154 1.22712.4292 1.89222.0195.9368-.2372 1.8739-.7777 2.7561l-2.8459-2.7774c-.3952-.3857-1.0284-.378-1.4141.0173-.3857.3952-.378 1.0283.0172 1.4141l2.9486 2.8774c-.8296.7625-2.1057 1.7284-3.5125 2.6476-.0039-.0043-.0079-.0086-.0119-.0129l-2.88472-3.0631c-.37864-.402-1.01152-.421-1.41358-.0424-.40206.3787-.42104 1.0115-.0424 1.4136l2.6129 2.7745c-.189.1089-.3781.2152-.5666.3186-1.21703.6674-2.4674 1.2427-3.553 1.5412-.54097.1487-1.09271.2436-1.60567.2207-.51242-.0228-1.08874-.1699-1.53164-.6128-.44291-.4429-.58999-1.0192-.61281-1.5316-.02284-.513.07199-1.0647.22074-1.6057.29851-1.0856.87376-2.336 1.54118-3.553.62156-1.1334 1.35187-2.2891 2.07312-3.3185l2.71447 2.617c.39761.3834 1.03061.3718 1.41401-.0258.3833-.3976.3717-1.0306-.0259-1.414L8.17235 8.74115c.3837-.47727.7425-.88572 1.05449-1.19772 1.22356-1.22358 2.57606-1.84689 3.94556-1.84108.6464.00273 1.2596.1455 1.8277.39684V4c0-.55228.4477-1 1-1Z"/>
  </symbol>
  <symbol id="champagne-glasses" fill="none" viewBox="0 0 24 24">
    <path fill="currentColor" fill-rule="evenodd" d="M17.6647 3.69423c-.0811-.25251-.2591-.46247-.495-.58368-.2359-.12121-.5103-.14375-.7628-.06265l-5.7127 1.83462c-.1263.04057-.2389.10389-.3349.18397C10.2478 5.02354 10.1266 5 10 5H4c-.55228 0-1 .44772-1 1v6c0 1.8638 1.27477 3.4299 3 3.874V19H5c-.55228 0-1 .4477-1 1s.44772 1 1 1h4c.55228 0 1-.4477 1-1s-.44772-1-1-1H8v-3.126c1.72523-.4441 3-2.0102 3-3.874V9.10505l.8825 2.74795c.5699 1.7746 2.2625 2.8759 4.0409 2.7712l.9558 2.9763-.9521.3057c-.5258.1689-.8152.7321-.6463 1.2579.1689.5258.732.8152 1.2579.6463l3.8084-1.2231c.5258-.1688.8152-.732.6463-1.2578-.1688-.5259-.732-.8152-1.2578-.6464l-.9522.3058-.9558-2.9763c1.5068-.9503 2.2417-2.8312 1.6718-4.60574l-1.8347-5.71263ZM9 7v1H5V7h4Zm7.0663-1.74212.3058.9521-3.8085 1.22309-.3057-.95211 3.8084-1.22308Z" clip-rule="evenodd"/>
  </symbol>
  <symbol id="cheese" fill="none" viewBox="0 0 24 24">
    <path fill="currentColor" d="M15 3c-.1786 0-.3148.04901-.3477.06086l-.0019.00067c-.0536.01922-.0966.03945-.1218.05185-.0518.02551-.0982.05265-.1303.07208-.0678.04099-.1431.0911-.2151.14063-.1473.10137-.3263.23197-.4968.36132-.1692.12838-.3437.266-.4787.38123-.0636.05432-.1392.12126-.2038.18822-.0266.02752-.088.09218-.1456.17829-.0249.03726-.0901.13788-.133.281-.0354.11767-.1317.53104.1752.91753.2792.35149.2765.58359.2431.72327-.0431.18039-.193.41708-.5073.64046-.4465.31726-1.0772.21057-1.3944-.2359-.1546-.21753-.3897-.36425-.653-.40752-.2634-.04326-.5331.02052-.74913.17715L3.67565 11H20.9672c-.2133-3.17401-1.4351-5.16089-2.7614-6.3653-.7159-.65012-1.4371-1.04951-1.9922-1.28791-.2778-.11933-.5168-.19955-.6971-.25131-.0899-.02583-.1674-.04518-.2298-.05899-.0308-.0068-.0614-.01302-.0904-.01815-.0141-.00248-.0326-.00556-.0533-.00839C15.1364 3.00899 15.0741 3 15 3Z"/>
    <path fill="currentColor" fill-rule="evenodd" d="M21 13H3v7c0 .5523.44772 1 1 1h16c.5523 0 1-.4477 1-1v-7ZM7 15c0-.5523.44772-1 1-1h.01c.55228 0 1 .4477 1 1s-.44772 1-1 1H8c-.55228 0-1-.4477-1-1Zm8 0c0-.5523.4477-1 1-1h.01c.5523 0 1 .4477 1 1s-.4477 1-1 1H16c-.5523 0-1-.4477-1-1Zm-4 2c0-.5523.4477-1 1-1h.01c.5523 0 1 .4477 1 1s-.4477 1-1 1H12c-.5523 0-1-.4477-1-1Z" clip-rule="evenodd"/>
  </symbol>
  <symbol id="cloud-meatball" fill="none" viewBox="0 0 24 24">
    <path fill="currentColor" d="M5.99997 17c-.55229 0-1 .4477-1 1s.44771 1 1 1h.01c.55228 0 1-.4477 1-1s-.44772-1-1-1h-.01ZM18 17c-.5523 0-1 .4477-1 1s.4477 1 1 1h.01c.5523 0 1-.4477 1-1s-.4477-1-1-1H18Z"/>
    <path fill="currentColor" fill-rule="evenodd" d="M12 13c.5523 0 1 .4477 1 1v.5858l.4142-.4142c.3905-.3905 1.0237-.3905 1.4142 0 .3905.3905.3905 1.0237 0 1.4142L14.4141 16l.5859.0001c.5523 0 1 .4477 1 1s-.4478 1-1.0001 1L14.4141 18l.4143.4143c.3905.3906.3905 1.0237 0 1.4142-.3906.3906-1.0237.3905-1.4143 0L13 19.4143v.5858c0 .5522-.4477 1-1 1s-1-.4478-1-1v-.5859l-.4143.4142c-.3905.3906-1.02365.3906-1.41417 0-.39053-.3905-.39053-1.0236 0-1.4142L9.58571 18l-.58572.0001c-.55228 0-1.00001-.4477-1.00002-1-.00001-.5523.44769-1 .99998-1L9.58571 16l-.41416-.4141c-.39054-.3905-.39056-1.0237-.00005-1.4142.39052-.3905 1.0237-.3906 1.4142 0l.4143.4142V14c0-.5523.4477-1 1-1Z" clip-rule="evenodd"/>
    <path fill="currentColor" d="M9.21869 3.96216c1.18841-.77809 2.61801-1.10041 4.02531-.90756 1.4073.19285 2.6974.88787 3.6327 1.95696.8431.96375 1.3466 2.17293 1.4406 3.44244.6029.16797 1.1584.48908 1.6088.93946C20.6137 10.0811 21 11.0137 21 11.9862c0 .9449-.3677 1.9573-1.0739 2.6636-.6417.6416-1.4561.9281-2.2516.9899-.1439-.2824-.3312-.539-.5532-.761 0-.7677-.2929-1.5355-.8787-2.1213-.5858-.5858-1.3535-.8787-2.1213-.8787-.5429-.5429-1.2929-.8786-2.1213-.8786-.8285 0-1.5785.3358-2.12139.8787-.76778 0-1.53555.2929-2.12133.8788-.58574.5857-.87861 1.3535-.87862 2.1212-.18576.1858-.34727.3958-.47938.6249-.77455-.2033-1.48895-.6091-2.06499-1.1851C3.47996 13.4642 3 12.3055 3 11.0973c0-1.1581.38455-2.34287 1.27157-3.22989.74279-.74279 1.74607-1.18271 2.75928-1.2962.45424-1.06098 1.21293-1.97073 2.18784-2.60905Z"/>
  </symbol>
  <symbol id="cookie" fill="none" viewBox="0 0 24 24">
    <path fill="currentColor" fill-rule="evenodd" d="M12.0212 2.37541c.2069.29981.2344.6884.0718 1.01435-.0835.16728-.1286.49646-.0866.81839.0345.26443.1525.51845.3564.72235.3798.37974.9446.46622 1.4086.25366.5022-.23 1.0957-.0094 1.3256.49272.0358.07797.0606.15815.0752.23883.0722.36885-.0676.76315-.391.99974-.067.04901-.1315.10409-.1929.16547-.6377.63769-.6377 1.67158 0 2.30927.6377.63771 1.6716.63771 2.3093 0 .1104-.11046.2008-.23148.2721-.35918.2649-.47416.8598-.65023 1.3401-.3966.4802.25363.6702.84422.428 1.33031-.1068.21428-.1459.45618-.1151.69208.033.2531.146.4962.3412.6915.265.265.622.3806.9709.3452.0473-.0048.095-.0062.1425-.0043.111.0047.5252-.0071.7534-.0158.2865-.0108.5639.1018.7617.3093.1978.2075.2971.4899.2726.7756-.1945 2.2647-1.1592 4.478-2.8921 6.2109-3.9053 3.9053-10.23692 3.9053-14.14216 0-3.90524-3.9052-3.90524-10.23686 0-14.1421C6.727 3.13084 8.88362 2.17056 11.0983 1.94837c.3624-.03636.716.12723.9229.42704ZM8.65695 8.41498c-.55229 0-1 .44771-1 1 0 .55228.44771 1.00002 1 1.00002h.01c.55228 0 1-.44774 1-1.00002 0-.55229-.44772-1-1-1h-.01ZM7.27106 12c-.55229 0-1 .4478-1 1 0 .5523.44771 1 1 1h.01c.55228 0 1-.4477 1-1 0-.5522-.44772-1-1-1h-.01Zm7.68744 1.9157c-.5523 0-1 .4477-1 1s.4477 1 1 1h.01c.5523 0 1-.4477 1-1s-.4477-1-1-1h-.01ZM11 16c-.5523 0-1.00004.4478-1.00004 1 0 .5523.44774 1 1.00004 1h.01c.5523 0 1-.4477 1-1 0-.5522-.4477-1-1-1H11Z" clip-rule="evenodd"/>
  </symbol>
  <symbol id="Cube" fill="none" viewBox="0 0 24 24">
    <path fill="currentColor" d="M9.98189 4.50602c1.24881-.67469 2.78741-.67469 4.03621 0l3.9638 2.14148c.3634.19632.6862.44109.9612.72273l-6.9288 3.60207L5.20654 7.225c.2403-.22108.51215-.41573.81157-.5775l3.96378-2.14148ZM4.16678 8.84364C4.05757 9.18783 4 9.5493 4 9.91844v4.28296c0 1.3494.7693 2.5963 2.01811 3.2709l3.96378 2.1415c.32051.1732.66011.3019 1.00901.3862v-7.4L4.16678 8.84364ZM13.009 20c.3489-.0843.6886-.213 1.0091-.3862l3.9638-2.1415C19.2307 16.7977 20 15.5508 20 14.2014V9.91844c0-.30001-.038-.59496-.1109-.87967L13.009 12.6155V20Z"/>
  </symbol>
  <symbol id="cubes-stacked" fill="none" viewBox="0 0 24 24">
    <path fill="currentColor" d="M11.5039 3.13176c.3074-.17568.6848-.17568.9923 0l3.5554 2.0317L12 7.42604 7.94841 5.16346l3.55549-2.0317Zm-4.50388 3.7928L7 10.2768l-3.15822 1.8047 4.14118 2.205L11 12.5625V9.15832L7.00002 6.92456ZM3 13.8991v3.8152c0 .3588.19229.6902.50386.8682l3.49615 1.9978V16.029L3 13.8991Zm6.00001 6.6812L12 18.866l3 1.7143v-4.5714l-3-1.7143-2.99999 1.7142v4.5715Zm7.99999 0 3.4961-1.9978c.3116-.178.5039-.5094.5039-.8682v-3.8152l-4 2.1299v4.5513Zm3.1582-8.4988L17 10.2768V6.92457l-4 2.23375v3.40418l3.0171 1.724 4.1411-2.205Z"/>
  </symbol>
  <symbol id="droplet-bottle-alt" fill="none" viewBox="0 0 24 24">
    <path fill="currentColor" d="M12 11c-.2299 0-.4004.0774-.4693.1116-.0839.0417-.1491.0873-.1903.1184-.083.0626-.1535.1309-.2048.1837-.1071.1103-.2209.2476-.3317.3923-.2255.2944-.4919.6891-.7477 1.1281-.2554.4383-.51194.9409-.70723 1.4498-.19007.4953-.34899 1.0647-.34899 1.6161 0 1.6569 1.34312 3 3.00002 3 1.6568 0 3-1.3431 3-3 0-.5514-.1589-1.1208-.349-1.6161-.1953-.5089-.4518-1.0115-.7073-1.4498-.2557-.439-.5222-.8337-.7476-1.1281-.1109-.1447-.2246-.282-.3317-.3923-.0513-.0528-.1218-.1211-.2049-.1837-.0411-.0311-.1063-.0767-.1903-.1184C12.4003 11.0774 12.2299 11 12 11Z"/>
    <path fill="currentColor" fill-rule="evenodd" d="M8.99998 2c-.55228 0-1 .44772-1 1v3c0 .55228.44772 1 1 1v1.09419c-.05797.03621-.12962.07946-.21086.12849-.24044.14511-.56485.34091-.86716.55505C7.10458 9.35671 5.99998 10.3674 5.99998 12v7l-.00021.0705c-.00185.4157-.00535 1.2054.44872 1.8544C6.99323 21.7034 7.94156 22 9.14284 22h5.71426c1.2013 0 2.1496-.2966 2.6944-1.0751.454-.649.4505-1.4387.4487-1.8544L18 19v-7c0-1.6326-1.1046-2.64329-1.922-3.22227-.3023-.21414-.6267-.40994-.8672-.55505-.0811-.04899-.1529-.0923-.2108-.12849V7c.5523 0 1-.44772 1-1V3c0-.55228-.4477-1-1-1H8.99998ZM11 8.5V7h2v1.5c0 .53707.3707.86588.4654.94981.1501.13316.3302.25013.4733.33959.1031.06443.2035.12498.3032.18511.2226.13429.4419.26659.6801.43529C15.6046 10.8933 16 11.3826 16 12v7c0 .2478-.0018.4169-.0232.5648-.02.1381-.0499.1934-.0644.214-.007.0101-.0384.0552-.171.1055-.1513.0574-.423.1157-.8843.1157H9.14284c-.46132 0-.73297-.0583-.8843-.1157-.13261-.0503-.16434-.0959-.17136-.106-.01448-.0207-.04404-.0754-.06402-.2135-.0214-.1479-.02318-.317-.02318-.5648v-7c0-.6174.3954-1.1067 1.07802-1.5902.23818-.1687.45741-.301.68008-.43529.09969-.06013.20008-.12068.30312-.18511.1432-.08946.3237-.20679.4738-.33996.0947-.08392.465-.41237.465-.94944Z" clip-rule="evenodd"/>
  </symbol>
  <symbol id="droplet-bottle" fill="none" viewBox="0 0 24 24">
    <path fill="currentColor" d="M12 11c-.2397 0-.4128.0858-.4729.1174-.0773.0408-.1341.0834-.1648.1078-.0624.0495-.1092.098-.1334.1237-.0529.0565-.1019.1178-.1405.168-.0816.106-.1784.2437-.2809.3972-.2074.3103-.467.7284-.7219 1.1808-.25372.4504-.51297.9528-.71184 1.4282C9.19074 14.9607 9 15.5086 9 16c0 1.6569 1.3431 3 3 3s3-1.3431 3-3c0-.4914-.1907-1.0393-.3738-1.4769-.1988-.4754-.4581-.9778-.7118-1.4282-.2549-.4524-.5145-.8705-.7219-1.1808-.1025-.1535-.1993-.2912-.2809-.3972-.0386-.0502-.0876-.1115-.1405-.168-.0242-.0257-.071-.0742-.1334-.1237-.0307-.0244-.0875-.067-.1648-.1078C12.4128 11.0858 12.2397 11 12 11Z"/>
    <path fill="currentColor" fill-rule="evenodd" d="M10 2c-.55228 0-1 .44772-1 1v2c-.55228 0-1 .44772-1 1s.44772 1 1 1v1.51594C7.03885 10.1474 6 12.2926 6 14.5V19c0 1.6568 1.34314 3 3 3h6c1.6569 0 3-1.3431 3-3v-4.5c0-2.2074-1.0389-4.3526-3-5.98406V7c.5523 0 1-.44772 1-1s-.4477-1-1-1V3c0-.55228-.4477-1-1-1h-4Zm1 7V7h2v2c0 .31476.1482.61115.4.8 1.7804 1.3353 2.6 3.0529 2.6 4.7V19c0 .5523-.4477 1-1 1H9c-.55228 0-1-.4477-1-1v-4.5c0-1.6471.81961-3.3647 2.6-4.7.2518-.18885.4-.48524.4-.8Z" clip-rule="evenodd"/>
  </symbol>
  <symbol id="drumstick-bite" fill="none" viewBox="0 0 24 24">
    <path fill="currentColor" fill-rule="evenodd" d="M10.6223 3.90741c-1.20712-1.20714-3.09489-1.23486-4.30929-.02046-.41495.41495-.71699.96417-.84122 1.55432-.59015.12423-1.13937.42627-1.55432.84122-1.2144 1.2144-1.18669 3.10218.02046 4.30931.96862.9686 2.37548 1.1779 3.52103.5953l1.47896 1.3553c-.05911.3509-.08406.7078-.07998 1.0623.01453 1.26.39197 2.5758 1.00914 3.7262.13522.252.37182.4341.65002.5002.2782.0661.5714.0099.8055-.1543.5376-.3772.9988-.4969 1.3707-.4979.3764-.0009.7303.1199 1.0473.3317.5919.3956.8671 1.1024.4524 2.0481-.1383.3154-.1045.6799.0894.9646.1939.2847.5207.4495.8649.4362 1.437-.0553 2.7584-.8034 3.8989-1.9439 1.1842-1.1842 1.7637-2.5978 1.6758-4.071-.0866-1.4527-.8131-2.8268-1.9736-3.9873-1.1796-1.17955-2.7171-1.95508-4.2554-2.16837-.5785-.08021-1.1679-.08125-1.7413.01127l-1.5065-1.42739c.548-1.13519.3301-2.5124-.6229-3.4654Zm.0919 5.71744L9.2479 8.23554c-.19592-.18563-.30849-.44256-.31213-.71243-.00363-.26987.10196-.52975.29281-.72059.41457-.41457.42454-1.03588-.02046-1.48089-.44501-.44501-1.06633-.43503-1.4809-.02046-.26525.26524-.35944.64193-.30022.89134.08017.33765-.02045.69273-.26584.93813-.2454.2454-.60048.34602-.93813.26584-.24941-.05922-.6261.03498-.89135.30022-.41457.41457-.42455 1.03589.02046 1.4809.44501.44501 1.06633.43503 1.4809.02046.37853-.37854.98803-.39183 1.38271-.03016l1.5307 1.4027c.11824-.1603.24972-.314.39525-.4595.1813-.1813.3728-.34306.5725-.48625Z" clip-rule="evenodd"/>
  </symbol>
  <symbol id="egg" fill="none" viewBox="0 0 24 24">
    <path fill="currentColor" fill-rule="evenodd" d="M9.0276 4.36983C9.84851 3.59377 10.8715 3 12.05 3c1.1786 0 2.2016.59377 3.0225 1.36983.8255.78038 1.5331 1.82292 2.1072 2.92578C18.3188 9.48385 19.05 12.1425 19.05 14c0 3.866-3.134 7-7 7-3.86594 0-6.99995-3.134-6.99995-7 0-1.8575.73123-4.51615 1.87035-6.70439.57411-1.10286 1.28173-2.1454 2.1072-2.92578Zm2.8023 5.91657c.3082-.45832.1865-1.07968-.2718-1.38786-.4583-.30818-1.0797-.18648-1.3879.27182-.37473.55732-.66096 1.25684-.85365 1.91184-.19234.6537-.31649 1.3484-.31649 1.9178 0 .5523.44772 1 1.00004 1 .5522 0 1-.4477 1-1 0-.3189.0769-.8156.2351-1.3533.1579-.5365.3717-1.0286.5947-1.3603Z" clip-rule="evenodd"/>
  </symbol>
  <symbol id="fish-alt" fill="none" viewBox="0 0 24 24">
    <path fill="currentColor" fill-rule="evenodd" d="M9.70707 4.29289c-.39052-.39052-1.02369-.39052-1.41421.00001-.39052.39052-.39052 1.02369 0 1.41421l1.79464 1.79461c-.89352.26818-1.7041.62743-2.39859 1.03679-.75153.44298-1.39556.9614-1.86395 1.51679-.05394.0639-.10674.1298-.1579.1975L3.70711 8.29288c-.39053-.39052-1.02369-.39052-1.41422 0-.39052.39053-.39052 1.02369 0 1.41422L4.58579 12l-2.2929 2.2929c-.39052.3905-.39052 1.0237 0 1.4142.39053.3905 1.02369.3905 1.41422 0l1.95995-1.96c.05116.0677.10396.1336.1579.1976.46839.5554 1.11242 1.0738 1.86395 1.5168.05288.0311.10644.062.16065.0926l-.94493 1.2397-.00466.0062C5.91107 18.1185 6.85198 20 8.5 20h1.49997c.57803 0 1.04673-.2818 1.35903-.5316.3262-.261.6028-.5842.816-.8684.2175-.29.395-.5746.5169-.7836.0616-.1056.1104-.1944.1446-.2582.0172-.032.0307-.0579.0404-.0767l.0117-.0228.0037-.0072.0021-.0043c.0736-.1472.1447-.287.1954-.4475.1381.0059.1873-.001.327 0-.1119-.1811-.2137-.3588-.2975-.5251-.8831-1.5257-1.4054-2.8736-1.4079-4.3386-.0025-1.4614.5132-2.89857 1.4025-4.59935.0088-.01699.0182-.03371.028-.05015.0924-.15428.1875-.31964.2809-.48626-.3483.0023-.6193.013-.9563.04469-.0768-.07681-.1814-.17406-.2594-.25204l-2.50003-2.5ZM11.007 16.7345c-.4422-.095-.8687-.2129-1.27603-.3495L8.5 18h1.46745c.01805-.0079.06485-.0315.14225-.0934.1425-.114.3035-.2908.4653-.5066.1575-.21.2925-.4254.3893-.5914.0154-.0263.0296-.0511.0427-.0741Zm8.1536-1.6154c-.94.6583-2.1207 1.2825-3.5044 1.6203-.2955-.4048-.5956-.8506-.7597-1.1826-.0099-.02-.0205-.0397-.0317-.059-.8171-1.4068-1.1517-2.4006-1.1534-3.3652-.0016-.9721.3341-2.0568 1.1618-3.64445.2416-.40531.4939-.8667.696-1.24835 1.4212.33251 2.6317.96898 3.5914 1.64108 1.3918.97475 2.3082 2.05962 2.6505 2.53422.2519.3492.2519.8205 0 1.1698-.3423.4746-1.2587 1.5594-2.6505 2.5342Zm-4.1739-3.4914c0-.5523.4477-1 1-1h.01c.5523 0 1 .4477 1 1s-.4477 1-1 1h-.01c-.5523 0-1-.4477-1-1Z" clip-rule="evenodd"/>
  </symbol>
  <symbol id="fish" fill="none" viewBox="0 0 24 24">
    <path fill="currentColor" d="M13.4228 7.00024c-2.2266.01465-4.24648.66154-5.73389 1.53827-.75153.44298-1.39556.9614-1.86395 1.51679-.05394.0639-.10674.1298-.1579.1975L3.70711 8.29288c-.39053-.39052-1.02369-.39052-1.41422 0-.39052.39053-.39052 1.02369 0 1.41422L4.58579 12l-2.2929 2.2929c-.39052.3905-.39052 1.0237 0 1.4142.39053.3905 1.02369.3905 1.41422 0l1.95995-1.96c.05116.0677.10396.1336.1579.1976.46839.5554 1.11242 1.0738 1.86395 1.5168 1.48608.8759 3.50369 1.5224 5.72789 1.5382-.1119-.1811-.2137-.3588-.2975-.5251-.8831-1.5257-1.4054-2.8736-1.4079-4.3386-.0025-1.4614.5132-2.89857 1.4025-4.59935.0088-.01699.0182-.03371.028-.05015.0924-.15428.1875-.31964.2809-.48626Z"/>
    <path fill="currentColor" fill-rule="evenodd" d="M15.6562 16.7394c1.3837-.3378 2.5644-.962 3.5044-1.6203 1.3918-.9748 2.3082-2.0596 2.6505-2.5342.2519-.3493.2519-.8206 0-1.1698-.3423-.4746-1.2587-1.55947-2.6505-2.53422-.9597-.6721-2.1702-1.30857-3.5914-1.64108-.2021.38166-.4544.84304-.696 1.24836-.8277 1.58764-1.1634 2.67234-1.1618 3.64444.0017.9646.3363 1.9584 1.1534 3.3652.0112.0193.0218.039.0317.059.1641.332.4642.7778.7597 1.1826Zm.3305-6.1117c-.5523 0-1 .4477-1 1s.4477 1 1 1h.01c.5523 0 1-.4477 1-1s-.4477-1-1-1h-.01Z" clip-rule="evenodd"/>
  </symbol>
  <symbol id="flask" fill="none" viewBox="0 0 24 24">
    <path fill="currentColor" fill-rule="evenodd" d="M8.05005 2c-.55229 0-1 .44772-1 1s.44771 1 1 1h1v3.31532c-2.69858 1.16334-5 3.63038-5 6.88468 0 4.3349 3.60924 7.8 7.99995 7.8 4.3908 0 8-3.4651 8-7.8 0-3.2543-2.3014-5.72134-5-6.88468V4h1c.5523 0 1-.44772 1-1s-.4477-1-1-1H8.05005ZM11.05 8V4h2v4c0 .42712.2713.8071.6753.9458 2.3906.82083 4.2201 2.7442 4.3204 5.0542H6.05438c.10031-2.31 1.92977-4.23337 4.32042-5.0542.404-.1387.6752-.51868.6752-.9458Z" clip-rule="evenodd"/>
  </symbol>
  <symbol id="glass-water-droplet" fill="none" viewBox="0 0 24 24">
    <path fill="currentColor" d="M12 6c-.268 0-.4602.10529-.5254.14309-.0858.0497-.1506.10275-.1893.13652-.0789.06896-.1458.1435-.1939.20022-.1011.11923-.2104.26866-.3176.42564-.2184.31962-.4786.74423-.7284 1.19853-.24933.4535-.49952.9569-.69038 1.43273C9.17832 9.97724 9 10.5183 9 11c0 1.6569 1.3431 3 3 3s3-1.3431 3-3c0-.4817-.1783-1.02276-.355-1.46327-.1909-.47583-.4411-.97923-.6904-1.43273-.2498-.4543-.5099-.87891-.7284-1.19853-.1072-.15698-.2165-.30641-.3176-.42564-.0481-.05672-.1149-.13126-.1939-.20022-.0387-.03377-.1035-.08682-.1892-.13652C12.4602 6.10529 12.268 6 12 6Z"/>
    <path fill="currentColor" fill-rule="evenodd" d="M6 2c-.27677 0-.54116.11471-.73024.31682-.18909.20211-.28595.47354-.26754.7497L6.07775 19.1996C6.18281 20.7755 7.49172 22 9.07111 22h5.85779c1.5794 0 2.8883-1.2246 2.9934-2.8004l1.0755-16.13308c.0184-.27616-.0785-.54759-.2676-.7497C18.5412 2.11471 18.2768 2 18 2H6Zm1.86889 14-.8-12h9.86221l-.8 12H7.86889Z" clip-rule="evenodd"/>
  </symbol>
  <symbol id="glass-water" fill="none" viewBox="0 0 24 24">
    <path fill="currentColor" fill-rule="evenodd" d="M6 2c-.27677 0-.54116.11471-.73024.31682-.18909.20211-.28595.47354-.26754.7497L6.07775 19.1996C6.18281 20.7755 7.49172 22 9.07111 22h5.85779c1.5794 0 2.8883-1.2246 2.9934-2.8004l1.0755-16.13308c.0184-.27616-.0785-.54759-.2676-.7497C18.5412 2.11471 18.2768 2 18 2H6Zm1.2124 4.15264L7.06889 4h9.86221l-.1651 2.47714-.0179.0163c-.133.12056-.3226.28077-.5474.43924-.4853.34209-.9823.56732-1.3743.56732-.2473 0-.3394-.06433-.6919-.4371l-.0272-.02876C13.7466 6.65192 13.1314 6 11.9894 6c-1.1421 0-1.7573.65192-2.11794 1.03414l-.02716.02876c-.35252.37277-.44468.4371-.69195.4371-.24728 0-.33944-.06433-.69196-.4371l-.02716-.02876c-.25189-.26693-.62791-.66541-1.22083-.8815Z" clip-rule="evenodd"/>
  </symbol>
  <symbol id="hotdog" fill="none" viewBox="0 0 24 24">
    <path fill="currentColor" fill-rule="evenodd" d="M10 2.53528c.5883-.34034 1.2714-.53513 2-.53513.7286 0 1.4117.19479 2 .53513V21.465c-.5883.3404-1.2714.5352-2 .5352-.7286 0-1.4117-.1948-2-.5352V2.53528Zm3.2071 5.17192c.3905-.39053.3905-1.02369 0-1.41422-.3905-.39052-1.0237-.39052-1.4142 0l-1 1c-.3905.39053-.3905 1.02369 0 1.41422.3905.39052 1.0237.39052 1.4142 0l1-1Zm0 4.5c.3905-.3905.3905-1.0237 0-1.4142-.3905-.3905-1.0237-.3905-1.4142 0l-1 1c-.3905.3905-.3905 1.0237 0 1.4142.3905.3905 1.0237.3905 1.4142 0l1-1Zm0 4.5c.3905-.3905.3905-1.0237 0-1.4142-.3905-.3905-1.0237-.3905-1.4142 0l-1 1c-.3905.3905-.3905 1.0237 0 1.4142.3905.3905 1.0237.3905 1.4142 0l1-1Z" clip-rule="evenodd"/>
    <path fill="currentColor" d="M8 3.02762c-2.24998.24872-4 2.15626-4 4.47253v9.00005c0 2.3162 1.75002 4.2238 4 4.4725V3.02762Zm8 17.94508c2.25-.2487 4-2.1563 4-4.4725V7.50015c0-2.31627-1.75-4.22381-4-4.47253V20.9727Z"/>
  </symbol>
  <symbol id="icecream-alt" fill="none" viewBox="0 0 24 24">
    <path fill="currentColor" d="M16 12H8l4 9 4-9Z"/>
    <path fill="currentColor" d="M14 6c0 .55228.4477 1 1 1s1-.44772 1-1h-2ZM9.78743 9.33273c.45987.30579 1.08057.18085 1.38637-.27906.3058-.4599.1809-1.08062-.279-1.3864L9.78743 9.33273ZM15.3893 11c-.5523 0-1 .4477-1 1s.4477 1 1 1v-2Zm-2.2126-5.33273c-.4599.30578-.5848.9265-.2791 1.3864.3058.45991.9265.58485 1.3865.27906l-1.1074-1.66546ZM8 12v-1c-.33851 0-.65403.1713-.83849.4551-.18446.2838-.2128.6417-.07532.951L8 12Zm8 0 .9138.4061c.1375-.3093.1091-.6672-.0753-.951C16.654 11.1713 16.3385 11 16 11v1Zm-4 9-.9138.4061c.1605.3612.5186.5939.9138.5939s.7533-.2327.9138-.5939L12 21ZM10 6c0-1.10457.8954-2 2-2V2C9.79086 2 8 3.79086 8 6h2Zm2-2c1.1046 0 2 .89543 2 2h2c0-2.20914-1.7909-4-4-4v2Zm-1.1052 3.66727C10.3533 7.30728 10 6.69469 10 6H8c0 1.39228.71216 2.6178 1.78743 3.33273l1.10737-1.66546ZM9 11c-1.10457 0-2-.8954-2-2H5c0 2.2091 1.79086 4 4 4v-2ZM7 9c0-1.10457.89543-2 2-2V5C6.79086 5 5 6.79086 5 9h2Zm10.3893 0c0 1.1046-.8955 2-2 2v2c2.2091 0 4-1.7909 4-4h-2Zm-2-2c1.1045 0 2 .89543 2 2h2c0-2.20914-1.7909-4-4-4v2Zm-1.1052.33273C14.6002 7.1225 14.9789 7 15.3893 7V5c-.8164 0-1.5785.24565-2.2126.66727l1.1074 1.66546ZM8 13h8v-2H8v2Zm7.0862-1.4061-4 9 1.8276.8122 4-9-1.8276-.8122Zm-2.1724 9-3.99999-9-1.82762.8122 4.00001 9 1.8276-.8122Z"/>
  </symbol>
  <symbol id="icecream" fill="none" viewBox="0 0 24 24">
    <path fill="currentColor" d="M6.08296 7C6.55904 4.16229 9.027 2 12 2c3.3137 0 6 2.68629 6 6h-2.5C14.1193 8 13 9.11929 13 10.5c0 .2761-.2239.5-.5.5s-.5-.2239-.5-.5V10c0-1.65685-1.3431-3-3-3H6.08296Z"/>
    <path fill="currentColor" d="M6 9v5c0 1.1046.89543 2 2 2h3v5c0 .5523.4477 1 1 1s1-.4477 1-1v-5h3c1.1046 0 2-.8954 2-2v-4h-2.5c-.2761 0-.5.2239-.5.5 0 1.3807-1.1193 2.5-2.5 2.5S10 11.8807 10 10.5V10c0-.55228-.44772-1-1-1H6Z"/>
  </symbol>
  <symbol id="jar-wheat" fill="none" viewBox="0 0 24 24">
    <path fill="currentColor" fill-rule="evenodd" d="M8 2c-.55228 0-1 .44772-1 1v2H6c-.55228 0-1 .44772-1 1 0 .44954.29662.82979.70483.95572C4.92812 7.93035 4 9.40184 4 11v8.002C4 21.2121 5.79175 23 8 23h8c2.2083 0 4-1.7879 4-3.998V11c0-1.59816-.9281-3.06965-1.7048-4.04428C18.7034 6.8298 19 6.44954 19 6c0-.55228-.4477-1-1-1h-1V3c0-.55228-.4477-1-1-1H8Zm5 7c0-.55228-.4477-1-1-1-.5522 0-1 .44772-1 1v1.703c-.194-.104-.3946-.1973-.5475-.2654-.1648-.0734-.3276-.1409-.45886-.1898-.06227-.0233-.13576-.0493-.20586-.0692-.02974-.0085-.09377-.0261-.17034-.037-.03336-.0048-.11836-.0159-.22524-.0081-.05401.004-.15081.0151-.26455.0554-.111.0393-.30275.1296-.45957.3326-.14595.1889-.18661.3793-.20009.477-.01449.1049-.0093.1904-.00456.2385.00943.0956.03059.1697.03992.2007.02096.0699.04596.1276.05898.1568.02991.0671.06629.1367.09992.1979.07011.1275.16492.2844.27078.4437.10518.1582.23212.3352.36751.4957.11722.139.30928.3498.55094.4923.21752.1282.59062.3174.90382.4637.0816.0381.1647.0759.2447.1108v.8763c-.194-.104-.3946-.1973-.5475-.2654-.1648-.0734-.3276-.1408-.45886-.1898-.06227-.0233-.13576-.0493-.20586-.0692-.02974-.0085-.09377-.0261-.17034-.037-.03336-.0047-.11836-.0159-.22524-.0081-.05401.004-.15081.0151-.26455.0554-.111.0393-.30275.1296-.45957.3326-.14595.189-.18661.3793-.20009.477-.01449.105-.0093.1904-.00456.2386.00943.0955.03059.1696.03992.2006.02096.0699.04596.1276.05898.1568.02991.0671.06629.1368.09992.1979.07011.1275.16492.2844.27078.4437.10518.1582.23212.3352.36751.4957.11722.139.30928.3498.55094.4923.21752.1282.59062.3174.90382.4637.0816.0381.1647.0759.2447.1109V19c0 .5523.4478 1 1 1 .5523 0 1-.4477 1-1v-1.2295c.0801-.0349.1632-.0727.2447-.1108.3132-.1463.6864-.3355.9039-.4637.2416-.1425.4337-.3533.5509-.4923.1354-.1605.2623-.3375.3675-.4957.1059-.1593.2007-.3162.2708-.4437.0336-.0611.07-.1308.0999-.1979.013-.0292.038-.0869.059-.1568.0093-.031.0305-.1051.0399-.2006.0048-.0482.0099-.1336-.0045-.2386-.0135-.0977-.0542-.288-.2001-.477-.1569-.203-.3486-.2933-.4596-.3326-.1137-.0403-.2105-.0514-.2645-.0554-.1069-.0078-.1919.0034-.2253.0081-.0766.0109-.1406.0285-.1703.037-.0701.0199-.1436.0459-.2059.0692-.1312.049-.294.1164-.4588.1898-.1529.0681-.3536.1614-.5476.2654v-.8763c.0801-.0349.1632-.0727.2447-.1108.3132-.1463.6864-.3355.9039-.4637.2416-.1425.4337-.3533.5509-.4923.1354-.1605.2623-.3375.3675-.4957.1059-.1593.2007-.3162.2708-.4437.0336-.0612.07-.1308.0999-.1979.013-.0292.038-.0869.059-.1568.0093-.031.0305-.1051.0399-.2007.0048-.0481.0099-.1336-.0045-.2385-.0135-.0977-.0542-.2881-.2001-.477-.1569-.203-.3486-.2933-.4596-.3326-.1137-.0403-.2105-.0514-.2645-.0554-.1069-.0078-.1919.0033-.2253.0081-.0766.0109-.1406.0285-.1703.037-.0701.0199-.1436.0459-.2059.0692-.1312.0489-.294.1164-.4588.1898-.1529.0681-.3536.1613-.5476.2654V9Z" clip-rule="evenodd"/>
  </symbol>
  <symbol id="jar" fill="none" viewBox="0 0 24 24">
    <path fill="currentColor" d="M7 3c0-.55228.44772-1 1-1h8c.5523 0 1 .44772 1 1v2h1c.5523 0 1 .44772 1 1 0 .44954-.2966.8298-.7048.95572.6113.76712 1.3165 1.84205 1.589 3.04428H11c-.5523 0-1 .4477-1 1v7c0 .5523.4477 1 1 1h9v.002C20 21.2121 18.2083 23 16 23H8c-2.20825 0-4-1.7879-4-3.998V11c0-1.59816.92812-3.06965 1.70483-4.04428C5.29662 6.82979 5 6.44954 5 6c0-.55228.44772-1 1-1h1V3Z"/>
    <path fill="currentColor" d="M20 17v-5h-8v5h8Z"/>
  </symbol>
  <symbol id="lemon" fill="none" viewBox="0 0 24 24">
    <path fill="currentColor" fill-rule="evenodd" d="M14.2357 3.27869c1.8195-.86945 3.9007.38069 4.0645 2.36516l.0975 1.18113c.0076.09216.0292.1823.0638.26716l.4506 1.10484c2.1046 5.16042-1.1766 10.97242-6.6746 11.70842l-1.1662.1561s-.0119.002-.0374.0087c-.0288.0074-.0633.0177-.1013.0301-.0764.0249-.1452.0514-.1755.0633.0117-.0046.007-.0024-.0213.0108-.021.0098-.0549.0257-.1048.0494-.0942.0447-.2147.1024-.3364.1609-.2429.1168-.48538.2343-.52094.2515l-.01715.0082c-1.81776.8622-3.89304-.387-4.05675-2.3686-.00127-.0155-.08435-1.0237-.09627-1.1666-.0008-.0054-.0021-.0137-.00399-.0249-.00463-.0272-.01145-.0632-.01997-.1022-.00858-.0394-.01778-.0769-.02671-.1085-.00811-.0288-.01333-.0433-.0143-.046l-.45069-1.1051C2.9832 10.562 6.26445 4.75002 11.7625 4.01408l.066-.00884h.0667c-.0154 0-.0147-.00007.0069-.00241.0242-.00264.0748-.00813.1587-.01959.1294-.01768.2935-.04317.4638-.07293.1709-.02985.3404-.06263.4824-.09437.0709-.01587.1301-.03039.1764-.043.0198-.00541.0347-.00976.0451-.01294l1.0072-.48131Zm-1.5623 5.94643c.5136-.2031.7653-.78409.5622-1.29767-.2031-.51359-.7841-.76529-1.2977-.56219-1.5354.60719-2.6205 1.4812-3.26395 2.67734-.63096 1.1729-.76717 2.5276-.66985 3.9645.03732.551.51427.9674 1.06529.9301.55102-.0373.96741-.5143.93014-1.0653-.08486-1.2529.05647-2.1767.43577-2.8818.3668-.6819 1.0247-1.28514 2.2381-1.76498Z" clip-rule="evenodd"/>
  </symbol>
  <symbol id="martini-glass-citrus" fill="none" viewBox="0 0 24 24">
    <path fill="currentColor" fill-rule="evenodd" d="M4.00003 7h8.02747c.2487-2.24998 2.1562-4 4.4725-4C18.9853 3 21 5.01472 21 7.5S18.9853 12 16.5 12c-.8801 0-1.702-.2533-2.3956-.6902L11 14.4142V19h2c.5523 0 1 .4477 1 1s-.4477 1-1 1H6.99999c-.55228 0-1-.4477-1-1s.44772-1 1-1h2.00004v-4.5858L3.29292 8.70711c-.286-.286-.37155-.71612-.21677-1.08979C3.23093 7.24364 3.59557 7 4.00003 7ZM16 7h-1.95c.2316-1.14112 1.2405-2 2.45-2C17.8807 5 19 6.11929 19 7.5S17.8807 10 16.5 10c-.3228 0-.6308-.06086-.9138-.17198l1.1209-1.12091c.286-.286.3716-.71612.2168-1.08979C16.7691 7.24364 16.4045 7 16 7Z" clip-rule="evenodd"/>
  </symbol>
  <symbol id="martini-glass-empty" fill="none" viewBox="0 0 24 24">
    <path fill="currentColor" d="M5.00002 3c-.39238 0-.7485.22947-.91064.58678-.16213.35732-.10032.77643.15806 1.07172L11 12.3757V19H9.00002c-.55229 0-1 .4477-1 1s.44771 1 1 1H15c.5523 0 1-.4477 1-1s-.4477-1-1-1h-2v-6.6243l6.7526-7.7172c.2584-.29529.3202-.7144.158-1.07172C19.7485 3.22947 19.3924 3 19 3H5.00002Z"/>
  </symbol>
  <symbol id="martini-glass" fill="none" viewBox="0 0 24 24">
    <path fill="currentColor" fill-rule="evenodd" d="M5.00002 3c-.39238 0-.7485.22947-.91064.58678-.16213.35732-.10032.77643.15806 1.07172L11 12.3757V19H9.00002c-.55229 0-1 .4477-1 1s.44771 1 1 1H15c.5523 0 1-.4477 1-1s-.4477-1-1-1h-2v-6.6243l6.7526-7.71719c.2584-.29529.3202-.71441.1581-1.07172C19.7485 3.22947 19.3924 3 19 3H5.00002ZM15.0462 7H8.95378l-1.75-2h9.59242l-1.75 2Z" clip-rule="evenodd"/>
  </symbol>
  <symbol id="mug-hot" fill="none" viewBox="0 0 24 24">
    <path fill="currentColor" d="M11 3c0-.55228-.4477-1-1-1-.55228 0-1 .44772-1 1 0 .35778-.09872.50986-.19828.61606-.14832.15821-.36754.28572-.7723.50159l-.04537.02415c-.34513.18363-.84839.45139-1.24483.87426C6.27628 5.50986 6 6.15778 6 7c0 .55228.44772 1 1 1 .55229 0 1-.44772 1-1 0-.35778.09873-.50986.19829-.61606.14832-.15821.36754-.28572.7723-.50159l.04536-.02415c.34514-.18363.8484-.45139 1.24485-.87426C10.7237 4.49014 11 3.84222 11 3Zm5 0c0-.55228-.4477-1-1-1s-1 .44772-1 1c0 .35778-.0987.50986-.1983.61606-.1483.15821-.3675.28572-.7723.50159l-.0453.02415c-.3452.18363-.8484.45139-1.2449.87426C11.2763 5.50986 11 6.15778 11 7c0 .55228.4477 1 1 1s1-.44772 1-1c0-.35778.0987-.50986.1983-.61606.1483-.15821.3675-.28572.7723-.50159l.0454-.02415c.3451-.18363.8484-.45139 1.2448-.87426C15.7237 4.49014 16 3.84222 16 3Z"/>
    <path fill="currentColor" fill-rule="evenodd" d="M5 10c-.28252 0-.55187.1195-.74145.329-.18958.2095-.2817.4894-.25358.7705l.6398 6.398C4.90037 20.0535 7.0512 22 9.61995 22h.76015c2.3975 0 4.431-1.6957 4.8992-4H17c1.6569 0 3-1.3431 3-3s-1.3431-3-3-3h-1.095l.09-.9005c.0282-.2811-.064-.561-.2535-.7705-.1896-.2095-.459-.329-.7415-.329H5Zm12 6h-1.495l.2-2H17c.5523 0 1 .4477 1 1s-.4477 1-1 1Z" clip-rule="evenodd"/>
  </symbol>
  <symbol id="mug-saucer" fill="none" viewBox="0 0 24 24">
    <path fill="currentColor" fill-rule="evenodd" d="M5 5c-.28252 0-.55187.11951-.74145.32899-.18958.20949-.2817.48939-.25358.77051l.6398 6.398C4.90037 15.0535 7.0512 17 9.61995 17h.76015c2.3975 0 4.431-1.6957 4.8992-4H17c1.6569 0 3-1.3431 3-3 0-1.65685-1.3431-3-3-3h-1.095l.09-.9005c.0282-.28112-.064-.56102-.2535-.77051C15.5519 5.11951 15.2825 5 15 5H5Zm12 6h-1.495l.2-2H17c.5523 0 1 .44772 1 1 0 .5523-.4477 1-1 1Z" clip-rule="evenodd"/>
    <path fill="currentColor" d="M5 18c-.55228 0-1 .4477-1 1s.44772 1 1 1h11c.5523 0 1-.4477 1-1s-.4477-1-1-1H5Z"/>
  </symbol>
  <symbol id="pepper-hot" fill="currentColor" viewBox="0 0 24 24">
    <path d="M15.1076 3.02722c.7328-.91889 2.119-1.42653 3.3155-.63652 1.0296.67976 1.6636 2.15898.8437 3.43103l-1.1345 1.92424c.49.5379.8177 1.21684 1.0172 2.04053l.0026.01069.0023.01075c.1578.72086.0871 1.45746-.1496 2.19206H14.5v-2c0-.55228-.4477-1-1-1h-2.5594c.5551-.83927 1.1449-1.47688 1.7703-1.91901.9836-.6954 2.0299-.88485 3.0301-.63643.241.05985.4787.12994.7103.21464l1.104-1.87249c.0086-.01459.0176-.02895.0269-.04309.0543-.0822.0714-.17722.0369-.29792-.0378-.13197-.1376-.28012-.298-.38598-.0822-.05428-.1772-.07137-.2979-.03684-.132.03775-.2801.13762-.386.29795-.0855.12955-.2.23741-.3345.31504l-.0812.04692c-.4783.27614-1.0899.11227-1.3661-.36603-.2529-.43808-.1367-.98799.2522-1.28954ZM9.83662 11c-1.33245 2.5771-2.51227 3.9661-3.95291 5.2762l-.00417.0037c-.34799.3058-.73582.6466-1.15874 1.119-.95621.9127-1.14739 2.388-.33504 3.4923.76302 1.0372 2.14652 1.4429 3.29215.9596l.01259-.0054c1.55-.6791 3.9409-1.8247 5.2534-2.8182l.008-.0061.0079-.0062c2.0804-1.6416 3.7352-3.23 4.8173-4.7191.0713-.0982.1408-.1968.2082-.2958H13.5c-.5523 0-1-.4477-1-1v-2H9.83662Z"/>
  </symbol>
  <symbol id="pizza-slice" fill="none" viewBox="0 0 24 24">
    <path fill="currentColor" d="M8.9884 3.21891c3.0076.24714 5.945 1.51873 8.2417 3.8154 2.269 2.26907 3.5376 5.16369 3.806 8.13349.1181 1.3063-.817 2.3512-1.9748 2.5974-.3781.0805-.7426.0766-1.0826.0053-.0526-.9449-.1322-1.9863-.2259-2.7243-.2666-2.0994-1.0578-3.9824-2.805-5.72956-1.7428-1.74283-3.6864-2.60074-5.82006-2.9026-.44367-.06276-1.6162-.18893-2.69208-.26801-.06233-.34562-.05329-.7147.04516-1.0954.2799-1.0824 1.27852-1.93272 2.50758-1.83172Z"/>
    <path fill="currentColor" fill-rule="evenodd" d="M15.7687 15.2981c.0789.6213.1481 1.4924.1977 2.3181L4.6757 20.8741c-.34909.1007-.72534.0042-.98281-.2521-.25747-.2564-.35564-.6322-.25642-.9817L6.69176 8.17203c.89043.07337 1.79027.17058 2.15583.2223 1.73781.24585 3.27301.92348 4.68601 2.33657 1.4054 1.4054 2.0192 2.8665 2.2351 4.5672Zm-4.3548-4.5789c-.0238-.5518-.4904-.97977-1.0422-.95597-.55178.02381-.97978.49037-.95598 1.04217l.00047.0108c.0238.5518.4904.9798 1.04221.956.5517-.0238.9797-.4904.9559-1.0422l-.0004-.0108Zm3.0873 3.0873c-.0238-.5518-.4904-.9798-1.0422-.956-.5518.0238-.9798.4904-.956 1.0422l.0005.0108c.0238.5518.4903.9798 1.0421.956.5518-.0238.9798-.4904.956-1.0421l-.0004-.0109Zm-4.58671 1.4994c-.02377-.5517-.49034-.9798-1.04211-.956-.55177.0238-.9798.4903-.95603 1.0421l.00046.0108c.02377.5518.49034.9798 1.04211.9561.55178-.0238.97981-.4904.95604-1.0421l-.00047-.0109Z" clip-rule="evenodd"/>
  </symbol>
  <symbol id="plate-wheat" fill="none" viewBox="0 0 24 24">
    <path fill="currentColor" d="M5.00001 4.00003c-.55229 0-1 .44772-1 1 0 .55229.44771 1 1 1h1c.55228 0 1-.44771 1-1 0-.55228-.44772-1-1-1h-1Zm5.66889 1.39531c-.2216-.27879-.645-.61839-.94433-.83763-.16499-.12086-.34155-.24116-.49677-.33129-.072-.04181-.17435-.09779-.28569-.14043-.05091-.0195-.15457-.05642-.2853-.07202-.07757-.00926-.47279-.05405-.81565.25599-.28283.25575-.32408.57239-.33352.663-.01301.12501-.0017.22937.00606.28539.0164.11839.04792.22824.0723.30499.05229.16466.12863.35151.20939.5288.15481.33984.39005.78485.63096 1.08802.16417.20658.53268.55501.87921.85987-.34653.30486-.71505.65329-.87921.85988-.24091.30316-.47615.74817-.63096 1.08801-.08076.17728-.1571.36418-.20939.52878-.02438.0768-.0559.1866-.0723.305-.00776.056-.01907.1604-.00606.2854.00944.0906.05069.4072.33352.663.34286.31.73807.2653.81565.256.13073-.0156.23439-.0525.2853-.072.11134-.0427.21369-.0986.28569-.1405.15522-.0901.33178-.2104.49677-.3313.29933-.2192.72273-.5588.94433-.8376.1753-.2206.5103-.74026.773-1.18533.082-.13908.1641-.28267.2378-.41934h1.1367c-.2032.28993-.3943.65733-.5267.94787-.0807.1773-.1571.3642-.2094.5288-.0243.0768-.0559.1866-.0723.305-.0077.056-.019.1604-.006.2854.0094.0906.0507.4072.3335.663.3429.31.7381.2652.8156.256.1308-.0156.2344-.0525.2853-.072.1114-.0427.2137-.0987.2857-.1405.1552-.0901.3318-.2104.4968-.3313.2993-.2192.7228-.5588.9443-.8376.1754-.2207.5103-.74026.773-1.18532.0821-.13908.1641-.28267.2378-.41935h.6424c-.2032.28993-.3943.65733-.5267.94787-.0807.1773-.1571.3642-.2094.5288-.0243.0768-.0559.1866-.0723.305-.0077.056-.019.1604-.006.2854.0094.0906.0507.4072.3335.663.3429.31.7381.2652.8156.256.1308-.0156.2344-.0525.2853-.072.1114-.0427.2137-.0987.2857-.1405.1552-.0901.3318-.2104.4968-.3313.2993-.2192.7228-.5588.9443-.8376.1754-.2207.5103-.74026.773-1.18532.0821-.13908.1641-.28267.2378-.41935h.8261c.5522 0 1-.44772 1-1s-.4478-1-1-1h-.8261c-.0737-.13668-.1557-.28027-.2378-.41935-.2627-.44506-.5976-.96467-.773-1.18532-.2215-.27879-.645-.61839-.9443-.83763-.165-.12086-.3416-.24117-.4968-.33129-.072-.04182-.1743-.09779-.2857-.14044-.0509-.0195-.1545-.05642-.2853-.07202-.0775-.00926-.4727-.05404-.8156.25599-.2828.25575-.3241.57239-.3335.66301-.013.125-.0017.22936.006.28538.0164.1184.048.22824.0723.30499.0523.16466.1287.35151.2094.52881.1324.29054.3235.65794.5267.94787h-.6424c-.0737-.13667-.1557-.28026-.2378-.41935-.2627-.44506-.5976-.96467-.773-1.18532-.2215-.27879-.645-.61839-.9443-.83763-.165-.12086-.3416-.24117-.4968-.33129-.072-.04182-.1743-.09779-.2857-.14044-.0509-.0195-.1545-.05642-.2853-.07202-.0775-.00926-.4727-.05404-.8156.25599-.2828.25576-.3241.57239-.3335.66301-.013.125-.0017.22936.006.28538.0164.1184.048.22824.0723.305.0523.16465.1287.3515.2094.5288.1324.29054.3235.65795.5267.94787h-1.1367c-.0737-.13668-.1558-.28027-.2378-.41936-.2627-.44506-.5977-.96467-.773-1.18533Z"/>
    <path fill="currentColor" d="M3.00001 7.00003c-.55229 0-1 .44772-1 1 0 .55229.44771 1 1 1h4c.55228 0 1-.44771 1-1 0-.55228-.44772-1-1-1h-4Zm2 2.99997c-.55229 0-1 .4477-1 1s.44771 1 1 1h1c.55228 0 1-.4477 1-1s-.44772-1-1-1h-1Zm-2 3c-.30399 0-.59147.1383-.78123.3758-.18976.2375-.2612.5484-.19413.8449.27848 1.231 1.1312 2.2553 2.23009 3.035.92161.6539 2.06605 1.1737 3.34395 1.5346V19c0 .5523.44772 1 1 1h6.80261c.5523 0 1-.4477 1-1v-.2097c1.2779-.3609 2.4224-.8807 3.344-1.5346 1.0989-.7797 1.9516-1.804 2.2301-3.035.067-.2965-.0044-.6074-.1942-.8449C21.5915 13.1383 21.304 13 21 13H3.00001Z"/>
  </symbol>
  <symbol id="seedling" fill="none" viewBox="0 0 24 24">
    <path fill="currentColor" d="M10.9715 12.2168c-.0118.0406-.0234.0795-.0347.1166.0391.0574.0819.1192.1278.1855.3277.473.812 1.172 1.2141 2.0892.2147-.2864.4616-.5799.7447-.8832l-.0024-.0317c-.0236-.3254-.0361-.7783.0091-1.2905.0882-.9978.4095-2.3695 1.4623-3.39555 1.0079-.98229 2.3556-1.42385 3.4044-1.59916.5344-.08932 1.0323-.11665 1.4296-.09869.1954.00883.3932.02974.5707.07034.0872.01996.1979.05097.3114.10232.0867.03927.3102.14854.4769.39195.1453.21217.1993.45929.22.55586.0321.14963.0559.32134.0712.50398.0307.36676.0311.82807-.0291 1.32915-.1181.9828-.4871 2.2522-1.47 3.2102-1.0357 1.0093-2.4736 1.3803-3.5197 1.5249-.542.0749-1.0253.0952-1.3736.0969-.036.0002-.0706.0002-.1037 0-.931.9987-1.2688 1.7317-1.4072 2.3512-.0345.1545-.0581.303-.0739.451.0004.0342.0006.0685.0006.1029v2c0 .5523-.4477 1-1 1s-1-.4477-1-1c0-.1991-.0064-.4114-.0131-.6334-.0142-.4713-.0298-.9868.0117-1.5138-.0358-1.8786-.7555-2.9405-1.40123-3.8932-.13809-.2037-.2728-.4025-.39671-.6032-.05186-.0105-.10709-.0222-.16538-.035-.39471-.0865-.93803-.2268-1.53416-.4432-1.15636-.4197-2.67587-1.1841-3.58743-2.5531-.90552-1.35993-1.03979-2.96316-.96002-4.15955.04066-.60984.13916-1.15131.24451-1.56046.05234-.20327.10977-.38715.16845-.53804.02865-.07367.06419-.15663.10713-.23658.02132-.03968.0522-.09319.0933-.15021.03213-.04456.11389-.15344.24994-.25057.18341-.13093.36351-.16755.42749-.17932.0854-.01572.16019-.01941.21059-.02024.1023-.0017.20235.00733.28493.0176.17089.02126.37298.06155.58906.11526.43651.1085.99747.2886 1.59668.54576 1.16944.50188 2.63819 1.3629 3.52935 2.70126.9248 1.38891.9601 2.99601.818 4.14739-.0726.589-.1962 1.0975-.3016 1.4594Z"/>
  </symbol>
  <symbol id="shrimp" fill="none" viewBox="0 0 24 24">
    <path fill="currentColor" d="M6 5.00003c-.55228 0-1 .44772-1 1 0 .55196.44718.99947.99901 1H9v7.49407l-.39242.3002c-.43865.3355-1.06628.252-1.40184-.1867-.28078-.367-.26809-.8664.00054-1.2163C5.37736 13.0232 4 11.4075 4 9.47009V8.23614c-.61375-.54932-1-1.34761-1-2.23611 0-1.65685 1.34315-3 3-3h4c.5523 0 1 .44772 1 1 0 .55229-.4477 1-1 1H6Zm5 8.47007h.9787l2.9923-7.0297c-.8803-.34081-1.6895-.51254-2.4958-.46543-.5196.03035-1.0047.14959-1.4752.33684v7.15829Zm5.9737-6.62806L14.3524 13h6.9717c.5476-3.07251-1.48-5.64288-4.3504-6.15796ZM20.9003 15h-6.1385c-.018.0824-.0446.1647-.0805.246-.0089.0202-.0183.0401-.0282.0597l2.3883 5.4932c1.8902-.4966 3.576-1.9019 3.7858-4.0919.0494-.5152.0739-1.0751.0731-1.707Zm-5.9523 6-2.1739-5H11c-1.65685 0-3 1.3432-3 3v2h6.948Z"/>
  </symbol>
  <symbol id="stroopwafel" fill="none" viewBox="0 0 24 24">
    <path fill="currentColor" d="M10.9999 2.04938c-.6896.06847-1.35872.20702-1.99996.40842V7h1.99996V2.04938ZM6.99994 3.33782C5.4818 4.21602 4.21596 5.48186 3.33776 7h3.66218V3.33782ZM2.45774 9c-.2014.64124-.33995 1.3103-.40842 2h4.95062V9h-4.5422Zm-.40842 4c.06847.6897.20702 1.3588.40842 2h4.5422v-2H2.04932Zm1.28844 4c.8782 1.5181 2.14404 2.784 3.66218 3.6622V17H3.33776Zm5.66218 4.5422c.64124.2014 1.31036.34 1.99996.4084V17H8.99994v4.5422Zm3.99996.4084c.6897-.0684 1.3588-.207 2-.4084V17h-2v4.9506Zm4-1.2884c1.5182-.8782 2.784-2.1441 3.6622-3.6622h-3.6622v3.6622ZM21.5421 15c.2014-.6412.34-1.3103.4085-2h-4.9507v2h4.5422Zm.4085-4c-.0685-.6897-.2071-1.35876-.4085-2h-4.5422v2h4.9507Zm-1.2885-4c-.8782-1.51814-2.144-2.78398-3.6622-3.66218V7h3.6622Zm-5.6622-4.5422c-.6412-.2014-1.3103-.33995-2-.40842V7h2V2.4578ZM8.99994 9h1.99996v2H8.99994V9Zm0 4h1.99996v2H8.99994v-2Zm3.99996 0v2h2v-2h-2Zm0-2h2V9h-2v2Z"/>
  </symbol>
  <symbol id="water-bottle" fill="none" viewBox="0 0 24 24">
    <path fill="currentColor" d="M9 3c0-.55228.44772-1 1-1h5c.5523 0 1 .44772 1 1v2c0 .55228-.4477 1-1 1h-5c-.55228 0-1-.44772-1-1V3Zm-.12662 5c-.79243.57264-1.76284 1.55553-1.86463 3H17.9913c-.1018-1.44447-1.0723-2.42736-1.8647-3H8.87338Zm8.88162 5H7.24496c.15128.4553.35264.7798.54427 1.0396.05399.0733.09613.1308.12882.1755l.04722.0644c-.03725.0584-.08278.1174-.15764.2145-.02941.0382-.06333.0822-.10306.1343-.22586.2965-.54312.7403-.6595 1.3717H17.9549c-.1163-.6314-.4336-1.0752-.6595-1.3717-.0397-.0521-.0736-.0961-.103-.1343-.0749-.0971-.1204-.1562-.1577-.2145l.0472-.0644c.0327-.0446.0749-.1022.1289-.1755.1916-.2598.393-.5843.5442-1.0396ZM18 18H7v1c0 1.611 1.57732 3 3.5 3 .8707 0 1.5288-.2471 2-.5549.4712.3078 1.1293.5549 2 .5549 1.9227 0 3.5-1.389 3.5-3v-1Z"/>
  </symbol>
  <symbol id="whiskey-glass" fill="none" viewBox="0 0 24 24">
    <path fill="currentColor" fill-rule="evenodd" d="M6 6c-.27965 0-.54652.1171-.73588.32289-.18935.20579-.28389.48147-.26066.76016l.84717 10.16605C5.9802 18.804 7.28 20 8.84027 20h6.31943c1.5603 0 2.8601-1.196 2.9897-2.7509l.8471-10.16605c.0233-.27869-.0713-.55437-.2606-.76016C18.5465 6.1171 18.2797 6 18 6H6Zm1.50347 7L7.0868 8h9.8264l-.4167 5H7.50347Z" clip-rule="evenodd"/>
  </symbol>
  <symbol id="wine-bottle" fill="none" viewBox="0 0 24 24">
    <path fill="currentColor" d="M9.00004 4c0-1.10457.89543-2 1.99996-2h2c1.1046 0 2 .89543 2 2v3H9.00004V4Zm0 5v.41924c-.87786.56584-1.41239 1.28066-1.69868 2.13956-.30199.9059-.30165 1.9228-.30134 2.8523L7.00004 20c0 1.1047.89549 2 2 2H15c1.1046 0 2-.8954 2-2v-1h-4.9999c-.5523 0-1-.4477-1-1v-5c0-.5523.4477-1 1-1h4.8213c-.034-.1494-.0745-.2967-.1227-.4412-.2863-.8589-.8208-1.57372-1.6987-2.13956V9H9.00004Z"/>
    <path fill="currentColor" d="M17 14h-3.9999v3H17v-3Z"/>
  </symbol>
  <symbol id="wine-glass-empty" fill="none" viewBox="0 0 24 24">
    <path fill="currentColor" d="M8.5 2c-.42794 0-.80845.2723-.94652.67736-.03443.10101-.07815.2268-.12882.3726-.1952.56172-.4936 1.42039-.76192 2.30283C6.33766 6.42192 6 7.69926 6 8.57072c0 2.88418 2.09201 5.78348 5 6.33548V20H9c-.55228 0-1 .4477-1 1s.44772 1 1 1h6c.5523 0 1-.4477 1-1s-.4477-1-1-1h-2v-5.0938c2.908-.552 5-3.4513 5-6.33548 0-.86275-.3278-2.12695-.6497-3.1952-.3348-1.11124-.7167-2.17674-.9075-2.70901l-.0015-.00395C16.2989 2.26514 15.9222 2 15.5 2h-7Z"/>
  </symbol>
  <symbol id="wine-glass" fill="none" viewBox="0 0 24 24">
    <path fill="currentColor" fill-rule="evenodd" d="M8.5 2c-.42794 0-.80845.2723-.94652.67736-.03443.10101-.07815.2268-.12882.3726-.1952.56172-.4936 1.42039-.76192 2.30283C6.33766 6.42192 6 7.69926 6 8.57072c0 .10149.00259.20301.00772.30444C6.00262 8.91606 6 8.95772 6 9c0 .10098.01497.19846.0428.29034C6.35415 11.9216 8.33422 14.4001 11 14.9062V20H9c-.55228 0-1 .4477-1 1s.44772 1 1 1h6c.5523 0 1-.4477 1-1s-.4477-1-1-1h-2v-5.0938c2.908-.552 5-3.4513 5-6.33548 0-.86275-.3278-2.12695-.6497-3.1952-.3348-1.11124-.7167-2.17674-.9075-2.70901l-.0015-.00395C16.2989 2.26514 15.9222 2 15.5 2h-7Zm-.44291 6h7.88661c-.088-.54205-.2729-1.26599-.5084-2.0475-.2149-.71327-.4515-1.41069-.6413-1.9525H9.21208c-.18553.53611-.41939 1.22278-.63584 1.93462C8.33663 6.72266 8.14708 7.4535 8.05709 8Z" clip-rule="evenodd"/>
  </symbol>
</svg>