<svg xmlns="http://www.w3.org/2000/svg" xmlns:xlink="http://www.w3.org/1999/xlink">
  <symbol id="backward-step" fill="currentColor" viewBox="0 0 24 24">
    <path fill-rule="evenodd" d="M7 6a1 1 0 0 1 2 0v4l6.4-4.8A1 1 0 0 1 17 6v12a1 1 0 0 1-1.6.8L9 14v4a1 1 0 1 1-2 0V6Z" clip-rule="evenodd"/>
  </symbol>
  <symbol id="camera-photo" fill="currentColor" viewBox="0 0 24 24">
    <path fill-rule="evenodd" d="M7.5 4.586A2 2 0 0 1 8.914 4h6.172a2 2 0 0 1 1.414.586L17.914 6H19a2 2 0 0 1 2 2v10a2 2 0 0 1-2 2H5a2 2 0 0 1-2-2V8a2 2 0 0 1 2-2h1.086L7.5 4.586ZM10 12a2 2 0 1 1 4 0 2 2 0 0 1-4 0Zm2-4a4 4 0 1 0 0 8 4 4 0 0 0 0-8Z" clip-rule="evenodd"/>
  </symbol>
  <symbol id="caption" fill="currentColor" viewBox="0 0 24 24">
    <path fill-rule="evenodd" d="M2 6a2 2 0 0 1 2-2h16a2 2 0 0 1 2 2v12a2 2 0 0 1-2 2H4a2 2 0 0 1-2-2V6Zm6.962 4.856a1.475 1.475 0 0 1 1.484.066A1 1 0 1 0 11.53 9.24a3.475 3.475 0 1 0-.187 5.955 1 1 0 1 0-.976-1.746 1.474 1.474 0 1 1-1.405-2.593Zm6.186 0a1.475 1.475 0 0 1 1.484.066 1 1 0 1 0 1.084-1.682 3.475 3.475 0 1 0-.187 5.955 1 1 0 1 0-.976-1.746 1.474 1.474 0 1 1-1.405-2.593Z" clip-rule="evenodd"/>
  </symbol>
  <symbol id="circle-pause" fill="currentColor" viewBox="0 0 24 24">
    <path fill-rule="evenodd" d="M2 12C2 6.477 6.477 2 12 2s10 4.477 10 10-4.477 10-10 10S2 17.523 2 12Zm9-3a1 1 0 1 0-2 0v6a1 1 0 1 0 2 0V9Zm4 0a1 1 0 1 0-2 0v6a1 1 0 1 0 2 0V9Z" clip-rule="evenodd"/>
  </symbol>
  <symbol id="clapperboard-play" fill="currentColor" viewBox="0 0 24 24">
    <path fill-rule="evenodd" d="M19.003 3A2 2 0 0 1 21 5v2h-2V5.414L17.414 7h-2.828l2-2h-2.172l-2 2H9.586l2-2H9.414l-2 2H3V5a2 2 0 0 1 2-2h14.003ZM3 9v10a2 2 0 0 0 2 2h14a2 2 0 0 0 2-2V9H3Zm2-2.414L6.586 5H5v1.586Zm4.553 4.52a1 1 0 0 1 1.047.094l4 3a1 1 0 0 1 0 1.6l-4 3A1 1 0 0 1 9 18v-6a1 1 0 0 1 .553-.894Z" clip-rule="evenodd"/>
  </symbol>
  <symbol id="computer-speaker" fill="currentColor" viewBox="0 0 24 24">
    <path fill-rule="evenodd" d="M12 8a1 1 0 0 0-1 1v10H9a1 1 0 1 0 0 2h11a1 1 0 0 0 1-1V9a1 1 0 0 0-1-1h-8Zm4 10a2 2 0 1 1 0-4 2 2 0 0 1 0 4Z" clip-rule="evenodd"/>
    <path fill-rule="evenodd" d="M5 3a2 2 0 0 0-2 2v6h6V9a3 3 0 0 1 3-3h8c.35 0 .687.06 1 .17V5a2 2 0 0 0-2-2H5Zm4 10H3v2a2 2 0 0 0 2 2h4v-4Z" clip-rule="evenodd"/>
  </symbol>
  <symbol id="forward-step" fill="currentColor" viewBox="0 0 24 24">
    <path fill-rule="evenodd" d="M17 6a1 1 0 1 0-2 0v4L8.6 5.2A1 1 0 0 0 7 6v12a1 1 0 0 0 1.6.8L15 14v4a1 1 0 1 0 2 0V6Z" clip-rule="evenodd"/>
  </symbol>
  <symbol id="headphones" fill="currentColor" viewBox="0 0 24 24">
    <path fill-rule="evenodd" d="M12 5a7 7 0 0 0-7 7v1.17c.313-.11.65-.17 1-.17h2a1 1 0 0 1 1 1v6a1 1 0 0 1-1 1H6a3 3 0 0 1-3-3v-6a9 9 0 0 1 18 0v6a3 3 0 0 1-3 3h-2a1 1 0 0 1-1-1v-6a1 1 0 0 1 1-1h2c.35 0 .687.06 1 .17V12a7 7 0 0 0-7-7Z" clip-rule="evenodd"/>
  </symbol>
  <symbol id="incoming-call" fill="currentColor" viewBox="0 0 24 24">
    <path d="M6.97825 3.99999c-.3729 0-.74128.08169-1.07926.23934-.32394.15109-.61243.36845-.84696.63786-1.81892 1.82189-2.35302 3.87423-1.89899 5.93671.43916 1.9949 1.77747 3.8929 3.45642 5.572 1.67897 1.6791 3.57614 3.0176 5.57034 3.4591 2.0612.4563 4.1141-.0726 5.9396-1.8853.2705-.2348.4888-.524.6405-.8489.1581-.3387.2401-.7081.2401-1.0819 0-.3739-.082-.7432-.2401-1.0819-.1516-.3247-.3696-.6137-.6398-.8483l-1.2098-1.2106c-.5043-.5041-1.1879-.7872-1.9007-.7872-.7128 0-1.3968.2835-1.9011.7876l-.6178.6181c-.1512.1513-.3563.2363-.5701.2363-.2138 0-.4189-.085-.5701-.2363l-1.85336-1.8545c-.15117-.1513-.23609-.3565-.23609-.5704 0-.214.08493-.4192.23613-.5705l.61812-.61851c.5037-.50461.7867-1.18868.7867-1.90191s-.2833-1.39767-.7871-1.90228L8.90499 4.8778c-.23462-.26969-.5233-.48727-.84749-.63847-.33798-.15765-.70636-.23934-1.07925-.23934Z"/>
    <path fill-rule="evenodd" d="M18.0299 8.98132c0 .55229-.4477 1-1 .99999l-3.03-.00002c-.5522 0-1-.44772-1-1V5.99995c0-.55229.4478-1 1-1 .5523 0 1 .44771 1 1v.58112l3.3184-3.29111c.3921-.38892 1.0253-.38631 1.4142.00582.3889.39213.3863 1.02529-.0058 1.4142l-3.2984 3.27133h.6016c.5523.00001 1 .44773 1 1.00001Z" clip-rule="evenodd"/>
  </symbol>
  <symbol id="list-music" fill="currentColor" viewBox="0 0 24 24">
    <path fill-rule="evenodd" d="M17.316 4.052a.99.99 0 0 0-.9.14c-.262.19-.416.495-.416.82v8.566a4.573 4.573 0 0 0-2-.464c-1.99 0-4 1.342-4 3.443 0 2.1 2.01 3.443 4 3.443 1.99 0 4-1.342 4-3.443V6.801c.538.5 1 1.219 1 2.262 0 .56.448 1.013 1 1.013s1-.453 1-1.013c0-1.905-.956-3.18-1.86-3.942a6.391 6.391 0 0 0-1.636-.998 4 4 0 0 0-.166-.063l-.013-.005-.005-.002h-.002l-.002-.001ZM4 5.012c-.552 0-1 .454-1 1.013 0 .56.448 1.013 1 1.013h9c.552 0 1-.453 1-1.013 0-.559-.448-1.012-1-1.012H4Zm0 4.051c-.552 0-1 .454-1 1.013 0 .56.448 1.013 1 1.013h9c.552 0 1-.454 1-1.013 0-.56-.448-1.013-1-1.013H4Zm0 4.05c-.552 0-1 .454-1 1.014 0 .559.448 1.012 1 1.012h4c.552 0 1-.453 1-1.012 0-.56-.448-1.013-1-1.013H4Z" clip-rule="evenodd"/>
  </symbol>
  <symbol id="microphone-slash" fill="currentColor" viewBox="0 0 24 24">
    <path d="m15.506 14.097.994.995A3.989 3.989 0 0 0 17.975 12V9.011a.996.996 0 0 1 1.992 0v2.99a5.981 5.981 0 0 1-2.054 4.503l1.762 1.762a.996.996 0 1 1-1.408 1.408L4.325 5.733a.996.996 0 0 1 1.408-1.408L7.04 5.632a3.984 3.984 0 0 1 3.964-3.59h1.992c2.2 0 3.983 1.783 3.983 3.983v4.98a3.975 3.975 0 0 1-1.473 3.092ZM4.033 10.008a.996.996 0 1 1 1.992 0V12a3.99 3.99 0 0 0 3.984 3.984H12c.55 0 .996.446.996.996v2.988h1.992a.996.996 0 0 1 0 1.992H9.012a.996.996 0 0 1 0-1.992h1.992v-1.992h-.997a5.981 5.981 0 0 1-5.974-5.974v-1.993Z"/>
  </symbol>
  <symbol id="microphone" fill="currentColor" viewBox="0 0 24 24">
    <path fill-rule="evenodd" d="M5 8a1 1 0 0 1 1 1v3a4.006 4.006 0 0 0 4 4h4a4.006 4.006 0 0 0 4-4V9a1 1 0 1 1 2 0v3.001A6.006 6.006 0 0 1 14.001 18H13v2h2a1 1 0 1 1 0 2H9a1 1 0 1 1 0-2h2v-2H9.999A6.006 6.006 0 0 1 4 12.001V9a1 1 0 0 1 1-1Z" clip-rule="evenodd"/>
    <path d="M7 6a4 4 0 0 1 4-4h2a4 4 0 0 1 4 4v5a4 4 0 0 1-4 4h-2a4 4 0 0 1-4-4V6Z"/>
  </symbol>
  <symbol id="missed-call" fill="currentColor" viewBox="0 0 24 24">
    <path fill-rule="evenodd" d="M14.1673 10.687c-.3905-.3905-.3905-1.02367 0-1.41419l1.3869-1.38683-1.346-1.20257c-.4119-.36796-.4474-1.00013-.0795-1.41198.368-.41184 1.0002-.44742 1.412-.07945l1.4724 1.31553 1.4939-1.31935c.414-.36559 1.0459-.32639 1.4115.08757.3656.41395.3264 1.0459-.0876 1.4115l-1.3605 1.2016 1.4042 1.39843c.3913.38971.3927 1.02284.0029 1.41424-.3897.3913-1.0228.3926-1.4142.0029l-1.4525-1.44658-1.4293 1.42918c-.3905.3905-1.0236.3905-1.4142 0Z" clip-rule="evenodd"/>
    <path d="M7.97825 5.00001c-.3729 0-.74128.08169-1.07926.23933-.32394.1511-.61243.36846-.84696.63787-1.81892 1.82188-2.35302 3.87423-1.89899 5.93669.43916 1.9949 1.77747 3.8929 3.45642 5.572 1.67897 1.6791 3.57614 3.0177 5.57034 3.4591 2.0612.4563 4.1141-.0726 5.9396-1.8853.2705-.2348.4888-.524.6405-.8489.1581-.3387.2401-.708.2401-1.0819 0-.3739-.082-.7432-.2401-1.0819-.1516-.3247-.3696-.6136-.6398-.8483l-1.2098-1.2106c-.5043-.504-1.1879-.7872-1.9007-.7872-.7128 0-1.3968.2835-1.9011.7876l-.6178.6182c-.1512.1512-.3563.2362-.5701.2362-.2138 0-.4189-.085-.5701-.2363l-1.8534-1.8545c-.1511-.1513-.2361-.3565-.2361-.5704 0-.214.085-.4192.2362-.5705l.6181-.6185c.5037-.5046.7867-1.18867.7867-1.9019 0-.71324-.2833-1.39767-.7871-1.90229L9.90499 5.87782c-.23462-.2697-.5233-.48727-.84749-.63848-.33798-.15764-.70636-.23933-1.07925-.23933Z"/>
  </symbol>
  <symbol id="music-alt" fill="currentColor" viewBox="0 0 24 24">
    <path d="M9.5 13C7.567 13 6 14.567 6 16.5S7.567 20 9.5 20s3.5-1.567 3.5-3.5S11.433 13 9.5 13Z"/>
    <path fill-rule="evenodd" d="M11 5c0-.55228.4477-1 1-1 1.5438 0 3.3242.75435 4.5149 2.16836 1.2348 1.46632 1.7886 3.5834.9338 6.14784-.1747.524-.741.8071-1.2649.6325-.524-.1747-.8071-.741-.6325-1.2649.6452-1.93556.199-3.31848-.5662-4.22716C14.4407 6.8102 13.7107 6.37433 13 6.15825V16.5c0 .5523-.4477 1-1 1s-1-.4477-1-1V5Z" clip-rule="evenodd"/>
  </symbol>
  <symbol id="music" fill="currentColor" viewBox="0 0 24 24">
    <path d="M18.6216 3.21667c.2391.1897.3784.47817.3784.78334V15.6667c0 .0412-.0025.0818-.0073.1218.0048.0698.0073.1404.0073.2115 0 1.6569-1.3431 3-3 3s-3-1.3431-3-3 1.3431-3 3-3c.3506 0 .6872.0602 1 .1707V9.2602l-8 1.8667V18l-.00001.0032C8.99824 19.6586 7.65577 21 6 21c-1.65685 0-3-1.3431-3-3s1.34315-3 3-3c.35064 0 .68722.0602 1 .1707V6.33334c0-.46474.32018-.86823.77277-.97384l9.99953-2.33321c.1486-.03477.3012-.03465.4467-.00201.1427.03202.2783.09532.3964.18752.0021.00162.0041.00324.0062.00487Z"/>
  </symbol>
  <symbol id="outgoing-call" fill="currentColor" viewBox="0 0 24 24">
    <path d="M6.97825 3.99999c-.3729 0-.74128.08169-1.07926.23933-.32394.1511-.61243.36846-.84696.63787-1.81892 1.82189-2.35302 3.87423-1.89899 5.93671.43916 1.9949 1.77747 3.8929 3.45642 5.572 1.67897 1.6791 3.57614 3.0176 5.57034 3.4591 2.0612.4563 4.1141-.0726 5.9396-1.8853.2705-.2348.4888-.524.6405-.8489.1581-.3387.2401-.7081.2401-1.0819 0-.3739-.082-.7432-.2401-1.0819-.1516-.3247-.3696-.6137-.6398-.8483l-1.2098-1.2106c-.5043-.5041-1.1879-.7872-1.9007-.7872-.7128 0-1.3968.2835-1.9011.7876l-.6178.6181c-.1512.1513-.3563.2363-.5701.2363-.2138 0-.4189-.085-.5701-.2363l-1.85336-1.8545c-.15117-.1513-.23609-.3565-.23609-.5704 0-.214.08493-.4192.23613-.5705l.61812-.61851c.5037-.50461.7867-1.18868.7867-1.90191s-.2833-1.39767-.7871-1.90228L8.90499 4.8778c-.23462-.26969-.5233-.48727-.84749-.63848-.33798-.15764-.70636-.23933-1.07925-.23933Z"/>
    <path fill-rule="evenodd" d="M14.9925 3.99996c0-.55228.4477-.99999 1-.99999l3.03.00002c.5523 0 1 .44772 1 1v2.98135c0 .55228-.4478 1-1 1-.5523 0-1-.44772-1-1v-.58113l-3.3184 3.29112c-.3921.38887-1.0253.38627-1.4142-.00583-.3889-.39213-.3863-1.02529.0059-1.4142l3.2983-3.27133h-.6016c-.5523 0-1-.44772-1-1.00001Z" clip-rule="evenodd"/>
  </symbol>
  <symbol id="pause" fill="currentColor" viewBox="0 0 24 24">
    <path fill-rule="evenodd" d="M8 5a2 2 0 0 0-2 2v10a2 2 0 0 0 2 2h1a2 2 0 0 0 2-2V7a2 2 0 0 0-2-2H8Zm7 0a2 2 0 0 0-2 2v10a2 2 0 0 0 2 2h1a2 2 0 0 0 2-2V7a2 2 0 0 0-2-2h-1Z" clip-rule="evenodd"/>
  </symbol>
  <symbol id="play" fill="currentColor" viewBox="0 0 24 24">
    <path fill-rule="evenodd" d="M8.6 5.2A1 1 0 0 0 7 6v12a1 1 0 0 0 1.6.8l8-6a1 1 0 0 0 0-1.6l-8-6Z" clip-rule="evenodd"/>
  </symbol>
  <symbol id="rectangle-list" fill="currentColor" viewBox="0 0 24 24">
    <path fill-rule="evenodd" d="M2 6a2 2 0 0 1 2-2h16a2 2 0 0 1 2 2v12a2 2 0 0 1-2 2H4a2 2 0 0 1-2-2V6Zm4.996 2a1 1 0 0 0 0 2h.01a1 1 0 1 0 0-2h-.01ZM11 8a1 1 0 1 0 0 2h6a1 1 0 1 0 0-2h-6Zm-4.004 3a1 1 0 1 0 0 2h.01a1 1 0 1 0 0-2h-.01ZM11 11a1 1 0 1 0 0 2h6a1 1 0 1 0 0-2h-6Zm-4.004 3a1 1 0 1 0 0 2h.01a1 1 0 1 0 0-2h-.01ZM11 14a1 1 0 1 0 0 2h6a1 1 0 1 0 0-2h-6Z" clip-rule="evenodd"/>
  </symbol>
  <symbol id="stop" fill="currentColor" viewBox="0 0 24 24">
    <path d="M7 5a2 2 0 0 0-2 2v10a2 2 0 0 0 2 2h10a2 2 0 0 0 2-2V7a2 2 0 0 0-2-2H7Z"/>
  </symbol>
  <symbol id="video-camera" fill="currentColor" viewBox="0 0 24 24">
    <path fill-rule="evenodd" d="M14 7a2 2 0 0 0-2-2H4a2 2 0 0 0-2 2v10a2 2 0 0 0 2 2h8a2 2 0 0 0 2-2V7Zm2 9.387 4.684 1.562A1 1 0 0 0 22 17V7a1 1 0 0 0-1.316-.949L16 7.613v8.774Z" clip-rule="evenodd"/>
  </symbol>
  <symbol id="volume-mute" fill="currentColor" viewBox="0 0 24 24">
    <path d="M5.707 4.293a1 1 0 0 0-1.414 1.414l14 14a1 1 0 0 0 1.414-1.414l-.004-.005C21.57 16.498 22 13.938 22 12a9.972 9.972 0 0 0-2.929-7.071 1 1 0 1 0-1.414 1.414A7.972 7.972 0 0 1 20 12c0 1.752-.403 3.636-1.712 4.873l-1.433-1.433C17.616 14.37 18 13.107 18 12c0-1.678-.69-3.197-1.8-4.285a1 1 0 1 0-1.4 1.428A3.985 3.985 0 0 1 16 12c0 .606-.195 1.335-.59 1.996L13 11.586V6.135c0-1.696-1.978-2.622-3.28-1.536L7.698 6.284l-1.99-1.991ZM4 8h.586L13 16.414v1.451c0 1.696-1.978 2.622-3.28 1.536L5.638 16H4a2 2 0 0 1-2-2v-4a2 2 0 0 1 2-2Z"/>
  </symbol>
</svg>