<svg xmlns="http://www.w3.org/2000/svg" xmlns:xlink="http://www.w3.org/1999/xlink">
  <symbol id="font-color-alt" fill="none" viewBox="0 0 24 24">
    <path fill="currentColor" d="M19.9999 18.0661c0 1.6203-1.3431 2.9339-3 2.9339-1.6568 0-3-1.3136-3-2.9339 0-1.6204 3-6.0661 3-6.0661s3 4.4457 3 6.0661Z"/>
    <path fill="currentColor" fill-rule="evenodd" d="M10.4817 7.52489 9.12238 10.9817H11.841l-1.3593-3.45681Zm3.7494 4.06961-2.7166-6.90843c-.3694-.93918-1.69627-.93917-2.06558 0L6.76269 11.5173c-.03333.0634-.06004.1309-.07922.2014l-1.28309 3.263h-.41869c-.55229 0-1 .4477-1 1s.44771 1 1 1h2.75c.55228 0 1-.4477 1-1s-.44772-1-1-1h-.18223l.78646-2h4.29158l.3676.9349c.2021.514.7826.7668 1.2966.5647.514-.2021.7668-.7826.5647-1.2966l-.6085-1.5473c-.0053-.0144-.0109-.0287-.0168-.0429Z" clip-rule="evenodd"/>
  </symbol>
  <symbol id="indent" fill="currentColor" viewBox="0 0 24 24">
    <path fill-rule="evenodd" d="M5 6a1 1 0 0 1 1-1h12a1 1 0 1 1 0 2H6a1 1 0 0 1-1-1Zm0 12a1 1 0 0 1 1-1h12a1 1 0 1 1 0 2H6a1 1 0 0 1-1-1Zm1.65-9.76A1 1 0 0 0 5 9v6a1 1 0 0 0 1.65.76l3.5-3a1 1 0 0 0 0-1.52l-3.5-3ZM12 10a1 1 0 0 1 1-1h5a1 1 0 1 1 0 2h-5a1 1 0 0 1-1-1Zm0 4a1 1 0 0 1 1-1h5a1 1 0 1 1 0 2h-5a1 1 0 0 1-1-1Z" clip-rule="evenodd"/>
  </symbol>
  <symbol id="outdent" fill="currentColor" viewBox="0 0 24 24">
    <path fill-rule="evenodd" d="M5 6a1 1 0 0 1 1-1h12a1 1 0 1 1 0 2H6a1 1 0 0 1-1-1Zm0 12a1 1 0 0 1 1-1h12a1 1 0 1 1 0 2H6a1 1 0 0 1-1-1Zm3.85-9.76A1 1 0 0 1 10.5 9v6a1 1 0 0 1-1.65.76l-3.5-3a1 1 0 0 1 0-1.52l3.5-3ZM12 10a1 1 0 0 1 1-1h5a1 1 0 1 1 0 2h-5a1 1 0 0 1-1-1Zm0 4a1 1 0 0 1 1-1h5a1 1 0 1 1 0 2h-5a1 1 0 0 1-1-1Z" clip-rule="evenodd"/>
  </symbol>
  <symbol id="paragraph" fill="currentColor" viewBox="0 0 24 24">
    <path fill-rule="evenodd" d="M8.5 4a4.5 4.5 0 0 0 0 9H11v6a1 1 0 1 0 2 0V6h2v13a1 1 0 1 0 2 0V6h2a1 1 0 1 0 0-2H8.5Z" clip-rule="evenodd"/>
  </symbol>
  <symbol id="quote" fill="currentColor" viewBox="0 0 24 24">
    <path fill-rule="evenodd" d="M6 6a2 2 0 0 0-2 2v3a2 2 0 0 0 2 2h3a3 3 0 0 1-3 3H5a1 1 0 1 0 0 2h1a5 5 0 0 0 5-5V8a2 2 0 0 0-2-2H6Zm9 0a2 2 0 0 0-2 2v3a2 2 0 0 0 2 2h3a3 3 0 0 1-3 3h-1a1 1 0 1 0 0 2h1a5 5 0 0 0 5-5V8a2 2 0 0 0-2-2h-3Z" clip-rule="evenodd"/>
  </symbol>
</svg>