<svg xmlns="http://www.w3.org/2000/svg" xmlns:xlink="http://www.w3.org/1999/xlink">
  <symbol id="angle-down" fill="none" viewBox="0 0 24 24">
    <path stroke="currentColor" stroke-linecap="round" stroke-linejoin="round" stroke-width="2" d="m19 9-7 7-7-7"/>
  </symbol>
  <symbol id="angle-left" fill="none" viewBox="0 0 24 24">
    <path stroke="currentColor" stroke-linecap="round" stroke-linejoin="round" stroke-width="2" d="m15 19-7-7 7-7"/>
  </symbol>
  <symbol id="angle-right" fill="none" viewBox="0 0 24 24">
    <path stroke="currentColor" stroke-linecap="round" stroke-linejoin="round" stroke-width="2" d="m9 5 7 7-7 7"/>
  </symbol>
  <symbol id="angle-up" fill="none" viewBox="0 0 24 24">
    <path stroke="currentColor" stroke-linecap="round" stroke-linejoin="round" stroke-width="2" d="m5 15 7-7 7 7"/>
  </symbol>
  <symbol id="arrow-down-to-bracket" fill="none" viewBox="0 0 24 24">
    <path stroke="currentColor" stroke-linecap="round" stroke-linejoin="round" stroke-width="2" d="M4 15v2a3 3 0 0 0 3 3h10a3 3 0 0 0 3-3v-2m-8 1V4m0 12-4-4m4 4 4-4"/>
  </symbol>
  <symbol id="arrow-down" fill="none" viewBox="0 0 24 24">
    <path stroke="currentColor" stroke-linecap="round" stroke-linejoin="round" stroke-width="2" d="M12 19V5m0 14-4-4m4 4 4-4"/>
  </symbol>
  <symbol id="arrow-left-to-bracket" fill="none" viewBox="0 0 24 24">
    <path stroke="currentColor" stroke-linecap="round" stroke-linejoin="round" stroke-width="2" d="M16 12H4m12 0-4 4m4-4-4-4m3-4h2a3 3 0 0 1 3 3v10a3 3 0 0 1-3 3h-2"/>
  </symbol>
  <symbol id="arrow-left" fill="none" viewBox="0 0 24 24">
    <path stroke="currentColor" stroke-linecap="round" stroke-linejoin="round" stroke-width="2" d="M5 12h14M5 12l4-4m-4 4 4 4"/>
  </symbol>
  <symbol id="arrow-right-alt" fill="none" viewBox="0 0 24 24">
    <path stroke="currentColor" stroke-linecap="round" stroke-linejoin="round" stroke-width="2" d="M16.153 19 21 12l-4.847-7H3l4.848 7L3 19h13.153Z"/>
  </symbol>
  <symbol id="arrow-right-to-bracket" fill="none" viewBox="0 0 24 24">
    <path stroke="currentColor" stroke-linecap="round" stroke-linejoin="round" stroke-width="2" d="M20 12H8m12 0-4 4m4-4-4-4M9 4H7a3 3 0 0 0-3 3v10a3 3 0 0 0 3 3h2"/>
  </symbol>
  <symbol id="arrow-right" fill="none" viewBox="0 0 24 24">
    <path stroke="currentColor" stroke-linecap="round" stroke-linejoin="round" stroke-width="2" d="M19 12H5m14 0-4 4m4-4-4-4"/>
  </symbol>
  <symbol id="arrow-sort-letters" fill="none" viewBox="0 0 24 24">
    <path stroke="currentColor" stroke-linecap="round" stroke-linejoin="round" stroke-width="2" d="M7 4v16M7 4l3 3M7 4 4 7m9-3h6l-6 6h6m-6.5 10 3.5-7 3.5 7M14 18h4"/>
  </symbol>
  <symbol id="arrow-up-down" fill="none" viewBox="0 0 24 24">
    <path stroke="currentColor" stroke-linecap="round" stroke-linejoin="round" stroke-width="2" d="M8 20V7m0 13-4-4m4 4 4-4m4-12v13m0-13 4 4m-4-4-4 4"/>
  </symbol>
  <symbol id="arrow-up-from-bracket" fill="none" viewBox="0 0 24 24">
    <path stroke="currentColor" stroke-linecap="round" stroke-linejoin="round" stroke-width="2" d="M4 15v2a3 3 0 0 0 3 3h10a3 3 0 0 0 3-3v-2M12 4v12m0-12 4 4m-4-4L8 8"/>
  </symbol>
  <symbol id="arrow-up-right-down-left" fill="none" viewBox="0 0 24 24">
    <path stroke="currentColor" stroke-linecap="round" stroke-linejoin="round" stroke-width="2" d="M16 4h4m0 0v4m0-4-5 5M8 20H4m0 0v-4m0 4 5-5"/>
  </symbol>
  <symbol id="arrow-up" fill="none" viewBox="0 0 24 24">
    <path stroke="currentColor" stroke-linecap="round" stroke-linejoin="round" stroke-width="2" d="M12 6v13m0-13 4 4m-4-4-4 4"/>
  </symbol>
  <symbol id="arrows-repeat-count" fill="none" viewBox="0 0 24 24">
    <path stroke="currentColor" stroke-linecap="round" stroke-linejoin="round" stroke-width="2" d="m16 4 3 3H5v3m3 10-3-3h14v-3m-9-2.5 2-1.5v4"/>
  </symbol>
  <symbol id="arrows-repeat" fill="none" viewBox="0 0 24 24">
    <path stroke="currentColor" stroke-linecap="round" stroke-linejoin="round" stroke-width="2" d="m16 10 3-3m0 0-3-3m3 3H5v3m3 4-3 3m0 0 3 3m-3-3h14v-3"/>
  </symbol>
  <symbol id="caret-down" fill="none" viewBox="0 0 24 24">
    <path stroke="currentColor" stroke-linecap="round" stroke-linejoin="round" stroke-width="2" d="M7.119 8h9.762a1 1 0 0 1 .772 1.636l-4.881 5.927a1 1 0 0 1-1.544 0l-4.88-5.927A1 1 0 0 1 7.118 8Z"/>
  </symbol>
  <symbol id="caret-left" fill="none" viewBox="0 0 24 24">
    <path stroke="currentColor" stroke-linecap="round" stroke-linejoin="round" stroke-width="2" d="M16 16.881V7.119a1 1 0 0 0-1.636-.772l-5.927 4.881a1 1 0 0 0 0 1.544l5.927 4.88a1 1 0 0 0 1.636-.77Z"/>
  </symbol>
  <symbol id="caret-right" fill="none" viewBox="0 0 24 24">
    <path stroke="currentColor" stroke-linecap="round" stroke-linejoin="round" stroke-width="2" d="M8 16.881V7.119a1 1 0 0 1 1.636-.772l5.927 4.881a1 1 0 0 1 0 1.544l-5.927 4.88A1 1 0 0 1 8 16.882Z"/>
  </symbol>
  <symbol id="caret-sort" fill="none" viewBox="0 0 24 24">
    <path stroke="currentColor" stroke-linecap="round" stroke-linejoin="round" stroke-width="2" d="m8 10 4-6 4 6H8Zm8 4-4 6-4-6h8Z"/>
  </symbol>
  <symbol id="caret-up" fill="none" viewBox="0 0 24 24">
    <path stroke="currentColor" stroke-linecap="round" stroke-linejoin="round" stroke-width="2" d="M16.881 16H7.119a1 1 0 0 1-.772-1.636l4.881-5.927a1 1 0 0 1 1.544 0l4.88 5.927a1 1 0 0 1-.77 1.636Z"/>
  </symbol>
  <symbol id="chevron-double-down" fill="none" viewBox="0 0 24 24">
    <path stroke="currentColor" stroke-linecap="round" stroke-linejoin="round" stroke-width="2" d="m8 7 4 4 4-4m-8 6 4 4 4-4"/>
  </symbol>
  <symbol id="chevron-double-left" fill="none" viewBox="0 0 24 24">
    <path stroke="currentColor" stroke-linecap="round" stroke-linejoin="round" stroke-width="2" d="m17 16-4-4 4-4m-6 8-4-4 4-4"/>
  </symbol>
  <symbol id="chevron-double-right" fill="none" viewBox="0 0 24 24">
    <path stroke="currentColor" stroke-linecap="round" stroke-linejoin="round" stroke-width="2" d="m7 16 4-4-4-4m6 8 4-4-4-4"/>
  </symbol>
  <symbol id="chevron-double-up" fill="none" viewBox="0 0 24 24">
    <path stroke="currentColor" stroke-linecap="round" stroke-linejoin="round" stroke-width="2" d="m16 17-4-4-4 4m8-6-4-4-4 4"/>
  </symbol>
  <symbol id="chevron-down" fill="none" viewBox="0 0 24 24">
    <path stroke="currentColor" stroke-linecap="round" stroke-linejoin="round" stroke-width="2" d="m8 10 4 4 4-4"/>
  </symbol>
  <symbol id="chevron-left" fill="none" viewBox="0 0 24 24">
    <path stroke="currentColor" stroke-linecap="round" stroke-linejoin="round" stroke-width="2" d="m14 8-4 4 4 4"/>
  </symbol>
  <symbol id="chevron-right" fill="none" viewBox="0 0 24 24">
    <path stroke="currentColor" stroke-linecap="round" stroke-linejoin="round" stroke-width="2" d="m10 16 4-4-4-4"/>
  </symbol>
  <symbol id="chevron-sort" fill="none" viewBox="0 0 24 24">
    <path stroke="currentColor" stroke-linecap="round" stroke-linejoin="round" stroke-width="2" d="m8 15 4 4 4-4m0-6-4-4-4 4"/>
  </symbol>
  <symbol id="chevron-up" fill="none" viewBox="0 0 24 24">
    <path stroke="currentColor" stroke-linecap="round" stroke-linejoin="round" stroke-width="2" d="m16 14-4-4-4 4"/>
  </symbol>
  <symbol id="compress" fill="none" viewBox="0 0 24 24">
    <path stroke="currentColor" stroke-linecap="round" stroke-linejoin="round" stroke-width="2" d="M4 8h4V4m12 4h-4V4M4 16h4v4m12-4h-4v4"/>
  </symbol>
  <symbol id="expand" fill="none" viewBox="0 0 24 24">
    <path stroke="currentColor" stroke-linecap="round" stroke-linejoin="round" stroke-width="2" d="M8 4H4m0 0v4m0-4 5 5m7-5h4m0 0v4m0-4-5 5M8 20H4m0 0v-4m0 4 5-5m7 5h4m0 0v-4m0 4-5-5"/>
  </symbol>
  <symbol id="forward" fill="none" viewBox="0 0 24 24">
    <path stroke="currentColor" stroke-linecap="round" stroke-linejoin="round" stroke-width="2" d="M4.248 19C3.22 15.77 5.275 8.232 12.466 8.232V6.079a1.025 1.025 0 0 1 1.644-.862l5.479 4.307a1.108 1.108 0 0 1 0 1.723l-5.48 4.307a1.026 1.026 0 0 1-1.643-.861v-2.154C5.275 13.616 4.248 19 4.248 19Z"/>
  </symbol>
  <symbol id="minimize" fill="none" viewBox="0 0 24 24">
    <path stroke="currentColor" stroke-linecap="round" stroke-linejoin="round" stroke-width="2" d="M5 9h4m0 0V5m0 4L4 4m15 5h-4m0 0V5m0 4 5-5M5 15h4m0 0v4m0-4-5 5m15-5h-4m0 0v4m0-4 5 5"/>
  </symbol>
  <symbol id="redo" fill="none" viewBox="0 0 24 24">
    <path stroke="currentColor" stroke-linecap="round" stroke-linejoin="round" stroke-width="2" d="M21 9H8a5 5 0 0 0 0 10h9m4-10-4-4m4 4-4 4"/>
  </symbol>
  <symbol id="refresh" fill="none" viewBox="0 0 24 24">
    <path stroke="currentColor" stroke-linecap="round" stroke-linejoin="round" stroke-width="2" d="M17.651 7.65a7.131 7.131 0 0 0-12.68 3.15M18.001 4v4h-4m-7.652 8.35a7.13 7.13 0 0 0 12.68-3.15M6 20v-4h4"/>
  </symbol>
  <symbol id="reply-all" fill="none" viewBox="0 0 24 24">
    <path stroke="currentColor" stroke-linecap="round" stroke-linejoin="round" stroke-width="2" d="M8.757 6 3.24 10.95a1.05 1.05 0 0 0 0 1.549l5.611 5.088m5.73-3.214v1.615a.948.948 0 0 1-1.524.845l-5.108-4.251a1.1 1.1 0 0 1 0-1.646l5.108-4.251a.95.95 0 0 1 1.524.846v1.7c3.312 0 6 2.979 6 6.654v1.329a.7.7 0 0 1-1.345.353 5.174 5.174 0 0 0-4.652-3.191l-.003-.003Z"/>
  </symbol>
  <symbol id="reply" fill="none" viewBox="0 0 24 24">
    <path stroke="currentColor" stroke-linecap="round" stroke-linejoin="round" stroke-width="2" d="M14.5 8.046H11V6.119c0-.921-.9-1.446-1.524-.894l-5.108 4.49a1.2 1.2 0 0 0 0 1.739l5.108 4.49c.624.556 1.524.027 1.524-.893v-1.928h2a3.023 3.023 0 0 1 3 3.046V19a5.593 5.593 0 0 0-1.5-10.954Z"/>
  </symbol>
  <symbol id="share-all" fill="none" viewBox="0 0 24 24">
    <path stroke="currentColor" stroke-linecap="round" stroke-linejoin="round" stroke-width="2" d="m15.141 6 5.518 4.95a1.05 1.05 0 0 1 0 1.549l-5.612 5.088m-6.154-3.214v1.615a.95.95 0 0 0 1.525.845l5.108-4.251a1.1 1.1 0 0 0 0-1.646l-5.108-4.251a.95.95 0 0 0-1.525.846v1.7c-3.312 0-6 2.979-6 6.654v1.329a.7.7 0 0 0 1.344.353 5.174 5.174 0 0 1 4.652-3.191l.004-.003Z"/>
  </symbol>
  <symbol id="sort-horizontal" fill="none" viewBox="0 0 24 24">
    <path stroke="currentColor" stroke-linecap="round" stroke-linejoin="round" stroke-width="2" d="M4 16h13M4 16l4-4m-4 4 4 4M20 8H7m13 0-4 4m4-4-4-4"/>
  </symbol>
  <symbol id="sort" fill="none" viewBox="0 0 24 24">
    <path stroke="currentColor" stroke-linecap="round" stroke-linejoin="round" stroke-width="2" d="M8 20V10m0 10-3-3m3 3 3-3m5-13v10m0-10 3 3m-3-3-3 3"/>
  </symbol>
  <symbol id="undo" fill="none" viewBox="0 0 24 24">
    <path stroke="currentColor" stroke-linecap="round" stroke-linejoin="round" stroke-width="2" d="M3 9h13a5 5 0 0 1 0 10H7M3 9l4-4M3 9l4 4"/>
  </symbol>
</svg>