<svg xmlns="http://www.w3.org/2000/svg" xmlns:xlink="http://www.w3.org/1999/xlink">
  <symbol id="cart-plus-alt" fill="none" viewBox="0 0 24 24">
    <path stroke="currentColor" stroke-linecap="round" stroke-linejoin="round" stroke-width="2" d="M4 4h1.5L8 16m0 0h8m-8 0a2 2 0 1 0 0 4 2 2 0 0 0 0-4Zm8 0a2 2 0 1 0 0 4 2 2 0 0 0 0-4Zm.75-3H7.5M11 7H6.312M17 4v6m-3-3h6"/>
  </symbol>
  <symbol id="cart-plus" fill="none" viewBox="0 0 24 24">
    <path stroke="currentColor" stroke-linecap="round" stroke-linejoin="round" stroke-width="2" d="M5 4h1.5L9 16m0 0h8m-8 0a2 2 0 1 0 0 4 2 2 0 0 0 0-4Zm8 0a2 2 0 1 0 0 4 2 2 0 0 0 0-4Zm-8.5-3h9.25L19 7h-1M8 7h-.688M13 5v4m-2-2h4"/>
  </symbol>
  <symbol id="cart" fill="none" viewBox="0 0 24 24">
    <path stroke="currentColor" stroke-linecap="round" stroke-linejoin="round" stroke-width="2" d="M5 4h1.5L9 16m0 0h8m-8 0a2 2 0 1 0 0 4 2 2 0 0 0 0-4Zm8 0a2 2 0 1 0 0 4 2 2 0 0 0 0-4Zm-8.5-3h9.25L19 7H7.312"/>
  </symbol>
  <symbol id="cash-register" fill="none" viewBox="0 0 24 24">
    <path stroke="currentColor" stroke-linecap="round" stroke-linejoin="round" stroke-width="2" d="M5 18h14M5 18v3h14v-3M5 18l1-9h12l1 9M16 6v3m-4-3v3m-2-6h8v3h-8V3Zm-1 9h.01v.01H9V12Zm3 0h.01v.01H12V12Zm3 0h.01v.01H15V12Zm-6 3h.01v.01H9V15Zm3 0h.01v.01H12V15Zm3 0h.01v.01H15V15Z"/>
  </symbol>
  <symbol id="cash" fill="none" viewBox="0 0 24 24">
    <path stroke="currentColor" stroke-linecap="round" stroke-width="2" d="M8 7V6a1 1 0 0 1 1-1h11a1 1 0 0 1 1 1v7a1 1 0 0 1-1 1h-1M3 18v-7a1 1 0 0 1 1-1h11a1 1 0 0 1 1 1v7a1 1 0 0 1-1 1H4a1 1 0 0 1-1-1Zm8-3.5a1.5 1.5 0 1 1-3 0 1.5 1.5 0 0 1 3 0Z"/>
  </symbol>
  <symbol id="credit-card-plus-alt" fill="none" viewBox="0 0 24 24">
    <path stroke="currentColor" stroke-linecap="round" stroke-linejoin="round" stroke-width="2" d="M6 14h2m3 0h4m2 2h2m0 0h2m-2 0v2m0-2v-2m-5 4H4c-.55228 0-1-.4477-1-1V7c0-.55228.44772-1 1-1h16c.5523 0 1 .44772 1 1v4M3 10h18"/>
  </symbol>
  <symbol id="credit-card-plus" fill="none" viewBox="0 0 24 24">
    <path stroke="currentColor" stroke-linecap="square" stroke-linejoin="round" stroke-width="2" d="M16.5 15v1.5m0 0V18m0-1.5H15m1.5 0H18M3 9V6a1 1 0 0 1 1-1h14a1 1 0 0 1 1 1v3M3 9v6a1 1 0 0 0 1 1h5M3 9h16m0 0v1M6 12h3m12 4.5a4.5 4.5 0 1 1-9 0 4.5 4.5 0 0 1 9 0Z"/>
  </symbol>
  <symbol id="credit-card" fill="none" viewBox="0 0 24 24">
    <path stroke="currentColor" stroke-linecap="round" stroke-linejoin="round" stroke-width="2" d="M3 10h18M6 14h2m3 0h5M3 7v10a1 1 0 0 0 1 1h16a1 1 0 0 0 1-1V7a1 1 0 0 0-1-1H4a1 1 0 0 0-1 1Z"/>
  </symbol>
  <symbol id="dollar" fill="none" viewBox="0 0 24 24">
    <path stroke="currentColor" stroke-linecap="round" stroke-linejoin="round" stroke-width="2" d="M8 17.345a4.76 4.76 0 0 0 2.558 1.618c2.274.589 4.512-.446 4.999-2.31.487-1.866-1.273-3.9-3.546-4.49-2.273-.59-4.034-2.623-3.547-4.488.486-1.865 2.724-2.899 4.998-2.31.982.236 1.87.793 2.538 1.592m-3.879 12.171V21m0-18v2.2"/>
  </symbol>
  <symbol id="euro" fill="none" viewBox="0 0 24 24">
    <path stroke="currentColor" stroke-linecap="round" stroke-linejoin="round" stroke-width="2" d="M6 10h9.231M6 14h9.231M18 5.086A5.95 5.95 0 0 0 14.615 4c-3.738 0-6.769 3.582-6.769 8s3.031 8 6.769 8A5.94 5.94 0 0 0 18 18.916"/>
  </symbol>
  <symbol id="filter-dollar" fill="none" viewBox="0 0 24 24">
    <path stroke="currentColor" stroke-linecap="round" stroke-linejoin="round" stroke-width="2" d="m11.0001 18-.8536-.8536c-.0937-.0937-.1464-.2209-.1464-.3535v-4.4172c0-.2422-.08794-.4762-.24744-.6585L4.45127 5.6585C3.88551 5.01192 4.34469 4 5.20385 4H18.7547c.8658 0 1.3225 1.02544.7433 1.66896L16.5001 9m-2.5 9.3754c.3347.3615.7824.6134 1.2788.7195.4771.1584 1.0002.1405 1.464-.05.4638-.1906.8338-.5396 1.0356-.977.2462-.8286-.6363-1.7337-1.7735-1.9948-1.1372-.2611-2.016-1.1604-1.7735-1.9948.2016-.4375.5716-.7868 1.0354-.9774.4639-.1905.9871-.2082 1.4643-.0496.491.1045.9348.3517 1.2689.7067m-1.9397 5.41V20m0-8v.9771"/>
  </symbol>
  <symbol id="receipt" fill="none" viewBox="0 0 24 24">
    <path stroke="currentColor" stroke-linecap="round" stroke-linejoin="round" stroke-width="2" d="M9 8h6m-6 4h6m-6 4h6M6 3v18l2-2 2 2 2-2 2 2 2-2 2 2V3l-2 2-2-2-2 2-2-2-2 2-2-2Z"/>
  </symbol>
  <symbol id="sale-percent" fill="none" viewBox="0 0 24 24">
    <path stroke="currentColor" stroke-linecap="round" stroke-linejoin="round" stroke-width="2" d="M8.891 15.107 15.11 8.89m-5.183-.52h.01m3.089 7.254h.01M14.08 3.902a2.849 2.849 0 0 0 2.176.902 2.845 2.845 0 0 1 2.94 2.94 2.849 2.849 0 0 0 .901 2.176 2.847 2.847 0 0 1 0 4.16 2.848 2.848 0 0 0-.901 2.175 2.843 2.843 0 0 1-2.94 2.94 2.848 2.848 0 0 0-2.176.902 2.847 2.847 0 0 1-4.16 0 2.85 2.85 0 0 0-2.176-.902 2.845 2.845 0 0 1-2.94-2.94 2.848 2.848 0 0 0-.901-2.176 2.848 2.848 0 0 1 0-4.16 2.849 2.849 0 0 0 .901-2.176 2.845 2.845 0 0 1 2.941-2.94 2.849 2.849 0 0 0 2.176-.901 2.847 2.847 0 0 1 4.159 0Z"/>
  </symbol>
  <symbol id="scale-balanced" fill="none" viewBox="0 0 24 24">
    <path stroke="currentColor" stroke-linecap="round" stroke-linejoin="round" stroke-width="2" d="M5.5 21h13M12 21V7m0 0a2 2 0 1 0 0-4 2 2 0 0 0 0 4Zm2-1.8c3.073.661 2.467 2.8 5 2.8M5 8c3.359 0 2.192-2.115 5.012-2.793M7 9.556V7.75m0 1.806-1.95 4.393a.773.773 0 0 0 .37.962.785.785 0 0 0 .362.089h2.436a.785.785 0 0 0 .643-.335.776.776 0 0 0 .09-.716L7 9.556Zm10 0V7.313m0 2.243-1.95 4.393a.773.773 0 0 0 .37.962.786.786 0 0 0 .362.089h2.436a.785.785 0 0 0 .643-.335.775.775 0 0 0 .09-.716L17 9.556Z"/>
  </symbol>
  <symbol id="shopping-bag" fill="none" viewBox="0 0 24 24">
    <path stroke="currentColor" stroke-linecap="round" stroke-linejoin="round" stroke-width="2" d="M9 10V6a3 3 0 0 1 3-3v0a3 3 0 0 1 3 3v4m3-2 .917 11.923A1 1 0 0 1 17.92 21H6.08a1 1 0 0 1-.997-1.077L6 8h12Z"/>
  </symbol>
  <symbol id="store" fill="none" viewBox="0 0 24 24">
    <path stroke="currentColor" stroke-linecap="round" stroke-linejoin="round" stroke-width="2" d="M6 12c.263 0 .524-.06.767-.175a2 2 0 0 0 .65-.491c.186-.21.333-.46.433-.734.1-.274.15-.568.15-.864a2.4 2.4 0 0 0 .586 1.591c.375.422.884.659 1.414.659.53 0 1.04-.237 1.414-.659A2.4 2.4 0 0 0 12 9.736a2.4 2.4 0 0 0 .586 1.591c.375.422.884.659 1.414.659.53 0 1.04-.237 1.414-.659A2.4 2.4 0 0 0 16 9.736c0 .295.052.588.152.861s.248.521.434.73a2 2 0 0 0 .649.488 1.809 1.809 0 0 0 1.53 0 2.03 2.03 0 0 0 .65-.488c.185-.209.332-.457.433-.73.1-.273.152-.566.152-.861 0-.974-1.108-3.85-1.618-5.121A.983.983 0 0 0 17.466 4H6.456a.986.986 0 0 0-.93.645C5.045 5.962 4 8.905 4 9.736c.023.59.241 1.148.611 1.567.37.418.865.667 1.389.697Zm0 0c.328 0 .651-.091.94-.266A2.1 2.1 0 0 0 7.66 11h.681a2.1 2.1 0 0 0 .718.734c.29.175.613.266.942.266.328 0 .651-.091.94-.266.29-.174.537-.427.719-.734h.681a2.1 2.1 0 0 0 .719.734c.289.175.612.266.94.266.329 0 .652-.091.942-.266.29-.174.536-.427.718-.734h.681c.183.307.43.56.719.734.29.174.613.266.941.266a1.819 1.819 0 0 0 1.06-.351M6 12a1.766 1.766 0 0 1-1.163-.476M5 12v7a1 1 0 0 0 1 1h2v-5h3v5h7a1 1 0 0 0 1-1v-7m-5 3v2h2v-2h-2Z"/>
  </symbol>
  <symbol id="tag" fill="none" viewBox="0 0 24 24">
    <path stroke="currentColor" stroke-linecap="round" stroke-linejoin="round" stroke-width="2" d="M15.583 8.445h.01M10.86 19.71l-6.573-6.63a.993.993 0 0 1 0-1.4l7.329-7.394A.98.98 0 0 1 12.31 4l5.734.007A1.968 1.968 0 0 1 20 5.983v5.5a.992.992 0 0 1-.316.727l-7.44 7.5a.974.974 0 0 1-1.384.001Z"/>
  </symbol>
  <symbol id="user-headset" fill="none" viewBox="0 0 24 24">
    <path stroke="currentColor" stroke-linecap="round" stroke-linejoin="round" stroke-width="2" d="M14.079 6.839a3 3 0 0 0-4.255.1M13 20h1.083A3.916 3.916 0 0 0 18 16.083V9A6 6 0 1 0 6 9v7m7 4v-1a1 1 0 0 0-1-1h-1a1 1 0 0 0-1 1v1a1 1 0 0 0 1 1h1a1 1 0 0 0 1-1Zm-7-4v-6H5a2 2 0 0 0-2 2v2a2 2 0 0 0 2 2h1Zm12-6h1a2 2 0 0 1 2 2v2a2 2 0 0 1-2 2h-1v-6Z"/>
  </symbol>
  <symbol id="wallet" fill="none" viewBox="0 0 24 24">
    <path stroke="currentColor" stroke-linecap="round" stroke-linejoin="round" stroke-width="2" d="M17 8H5m12 0a1 1 0 0 1 1 1v2.6M17 8l-4-4M5 8a1 1 0 0 0-1 1v10a1 1 0 0 0 1 1h12a1 1 0 0 0 1-1v-2.6M5 8l4-4 4 4m6 4h-4a2 2 0 1 0 0 4h4a1 1 0 0 0 1-1v-2a1 1 0 0 0-1-1Z"/>
  </symbol>
</svg>