<svg xmlns="http://www.w3.org/2000/svg" xmlns:xlink="http://www.w3.org/1999/xlink">
  <symbol id="book-open-reader" fill="none" viewBox="0 0 24 24">
    <path stroke="currentColor" stroke-linejoin="round" stroke-width="2" d="M12.1429 11v9m0-9c-2.50543-.7107-3.19099-1.39543-6.13657-1.34968-.48057.00746-.86348.38718-.86348.84968v7.2884c0 .4824.41455.8682.91584.8617 2.77491-.0362 3.45995.6561 6.08421 1.3499m0-9c2.5053-.7107 3.1067-1.39542 6.0523-1.34968.4806.00746.9477.38718.9477.84968v7.2884c0 .4824-.4988.8682-1 .8617-2.775-.0362-3.3758.6561-6 1.3499m2-14c0 1.10457-.8955 2-2 2-1.1046 0-2-.89543-2-2s.8954-2 2-2c1.1045 0 2 .89543 2 2Z"/>
  </symbol>
  <symbol id="chalkboard-user" fill="none" viewBox="0 0 24 24">
    <path stroke="currentColor" stroke-linecap="round" stroke-linejoin="round" stroke-width="2" d="M14.7141 15h4.268c.4043 0 .732-.3838.732-.8571V3.85714c0-.47338-.3277-.85714-.732-.85714H6.71411c-.55228 0-1 .44772-1 1v4m10.99999 7v-3h3v3h-3Zm-3 6H6.71411c-.55228 0-1-.4477-1-1 0-1.6569 1.34315-3 3-3h2.99999c1.6569 0 3 1.3431 3 3 0 .5523-.4477 1-1 1Zm-1-9.5c0 1.3807-1.1193 2.5-2.5 2.5s-2.49999-1.1193-2.49999-2.5S8.8334 9 10.2141 9s2.5 1.1193 2.5 2.5Z"/>
  </symbol>
  <symbol id="chalkboard" fill="none" viewBox="0 0 24 24">
    <path stroke="currentColor" stroke-linecap="round" stroke-linejoin="round" stroke-width="2" d="M20 14H4m6.5 3L8 20m5.5-3 2.5 3M4.88889 17H19.1111c.4909 0 .8889-.4157.8889-.9286V4.92857C20 4.41574 19.602 4 19.1111 4H4.88889C4.39797 4 4 4.41574 4 4.92857V16.0714c0 .5129.39797.9286.88889.9286ZM13 14v-3h4v3h-4Z"/>
  </symbol>
  <symbol id="graduation-cap" fill="none" viewBox="0 0 24 24">
    <path stroke="currentColor" stroke-linecap="round" stroke-linejoin="round" stroke-width="2" d="M3.78552 9.5 12.7855 14l9-4.5-9-4.5-8.99998 4.5Zm0 0V17m3-6v6.2222c0 .3483 2 1.7778 5.99998 1.7778 4 0 6-1.3738 6-1.7778V11"/>
  </symbol>
  <symbol id="laptop-code" fill="none" viewBox="0 0 24 24">
    <path stroke="currentColor" stroke-linecap="round" stroke-linejoin="round" stroke-width="2" d="M5.35709 16V5.78571c0-.43393.34822-.78571.77777-.78571H18.5793c.4296 0 .7778.35178.7778.78571V16M5.35709 16h-1c-.55229 0-1 .4477-1 1v1c0 .5523.44771 1 1 1H20.3571c.5523 0 1-.4477 1-1v-1c0-.5523-.4477-1-1-1h-1M5.35709 16H19.3571M9.35709 8l2.62501 2.5L9.35709 13m4.00001 0h2"/>
  </symbol>
  <symbol id="laptop-file" fill="none" viewBox="0 0 24 24">
    <path stroke="currentColor" stroke-linecap="round" stroke-linejoin="round" stroke-width="2" d="M19.2857 7V5.78571c0-.43393-.3482-.78571-.7778-.78571H6.06345c-.42955 0-.77777.35178-.77777.78571V16m0 0h-1c-.55229 0-1 .4477-1 1v1c0 .5523.44771 1 1 1h5m-4-3h4m7.00002-6v3c0 .5523-.4477 1-1 1h-3m8-3v8c0 .5523-.4477 1-1 1h-6c-.5523 0-1-.4477-1-1v-5.397c0-.2536.0963-.4977.2696-.683l2.434-2.603c.189-.2022.4535-.317.7304-.317h3.566c.5523 0 1 .4477 1 1Z"/>
  </symbol>
  <symbol id="microscope" fill="none" viewBox="0 0 24 24">
    <path stroke="currentColor" stroke-linecap="round" stroke-linejoin="round" stroke-width="2" d="M5.6427 21h14M16.2928 9c.8398.95515 1.3499 2.213 1.3499 3.5912 0 2.9872-2.3962 5.4088-5.3521 5.4088-1.9895 0-3.72545-1.097-4.6479-2.7251m-2-.2749h6m.4369-4.4369L10.6427 12m5.8092-5.76698 2.1554-2.15534M17.5296 3l2.1553 2.15534M10.6427 18v3m4-3v3m.7315-15.84464-4.3107 4.31068 2.1554 2.15536 4.3107-4.3107-2.1554-2.15534Z"/>
  </symbol>
  <symbol id="person-chalkboard" fill="none" viewBox="0 0 24 24">
    <path stroke="currentColor" stroke-linecap="round" stroke-linejoin="round" stroke-width="2" d="M13.5713 5h7v9h-7m-6.00001-4-3 4.5m3-4.5v5m0-5h3.00001m0 0h5m-5 0v5m-3.00001 0h3.00001m-3.00001 0v5m3.00001-5v5m6-6 2.5 6m-3-6-2.5 6m-3-14.5c0 .82843-.67158 1.5-1.50001 1.5-.82843 0-1.5-.67157-1.5-1.5s.67157-1.5 1.5-1.5 1.50001.67157 1.50001 1.5Z"/>
  </symbol>
  <symbol id="school-alt" fill="none" viewBox="0 0 24 24">
    <path stroke="currentColor" stroke-linejoin="round" stroke-width="2" d="m7.14284 11 4.99996-6 5 6m-9.99996 0h-3v8H20.1428v-8h-3m-9.99996 0H3.14285l3-4h4.33735l-3.33736 4Zm9.99996 0h4l-3-4h-4.3374l3.3374 4Zm-3 2c0 1.1046-.8954 2-2 2-1.1045 0-2-.8954-2-2s.8955-2 2-2c1.1046 0 2 .8954 2 2Z"/>
  </symbol>
  <symbol id="school-check-alt" fill="none" viewBox="0 0 24 24">
    <path stroke="currentColor" stroke-linecap="round" stroke-linejoin="round" stroke-width="2" d="m7.28567 11 5.00003-6 5 6M7.28567 11h-3v8h8.00003m-5.00003-8H3.28568l3-4h4.33742l-3.33743 4Zm10.00003 0h3v1m-3-1h4l-3-4h-4.3374l3.3374 4Zm-2 6 2 2 4-4m-7-2c0 1.1046-.8955 2-2 2-1.1046 0-2-.8954-2-2s.8954-2 2-2c1.1045 0 2 .8954 2 2Z"/>
  </symbol>
  <symbol id="school-check" fill="none" viewBox="0 0 24 24">
    <path stroke="currentColor" stroke-linecap="round" stroke-linejoin="round" stroke-width="2" d="M8.14294 20v-9l-4 1.125V20h4Zm0 0V6.66667m0 13.33333h2.99996m5-9V6.66667m0 4.33333 4 1.125V13m-4-2v3m2-6-6-4-5.99996 4m4.99996 1h2m-2 3h2m1 6 2 2 4-4"/>
  </symbol>
  <symbol id="school-exclamation-alt" fill="none" viewBox="0 0 24 24">
    <path stroke="currentColor" stroke-linecap="round" stroke-linejoin="round" stroke-width="2" d="M17.4999 19H4.49988v-8h3m0 0 5.00002-6 5 6M7.49988 11H3.49989l3-4h4.33741l-3.33742 4Zm13.00002 8h.01m-.01-3v-3m-6.3374-6h4.3374l2 2.5m-6 3.5c0 1.1046-.8955 2-2 2-1.1046 0-2-.8954-2-2s.8954-2 2-2c1.1045 0 2 .8954 2 2Z"/>
  </symbol>
  <symbol id="school-exclamation" fill="none" viewBox="0 0 24 24">
    <path stroke="currentColor" stroke-linecap="round" stroke-linejoin="round" stroke-width="2" d="M8.07144 20v-9l-4 1.125V20h4Zm0 0h7.99996m-7.99996 0V6.66667M16.0714 20v-9l1.5.4219M16.0714 20h1m-1 0V6.66667m2 1.33333-6-4-5.99996 4m4.99996 1h2m-2 3h2m7 8h.01m-.01-3v-4"/>
  </symbol>
  <symbol id="school-flag-alt" fill="none" viewBox="0 0 24 24">
    <path stroke="currentColor" stroke-linecap="round" stroke-linejoin="round" stroke-width="2" d="m7.4285 11 5-6 5 6m-10 0h-3v8h16v-8h-3m-10 0H3.42851l3-4h4.33739l-3.3374 4Zm10 0V7.5m-3 5.5c0 1.1046-.8954 2-2 2s-2-.8954-2-2 .8954-2 2-2 2 .8954 2 2Zm3-8v3h4V5h-4Z"/>
  </symbol>
  <symbol id="school-flag" fill="none" viewBox="0 0 24 24">
    <path stroke="currentColor" stroke-linecap="round" stroke-linejoin="round" stroke-width="2" d="M8 20v-9l-4 1.125V20h4Zm0 0h8m-8 0V6.66667M16 20v-9l4 1.125V20h-4Zm0 0V7m0 0V4h4v3h-4ZM6 8l6-4 4 2.66667M11 9h2m-2 3h2"/>
  </symbol>
  <symbol id="school-lock-alt" fill="none" viewBox="0 0 24 24">
    <path stroke="currentColor" stroke-linecap="round" stroke-linejoin="round" stroke-width="2" d="m7.35709 11 5.00001-6 3.3333 4m-8.33331 2h-3v8h7.00001m-4.00001-8H3.3571l3-4h4.3374l-3.33741 4Zm8.33131-2-1.6687-2h4.3374l1.5 2m-8.3237 5.8976c-1.0239-.4146-1.5178-1.5806-1.1032-2.6044.4146-1.0239 1.5806-1.5178 2.6044-1.1032M16.3571 15v-2.5c0-.8284.6716-1.5 1.5-1.5s1.5.6716 1.5 1.5V15m-4 0h5c.5523 0 1 .4477 1 1v2c0 .5523-.4477 1-1 1h-5c-.5523 0-1-.4477-1-1v-2c0-.5523.4477-1 1-1Z"/>
  </symbol>
  <symbol id="school-lock" fill="none" viewBox="0 0 24 24">
    <path stroke="currentColor" stroke-linecap="round" stroke-linejoin="round" stroke-width="2" d="M8.21448 20v-9l-4 1.125V20h4Zm0 0V6.66667m0 13.33333h2.00002m6-11V6.66667m2 1.33333-6-4-6.00002 4m5.00002 1h2m-2 3h1m3 4v-2.5c0-.8284.6716-1.5 1.5-1.5s1.5.6716 1.5 1.5V16m-4 0h5c.5523 0 1 .4477 1 1v2c0 .5523-.4477 1-1 1h-5c-.5523 0-1-.4477-1-1v-2c0-.5523.4477-1 1-1Z"/>
  </symbol>
  <symbol id="school-xmark-alt" fill="none" viewBox="0 0 24 24">
    <path stroke="currentColor" stroke-linecap="round" stroke-linejoin="round" stroke-width="2" d="m16.9757 15.4642 1.7677 1.7678m0 0 1.7678 1.7678m-1.7678-1.7678-1.7677 1.7678m1.7677-1.7678 1.7678-1.7678M7.21425 11l5.00005-6 5 6M7.21425 11h-3v8H13.294m-6.07975-8H3.21426l3-4h4.33744l-3.33745 4Zm10.00005 0h3v1.5574m-3-1.5574h3.9999l-3-4h-4.3373l3.3374 4Zm-3 2c0 1.1046-.8955 2-2 2-1.1046 0-2-.8954-2-2s.8954-2 2-2c1.1045 0 2 .8954 2 2Z"/>
  </symbol>
  <symbol id="school-xmark" fill="none" viewBox="0 0 24 24">
    <path stroke="currentColor" stroke-linecap="round" stroke-linejoin="round" stroke-width="2" d="M8.07141 20v-9l-4 1.125V20h4Zm0 0V6.66667m0 13.33333h3.99999m4-9V6.66667m0 4.33333 4 1.125V13m-4-2v2m2-5-6-4-5.99999 4m4.99999 1h2m-2 3h2m3.0148 4.4087 1.7678 1.7678m0 0 1.7678 1.7677m-1.7678-1.7677-1.7678 1.7677m1.7678-1.7677 1.7678-1.7678"/>
  </symbol>
  <symbol id="school" fill="none" viewBox="0 0 24 24">
    <path stroke="currentColor" stroke-linecap="round" stroke-linejoin="round" stroke-width="2" d="M8 20v-9l-4 1.125V20h4Zm0 0h8m-8 0V6.66667M16 20v-9l4 1.125V20h-4Zm0 0V6.66667M18 8l-6-4-6 4m5 1h2m-2 3h2"/>
  </symbol>
  <symbol id="shapes" fill="none" viewBox="0 0 24 24">
    <path stroke="currentColor" stroke-linejoin="round" stroke-width="2" d="M4.07141 14v6h5.99999v-6H4.07141Zm4.5-4h6.99999l-3.5-6-3.49999 6Zm7.99999 10c1.933 0 3.5-1.567 3.5-3.5s-1.567-3.5-3.5-3.5-3.5 1.567-3.5 3.5 1.567 3.5 3.5 3.5Z"/>
  </symbol>
  <symbol id="theatre" fill="none" viewBox="0 0 24 24">
    <path stroke="currentColor" stroke-linecap="round" stroke-width="2" d="m7.53316 11.8623.00957-.0029m5.58157 7.1424c-.5.515-.9195.8473-1.0611.8903-.4784.1454-5.42881-1.2797-6.23759-3.3305-.80878-2.0507-1.83058-5.8152-1.88967-6.2192-.0591-.40404 1.5599-1.72424 3.59722-2.61073m1.98839 8.05513c-.22637.262-.38955.5599-.55552.8474M13.4999 12c.5.5 1 1.049 2 1.049s1.5-.549 2-1.049m-4-4h.01m3.99 0h.01m-7.01-2.5c0-.28929 2.5-1.5 5-1.5s5 1.13645 5 1.5V12c0 1.9655-4.291 5-5 5-.7432 0-5-3.0345-5-5V5.5Z"/>
  </symbol>
  <symbol id="user-graduate" fill="none" viewBox="0 0 24 24">
    <path stroke="currentColor" stroke-linecap="round" stroke-linejoin="round" stroke-width="2" d="M14.6144 7.19994c.3479.48981.5999 1.15357.5999 1.80006 0 1.6569-1.3432 3-3 3-1.6569 0-3.00004-1.3431-3.00004-3 0-.67539.22319-1.29865.59983-1.80006M6.21426 6v4m0-4 6.00004-3 6 3-6 2-2.40021-.80006M6.21426 6l3.59983 1.19994M6.21426 19.8013v-2.1525c0-1.6825 1.27251-3.3075 2.95093-3.6488l3.04911 2.9345 3-2.9441c1.7026.3193 3 1.9596 3 3.6584v2.1525c0 .6312-.5373 1.1429-1.2 1.1429H7.41426c-.66274 0-1.2-.5117-1.2-1.1429Z"/>
  </symbol>
</svg>