<svg xmlns="http://www.w3.org/2000/svg" xmlns:xlink="http://www.w3.org/1999/xlink">
  <symbol id="archive-arrow-down" fill="none" viewBox="0 0 24 24">
    <path stroke="currentColor" stroke-linecap="round" stroke-linejoin="round" stroke-width="2" d="M12 11v5m0 0 2-2m-2 2-2-2M3 6v1a1 1 0 0 0 1 1h16a1 1 0 0 0 1-1V6a1 1 0 0 0-1-1H4a1 1 0 0 0-1 1Zm2 2v10a1 1 0 0 0 1 1h12a1 1 0 0 0 1-1V8H5Z"/>
  </symbol>
  <symbol id="clipboard-check" fill="none" viewBox="0 0 24 24">
    <path stroke="currentColor" stroke-linecap="round" stroke-linejoin="round" stroke-width="2" d="M15 4h3a1 1 0 0 1 1 1v15a1 1 0 0 1-1 1H6a1 1 0 0 1-1-1V5a1 1 0 0 1 1-1h3m0 3h6m-6 7 2 2 4-4m-5-9v4h4V3h-4Z"/>
  </symbol>
  <symbol id="clipboard-clean" fill="none" viewBox="0 0 24 24">
    <path stroke="currentColor" stroke-linecap="round" stroke-linejoin="round" stroke-width="2" d="M15 4h3a1 1 0 0 1 1 1v15a1 1 0 0 1-1 1H6a1 1 0 0 1-1-1V5a1 1 0 0 1 1-1h3m0 3h6m-5-4v4h4V3h-4Z"/>
  </symbol>
  <symbol id="clipboard-list" fill="none" viewBox="0 0 24 24">
    <path stroke="currentColor" stroke-linecap="round" stroke-linejoin="round" stroke-width="2" d="M15 4h3a1 1 0 0 1 1 1v15a1 1 0 0 1-1 1H6a1 1 0 0 1-1-1V5a1 1 0 0 1 1-1h3m0 3h6m-3 5h3m-6 0h.01M12 16h3m-6 0h.01M10 3v4h4V3h-4Z"/>
  </symbol>
  <symbol id="clipboard" fill="none" viewBox="0 0 24 24">
    <path stroke="currentColor" stroke-linecap="round" stroke-linejoin="round" stroke-width="2" d="M15 4h3a1 1 0 0 1 1 1v15a1 1 0 0 1-1 1H6a1 1 0 0 1-1-1V5a1 1 0 0 1 1-1h3m0 3h6m-6 5h6m-6 4h6M10 3v4h4V3h-4Z"/>
  </symbol>
  <symbol id="file-chart-bar" fill="none" viewBox="0 0 24 24">
    <path stroke="currentColor" stroke-linecap="round" stroke-linejoin="round" stroke-width="2" d="M10 3v4a1 1 0 0 1-1 1H5m4 10v-2m3 2v-6m3 6v-3m4-11v16a1 1 0 0 1-1 1H6a1 1 0 0 1-1-1V7.914a1 1 0 0 1 .293-.707l3.914-3.914A1 1 0 0 1 9.914 3H18a1 1 0 0 1 1 1Z"/>
  </symbol>
  <symbol id="file-check" fill="none" viewBox="0 0 24 24">
    <path stroke="currentColor" stroke-linecap="round" stroke-linejoin="round" stroke-width="2" d="M10 3v4a1 1 0 0 1-1 1H5m4 6 2 2 4-4m4-8v16a1 1 0 0 1-1 1H6a1 1 0 0 1-1-1V7.914a1 1 0 0 1 .293-.707l3.914-3.914A1 1 0 0 1 9.914 3H18a1 1 0 0 1 1 1Z"/>
  </symbol>
  <symbol id="file-circle-plus" fill="none" viewBox="0 0 24 24">
    <path stroke="currentColor" stroke-linecap="round" stroke-linejoin="round" stroke-width="2" d="M18 9V4a1 1 0 0 0-1-1H8.914a1 1 0 0 0-.707.293L4.293 7.207A1 1 0 0 0 4 7.914V20a1 1 0 0 0 1 1h4M9 3v4a1 1 0 0 1-1 1H4m11 6v4m-2-2h4m3 0a5 5 0 1 1-10 0 5 5 0 0 1 10 0Z"/>
  </symbol>
  <symbol id="file-clone" fill="none" viewBox="0 0 24 24">
    <path stroke="currentColor" stroke-linejoin="round" stroke-width="2" d="M15 4v3a1 1 0 0 1-1 1h-3m2 10v1a1 1 0 0 1-1 1H5a1 1 0 0 1-1-1v-7.13a1 1 0 0 1 .24-.65L6.7 8.35A1 1 0 0 1 7.46 8H9m-1 4H4m16-7v10a1 1 0 0 1-1 1h-7a1 1 0 0 1-1-1V7.87a1 1 0 0 1 .24-.65l2.46-2.87a1 1 0 0 1 .76-.35H19a1 1 0 0 1 1 1Z"/>
  </symbol>
  <symbol id="file-code" fill="none" viewBox="0 0 24 24">
    <path stroke="currentColor" stroke-linecap="round" stroke-linejoin="round" stroke-width="2" d="M10 3v4a1 1 0 0 1-1 1H5m5 4-2 2 2 2m4-4 2 2-2 2m5-12v16a1 1 0 0 1-1 1H6a1 1 0 0 1-1-1V7.914a1 1 0 0 1 .293-.707l3.914-3.914A1 1 0 0 1 9.914 3H18a1 1 0 0 1 1 1Z"/>
  </symbol>
  <symbol id="file-copy-alt" fill="none" viewBox="0 0 24 24">
    <path stroke="currentColor" stroke-linejoin="round" stroke-width="2" d="M14 4v3a1 1 0 0 1-1 1h-3m4 10v1a1 1 0 0 1-1 1H6a1 1 0 0 1-1-1V9a1 1 0 0 1 1-1h2m11-3v10a1 1 0 0 1-1 1h-7a1 1 0 0 1-1-1V7.87a1 1 0 0 1 .24-.65l2.46-2.87a1 1 0 0 1 .76-.35H18a1 1 0 0 1 1 1Z"/>
  </symbol>
  <symbol id="file-copy" fill="none" viewBox="0 0 24 24">
    <path stroke="currentColor" stroke-linejoin="round" stroke-width="2" d="M9 8v3a1 1 0 0 1-1 1H5m11 4h2a1 1 0 0 0 1-1V5a1 1 0 0 0-1-1h-7a1 1 0 0 0-1 1v1m4 3v10a1 1 0 0 1-1 1H6a1 1 0 0 1-1-1v-7.13a1 1 0 0 1 .24-.65L7.7 8.35A1 1 0 0 1 8.46 8H13a1 1 0 0 1 1 1Z"/>
  </symbol>
  <symbol id="file-csv" fill="none" viewBox="0 0 24 24">
    <path stroke="currentColor" stroke-linecap="round" stroke-linejoin="round" stroke-width="2" d="M5 10V7.914a1 1 0 0 1 .293-.707l3.914-3.914A1 1 0 0 1 9.914 3H18a1 1 0 0 1 1 1v6M5 19v1a1 1 0 0 0 1 1h12a1 1 0 0 0 1-1v-1M10 3v4a1 1 0 0 1-1 1H5m2.665 9H6.647A1.647 1.647 0 0 1 5 15.353v-1.706A1.647 1.647 0 0 1 6.647 12h1.018M16 12l1.443 4.773L19 12m-6.057-.152-.943-.02a1.34 1.34 0 0 0-1.359 1.22 1.32 1.32 0 0 0 1.172 1.421l.536.059a1.273 1.273 0 0 1 1.226 1.718c-.2.571-.636.754-1.337.754h-1.13"/>
  </symbol>
  <symbol id="file-doc" fill="none" viewBox="0 0 24 24">
    <path stroke="currentColor" stroke-linecap="round" stroke-linejoin="round" stroke-width="2" d="M5 10V7.914a1 1 0 0 1 .293-.707l3.914-3.914A1 1 0 0 1 9.914 3H18a1 1 0 0 1 1 1v6M5 19v1a1 1 0 0 0 1 1h12a1 1 0 0 0 1-1v-1M10 3v4a1 1 0 0 1-1 1H5m14 9.006h-.335a1.647 1.647 0 0 1-1.647-1.647v-1.706a1.647 1.647 0 0 1 1.647-1.647L19 12M5 12v5h1.375A1.626 1.626 0 0 0 8 15.375v-1.75A1.626 1.626 0 0 0 6.375 12H5Zm9 1.5v2a1.5 1.5 0 0 1-1.5 1.5v0a1.5 1.5 0 0 1-1.5-1.5v-2a1.5 1.5 0 0 1 1.5-1.5v0a1.5 1.5 0 0 1 1.5 1.5Z"/>
  </symbol>
  <symbol id="file-export" fill="none" viewBox="0 0 24 24">
    <path stroke="currentColor" stroke-linecap="round" stroke-linejoin="round" stroke-width="2" d="M19 10V4a1 1 0 0 0-1-1H9.914a1 1 0 0 0-.707.293L5.293 7.207A1 1 0 0 0 5 7.914V20a1 1 0 0 0 1 1h12a1 1 0 0 0 1-1v-2M10 3v4a1 1 0 0 1-1 1H5m5 6h9m0 0-2-2m2 2-2 2"/>
  </symbol>
  <symbol id="file-image" fill="none" viewBox="0 0 24 24">
    <path fill="currentColor" d="M16 18H8l2.5-6 2 4 1.5-2 2 4Zm-1-8.5a.5.5 0 1 1-1 0 .5.5 0 0 1 1 0Z"/>
    <path stroke="currentColor" stroke-linecap="round" stroke-linejoin="round" stroke-width="2" d="M10 3v4a1 1 0 0 1-1 1H5m14-4v16a1 1 0 0 1-1 1H6a1 1 0 0 1-1-1V7.914a1 1 0 0 1 .293-.707l3.914-3.914A1 1 0 0 1 9.914 3H18a1 1 0 0 1 1 1ZM8 18h8l-2-4-1.5 2-2-4L8 18Zm7-8.5a.5.5 0 1 1-1 0 .5.5 0 0 1 1 0Z"/>
  </symbol>
  <symbol id="file-import" fill="none" viewBox="0 0 24 24">
    <path stroke="currentColor" stroke-linecap="round" stroke-linejoin="round" stroke-width="2" d="M5 12V7.914a1 1 0 0 1 .293-.707l3.914-3.914A1 1 0 0 1 9.914 3H18a1 1 0 0 1 1 1v16a1 1 0 0 1-1 1H6a1 1 0 0 1-1-1v-4m5-13v4a1 1 0 0 1-1 1H5m0 6h9m0 0-2-2m2 2-2 2"/>
  </symbol>
  <symbol id="file-invoice" fill="none" viewBox="0 0 24 24">
    <path stroke="currentColor" stroke-linecap="round" stroke-linejoin="round" stroke-width="2" d="M10 3v4a1 1 0 0 1-1 1H5m8-2h3m-3 3h3m-4 3v6m4-3H8M19 4v16a1 1 0 0 1-1 1H6a1 1 0 0 1-1-1V7.914a1 1 0 0 1 .293-.707l3.914-3.914A1 1 0 0 1 9.914 3H18a1 1 0 0 1 1 1ZM8 12v6h8v-6H8Z"/>
  </symbol>
  <symbol id="file-lines" fill="none" viewBox="0 0 24 24">
    <path stroke="currentColor" stroke-linecap="round" stroke-linejoin="round" stroke-width="2" d="M10 3v4a1 1 0 0 1-1 1H5m4 8h6m-6-4h6m4-8v16a1 1 0 0 1-1 1H6a1 1 0 0 1-1-1V7.914a1 1 0 0 1 .293-.707l3.914-3.914A1 1 0 0 1 9.914 3H18a1 1 0 0 1 1 1Z"/>
  </symbol>
  <symbol id="file-music" fill="none" viewBox="0 0 24 24">
    <path stroke="currentColor" stroke-linecap="round" stroke-linejoin="round" stroke-width="2" d="M10 3v4a1 1 0 0 1-1 1H5m8 7.5V8s3 1 3 4m3-8v16a1 1 0 0 1-1 1H6a1 1 0 0 1-1-1V7.914a1 1 0 0 1 .293-.707l3.914-3.914A1 1 0 0 1 9.914 3H18a1 1 0 0 1 1 1Zm-6 12c0 1.105-1.12 2-2.5 2S8 17.105 8 16s1.12-2 2.5-2 2.5.895 2.5 2Z"/>
  </symbol>
  <symbol id="file-paste" fill="none" viewBox="0 0 24 24">
    <path stroke="currentColor" stroke-linecap="round" stroke-linejoin="round" stroke-width="2" d="M9 20H5a1 1 0 0 1-1-1V6a1 1 0 0 1 1-1h2.429M7 8h3M8 8V4h4v2m4 0V5h-4m3 4v3a1 1 0 0 1-1 1h-3m9-3v9a1 1 0 0 1-1 1h-7a1 1 0 0 1-1-1v-6.397a1 1 0 0 1 .27-.683l2.434-2.603a1 1 0 0 1 .73-.317H19a1 1 0 0 1 1 1Z"/>
  </symbol>
  <symbol id="file-pdf" fill="none" viewBox="0 0 24 24">
    <path stroke="currentColor" stroke-linecap="round" stroke-linejoin="round" stroke-width="2" d="M5 17v-5h1.5a1.5 1.5 0 1 1 0 3H5m12 2v-5h2m-2 3h2M5 10V7.914a1 1 0 0 1 .293-.707l3.914-3.914A1 1 0 0 1 9.914 3H18a1 1 0 0 1 1 1v6M5 19v1a1 1 0 0 0 1 1h12a1 1 0 0 0 1-1v-1M10 3v4a1 1 0 0 1-1 1H5m6 4v5h1.375A1.627 1.627 0 0 0 14 15.375v-1.75A1.627 1.627 0 0 0 12.375 12H11Z"/>
  </symbol>
  <symbol id="file-pen" fill="none" viewBox="0 0 24 24">
    <path stroke="currentColor" stroke-linecap="round" stroke-linejoin="round" stroke-width="2" d="M18 5V4a1 1 0 0 0-1-1H8.914a1 1 0 0 0-.707.293L4.293 7.207A1 1 0 0 0 4 7.914V20a1 1 0 0 0 1 1h12a1 1 0 0 0 1-1v-5M9 3v4a1 1 0 0 1-1 1H4m11.383.772 2.745 2.746m1.215-3.906a2.089 2.089 0 0 1 0 2.953l-6.65 6.646L9 17.95l.739-3.692 6.646-6.646a2.087 2.087 0 0 1 2.958 0Z"/>
  </symbol>
  <symbol id="file-ppt" fill="none" viewBox="0 0 24 24">
    <path stroke="currentColor" stroke-linecap="round" stroke-linejoin="round" stroke-width="2" d="M5 17v-5h1.5a1.5 1.5 0 1 1 0 3H5m6 2v-5h1.5a1.5 1.5 0 1 1 0 3H11m7-3v5m-1-5h2M5 10V7.914a1 1 0 0 1 .293-.707l3.914-3.914A1 1 0 0 1 9.914 3H18a1 1 0 0 1 1 1v6M5 19v1a1 1 0 0 0 1 1h12a1 1 0 0 0 1-1v-1M10 3v4a1 1 0 0 1-1 1H5"/>
  </symbol>
  <symbol id="file-search" fill="none" viewBox="0 0 24 24">
    <path stroke="currentColor" stroke-linecap="round" stroke-linejoin="round" stroke-width="2" d="M10 3v4a1 1 0 0 1-1 1H5m8 7.5 2.5 2.5M19 4v16a1 1 0 0 1-1 1H6a1 1 0 0 1-1-1V7.914a1 1 0 0 1 .293-.707l3.914-3.914A1 1 0 0 1 9.914 3H18a1 1 0 0 1 1 1Zm-5 9.5a2.5 2.5 0 1 1-5 0 2.5 2.5 0 0 1 5 0Z"/>
  </symbol>
  <symbol id="file-shield" fill="none" viewBox="0 0 24 24">
    <path stroke="currentColor" stroke-linecap="round" stroke-linejoin="round" stroke-width="2" d="M18 9V4a1 1 0 0 0-1-1H8.914a1 1 0 0 0-.707.293L4.293 7.207A1 1 0 0 0 4 7.914V20a1 1 0 0 0 1 1h6M9 3v4a1 1 0 0 1-1 1H4m11 13a11.426 11.426 0 0 1-3.637-3.99A11.139 11.139 0 0 1 10 11.833L15 10l5 1.833a11.137 11.137 0 0 1-1.363 5.176A11.425 11.425 0 0 1 15.001 21Z"/>
  </symbol>
  <symbol id="file-video" fill="none" viewBox="0 0 24 24">
    <path stroke="currentColor" stroke-linejoin="round" stroke-width="2" d="M10 3v4a1 1 0 0 1-1 1H5m14-4v16a1 1 0 0 1-1 1H6a1 1 0 0 1-1-1V7.914a1 1 0 0 1 .293-.707l3.914-3.914A1 1 0 0 1 9.914 3H18a1 1 0 0 1 1 1ZM9 12h2a1 1 0 0 1 1 1v2a1 1 0 0 1-1 1H9a1 1 0 0 1-1-1v-2a1 1 0 0 1 1-1Zm5.697 2.395v-.733l1.269-1.219v2.984l-1.268-1.032Z"/>
  </symbol>
  <symbol id="file-word" fill="none" viewBox="0 0 24 24">
    <path stroke="currentColor" stroke-linecap="round" stroke-linejoin="round" stroke-width="2" d="M10 3v4a1 1 0 0 1-1 1H5m4 4 1 5 2-3.333L14 17l1-5m4-8v16a1 1 0 0 1-1 1H6a1 1 0 0 1-1-1V7.914a1 1 0 0 1 .293-.707l3.914-3.914A1 1 0 0 1 9.914 3H18a1 1 0 0 1 1 1Z"/>
  </symbol>
  <symbol id="file-zip" fill="none" viewBox="0 0 24 24">
    <path stroke="currentColor" stroke-linecap="round" stroke-width="2" d="M10 3v4a1 1 0 0 1-1 1H5m14-4v16a1 1 0 0 1-1 1H6a1 1 0 0 1-1-1V7.914a1 1 0 0 1 .293-.707l3.914-3.914A1 1 0 0 1 9.914 3H18a1 1 0 0 1 1 1Zm-4 1h.01v.01H15V5Zm-2 2h.01v.01H13V7Zm2 2h.01v.01H15V9Zm-2 2h.01v.01H13V11Zm2 2h.01v.01H15V13Zm-2 2h.01v.01H13V15Zm2 2h.01v.01H15V17Zm-2 2h.01v.01H13V19Z"/>
  </symbol>
  <symbol id="file" fill="none" viewBox="0 0 24 24">
    <path stroke="currentColor" stroke-linejoin="round" stroke-width="2" d="M10 3v4a1 1 0 0 1-1 1H5m14-4v16a1 1 0 0 1-1 1H6a1 1 0 0 1-1-1V7.914a1 1 0 0 1 .293-.707l3.914-3.914A1 1 0 0 1 9.914 3H18a1 1 0 0 1 1 1Z"/>
  </symbol>
  <symbol id="folder-arrow-right" fill="none" viewBox="0 0 24 24">
    <path stroke="currentColor" stroke-linecap="round" stroke-linejoin="round" stroke-width="2" d="M13.5 8H4m4 6h8m0 0-2-2m2 2-2 2M4 6v13a1 1 0 0 0 1 1h14a1 1 0 0 0 1-1V9a1 1 0 0 0-1-1h-5.032a1 1 0 0 1-.768-.36l-1.9-2.28a1 1 0 0 0-.768-.36H5a1 1 0 0 0-1 1Z"/>
  </symbol>
  <symbol id="folder-duplicate" fill="none" viewBox="0 0 24 24">
    <path stroke="currentColor" stroke-linecap="round" stroke-linejoin="round" stroke-width="2" d="M12 11H4m15.5 5a.5.5 0 0 0 .5-.5V8a1 1 0 0 0-1-1h-3.75a1 1 0 0 1-.829-.44l-1.436-2.12a1 1 0 0 0-.828-.44H8a1 1 0 0 0-1 1M4 9v10a1 1 0 0 0 1 1h11a1 1 0 0 0 1-1v-7a1 1 0 0 0-1-1h-3.75a1 1 0 0 1-.829-.44L9.985 8.44A1 1 0 0 0 9.157 8H5a1 1 0 0 0-1 1Z"/>
  </symbol>
  <symbol id="folder-open" fill="none" viewBox="0 0 24 24">
    <path stroke="currentColor" stroke-linecap="round" stroke-linejoin="round" stroke-width="2" d="M3 19V6a1 1 0 0 1 1-1h4.032a1 1 0 0 1 .768.36l1.9 2.28a1 1 0 0 0 .768.36H16a1 1 0 0 1 1 1v1M3 19l3-8h15l-3 8H3Z"/>
  </symbol>
  <symbol id="folder-plus" fill="none" viewBox="0 0 24 24">
    <path stroke="currentColor" stroke-linecap="round" stroke-linejoin="round" stroke-width="2" d="M14 8H4m8 3.5v5M9.5 14h5M4 6v13a1 1 0 0 0 1 1h14a1 1 0 0 0 1-1V9a1 1 0 0 0-1-1h-5.032a1 1 0 0 1-.768-.36l-1.9-2.28a1 1 0 0 0-.768-.36H5a1 1 0 0 0-1 1Z"/>
  </symbol>
  <symbol id="folder" fill="none" viewBox="0 0 24 24">
    <path stroke="currentColor" stroke-linecap="round" stroke-linejoin="round" stroke-width="2" d="M13.5 8H4m0-2v13a1 1 0 0 0 1 1h14a1 1 0 0 0 1-1V9a1 1 0 0 0-1-1h-5.032a1 1 0 0 1-.768-.36l-1.9-2.28a1 1 0 0 0-.768-.36H5a1 1 0 0 0-1 1Z"/>
  </symbol>
</svg>