<svg xmlns="http://www.w3.org/2000/svg" xmlns:xlink="http://www.w3.org/1999/xlink">
  <symbol id="apple-full" fill="none" viewBox="0 0 24 24">
    <path stroke="currentColor" stroke-linecap="round" stroke-linejoin="round" stroke-width="2" d="M12 10.0419c-1.3902 0-1.3935-1.1249-4.20643-1.037-1.73056.05408-3.15551 2.2303-2.71168 5.3081C5.35949 16.2381 6.98619 21 8.99172 21c2.00548 0 2.07358-.8508 3.00828-.8508.9347 0 .8551.8508 3.0083.8508s3.6322-4.7619 3.9098-6.687c.4438-3.0778-.9811-5.25402-2.7117-5.3081-2.8129-.0879-2.8162 1.037-4.2064 1.037Zm2.3598-4.2126c-.8779.74829-1.8612.71957-2.7221.71957 0-.62576.0792-1.94012.8609-2.76911.7817-.82898 2.1271-.7664 2.6434-.7664 0 .59448.0956 2.06766-.7822 2.81594Z"/>
  </symbol>
  <symbol id="bacon" fill="none" viewBox="0 0 24 24">
    <path stroke="currentColor" stroke-linecap="round" stroke-linejoin="round" stroke-miterlimit="10" stroke-width="2" d="M7.42584 18.2443c1.3169-2.2023 2.5334-1.5242 3.85026-3.7265 1.3169-2.2023.1004-2.8805 1.4173-5.08281 1.3169-2.20233 2.5335-1.52419 3.8504-3.72652M10.8472 20.1517c1.3169-2.2024 2.5334-1.5242 3.8503-3.7266 1.3169-2.2023.1004-2.8804 1.4173-5.0828 1.3169-2.20228 2.5334-1.52414 3.8503-3.72647l-6.8428-3.81455C11.8054 6.00361 10.5889 5.32547 9.272 7.5278s-.1004 2.8805-1.4173 5.0828c-1.3169 2.2023-2.5334 1.5242-3.85031 3.7265l6.84281 3.8146Z"/>
  </symbol>
  <symbol id="beer-mug-empty" fill="none" viewBox="0 0 24 24">
    <path stroke="currentColor" stroke-linecap="round" stroke-linejoin="round" stroke-width="2" d="M16.125 6H20v3.85927c0 1.33743-.6684 2.58633-1.7812 3.32823l-1.5791 1.0468M4.18754 17H16.8125M9.00004 7v7M12 7v7M4.94144 4.93762l-.875 13.99998C4.03046 19.5133 4.48767 20 5.06449 20H15.9356c.5768 0 1.034-.4867.998-1.0624l-.875-13.99998C16.0257 4.41059 15.5887 4 15.0606 4H5.93949c-.52806 0-.96511.41059-.99805.93762Z"/>
  </symbol>
  <symbol id="bone" fill="none" viewBox="0 0 24 24">
    <path stroke="currentColor" stroke-linecap="round" stroke-linejoin="round" stroke-miterlimit="10" stroke-width="2" d="M16.8879 7.11205c.1788-.77492-.1192-1.66905-.7153-2.26515-1.0133-1.01335-2.5632-1.01335-3.5765 0-1.0134 1.01336-1.0134 2.5632 0 3.57655L8.42342 12.5961c-1.01336-1.0134-2.5632-1.0134-3.57655 0-1.01336 1.0133-1.01336 2.5632 0 3.5765.59609.5961 1.49023.8942 2.26515.7154-.17883.7749.11921 1.669.71531 2.2651 1.01335 1.0134 2.56317 1.0134 3.57657 0 1.0133-1.0134 1.0133-2.5632 0-3.5765l4.1726-4.1727c1.0134 1.0134 2.5632 1.0134 3.5766 0 1.0133-1.0133 1.0133-2.56318 0-3.57654-.5961-.59609-1.4903-.89414-2.2652-.71531Z"/>
  </symbol>
  <symbol id="bowl-food" fill="none" viewBox="0 0 24 24">
    <path stroke="currentColor" stroke-linecap="round" stroke-linejoin="round" stroke-width="2" d="M18.011 13H20c-.367 2.5551-2.32 4.6825-4.9766 5.6162V20H8.97661v-1.3838C6.31996 17.6825 4.36697 15.5551 4 13h14.011Zm0 0c1.0995-.0059 1.989-.8991 1.989-2 0-.8637-.5475-1.59948-1.3143-1.87934M18.011 13H18m0-3.99997c.2409 0 .4718.04258.6857.12063m0 0c.8367-1.0335.7533-2.67022-.2802-3.50694-1.0335-.83672-2.5496-.6772-3.3864.35631-.293-1.50236-1.7485-2.15377-3.2509-1.8607-1.5023.29308-2.48263 1.74856-2.18956 3.25092C8.9805 6.17263 7.6182 5.26418 6.15462 6.00131 4.967 6.59945 4.45094 8.19239 5.04909 9.38002m0 0C4.37083 9.66467 4 10.3357 4 11.1174 4 12.1571 4.84288 13 5.88263 13m-.83354-3.61998c.2866-.12029 1.09613-.40074 2.04494.3418m5.27497-.89091c1.0047-.4589 2.1913-.01641 2.6502.98832"/>
  </symbol>
  <symbol id="bowl-rice" fill="none" viewBox="0 0 24 24">
    <path stroke="currentColor" stroke-linecap="round" stroke-linejoin="round" stroke-width="2" d="M17 9.99999h.01m-5.01 0h.01m-5.01 0h.01m6.99-2h.01m-4.01 0h.01M6.5 13C5.11929 13 4 11.5609 4 9.78571c0-1.51294.45014-3.74021 2.96705-3.45229 0-2.59313 4.39355-3.02689 5.16885-1.10126.5-.64286 1.5465-1.20611 2.5405-1.09637 1.2588.13899 2.0504 1.03413 2.2104 2.19763 1.7674 0 3.3338 1.31661 3.1132 3.45229C20 11.5609 18.8807 13 17.5 13m-8.52339 5.6162V20h6.04679v-1.3838C17.68 17.6825 19.633 15.5551 20 13H4c.36697 2.5551 2.31996 4.6825 4.97661 5.6162Z"/>
  </symbol>
  <symbol id="bread-slice" fill="none" viewBox="0 0 24 24">
    <path stroke="currentColor" stroke-linecap="round" stroke-linejoin="round" stroke-width="2" d="M6 19v-9c-1.5 0-2-1.5-2-2.49997 0-.99997.5-2 2-2.50003 2.36416-.64329 4.2009-.97557 6-.98904 1.7991.01347 3.6358.34575 6 .98904 1.5.50003 2 1.50006 2 2.50003C20 8.5 19.5 10 18 10v9c0 .5523-.4477 1-1 1H7c-.55228 0-1-.4477-1-1Z"/>
  </symbol>
  <symbol id="burger" fill="none" viewBox="0 0 24 24">
    <path stroke="currentColor" stroke-linecap="round" stroke-linejoin="round" stroke-width="2" d="m4 12 2.66667-1 2.66666 1L12 11l2.6667 1 2.6666-1L20 12m-1 5H5v1c0 1.1046.89543 2 2 2h10c1.1046 0 2-.8954 2-2v-1ZM5 9.00003h14v-1c0-2.20914-1.7909-4-4-4H9c-2.20914 0-4 1.79086-4 4v1ZM18.5 14h-13c-.82843 0-1.5.6716-1.5 1.5 0 .8285.67157 1.5 1.5 1.5h13c.8284 0 1.5-.6715 1.5-1.5 0-.8284-.6716-1.5-1.5-1.5Z"/>
  </symbol>
  <symbol id="cake-candles" fill="none" viewBox="0 0 24 24">
    <path stroke="currentColor" stroke-linecap="round" stroke-linejoin="round" stroke-width="2" d="M5 17.4302V15h4.33332M5 17.4302V21h14v-6h-4.3333M5 17.4302c.38672.3365.923.5698 1.66666.5698 2.66664 0 2.66666-3 2.66666-3m5.33338 0H9.33332m5.33338 0s0 3-2.6667 3c-2.66668 0-2.66668-3-2.66668-3m5.33338 0s0 3 2.6666 3c.7437 0 1.28-.2333 1.6667-.5698m-7-9.43017c.1093 0 2-1.11929 2-2.5s-1.9079-2.5-2-2.5c-.0921 0-2 1.11929-2 2.5s1.8947 2.5 2 2.5Zm0 0V11m-6 0v4h12v-4H6Z"/>
  </symbol>
  <symbol id="candy-cane" fill="none" viewBox="0 0 24 24">
    <path stroke="currentColor" stroke-linecap="round" stroke-linejoin="round" stroke-width="2" d="M10 8.00003c0-.82843.5-2 2-2m-2 2V10.5c0 .8285-.67157 1.5-1.5 1.5S7 11.3285 7 10.5V7.50003m3 .5-3-.5m5-1.5c1.5 0 2 1.17157 2 2m-2-2v-3m-5 4.5c0-2.48528 2.51472-4.5 5-4.5m0 0c2.4853 0 5 2.01472 5 4.5V19.5c0 .8285-.6716 1.5-1.5 1.5s-1.5-.6715-1.5-1.5V8.00003m0 0h3M14 12h3m-3 4h3"/>
  </symbol>
  <symbol id="carrot" fill="none" viewBox="0 0 24 24">
    <path stroke="currentColor" stroke-linecap="round" stroke-linejoin="round" stroke-miterlimit="10" stroke-width="2" d="M16.0001 7.99997c-1.629-1.629-3.9007-1.91488-6.06614.25057C7.76851 10.416 2.82151 18.0286 4.4505 19.6576c1.629 1.629 9.2416-3.318 11.4071-5.4834 2.0932-2.0933 1.7715-4.54524.1425-6.17423Zm0 0 3.2595-3.15144m-3.2595 3.15144V4m0 3.99997 4 .00002m-3.7978 5.80211-2.1999-2.2155M8.30216 10.211l2.07194 2.0421m-1.25873 3.1838 2.11173 2.1633"/>
  </symbol>
  <symbol id="champagne-glasses" fill="none" viewBox="0 0 24 24">
    <path stroke="currentColor" stroke-linecap="round" stroke-linejoin="round" stroke-width="2" d="M7 15c1.65685 0 3-1.3431 3-3V6H4v6c0 1.6569 1.34315 3 3 3Zm0 0v5m-2 0h4M4 9h6m6.6083 4.4863c1.5775-.5067 2.4456-2.1962 1.939-3.77367L16.7126 4 11 5.83463l1.8346 5.71267c.5066 1.5775 2.1962 2.4456 3.7737 1.939Zm0 0 1.5288 4.7605m-1.9042.6115 3.8084-1.2231m-8.124-8.94426 5.7126-1.83463"/>
  </symbol>
  <symbol id="cheese" fill="none" viewBox="0 0 24 24">
    <path stroke="currentColor" stroke-linecap="round" stroke-linejoin="round" stroke-width="2" d="m4 12 6.4267-4.65924c.6372.89667 1.8922 1.10897 2.7888.4718.8967-.63718 1.3493-1.69135.4681-2.80084C13.6373 4.95345 14.9106 4 15 4c.0894 0 5 1 5 8M4 12h16M4 12v8h16v-8M8 15h.01M12 17h.01M16 15h.01"/>
  </symbol>
  <symbol id="cloud-meatball" fill="none" viewBox="0 0 24 24">
    <path stroke="currentColor" stroke-linecap="round" stroke-linejoin="round" stroke-width="2" d="M17.3333 14.6528c.7073 0 1.3856-.2101 1.8857-.7101.5-.5001.781-1.2493.781-1.9565 0-.7073-.281-1.3856-.781-1.8857-.5001-.50007-1.1784-.78102-1.8857-.78102h-.0222c.0133-.14755.0222-.296.0222-.44444-.0033-1.17924-.4328-2.31753-1.2092-3.20508-.7765-.88756-1.8476-1.46455-3.0159-1.62465-1.1683-.1601-2.3551.10749-3.34174.75344-.98658.64596-1.70644 1.62675-2.0269 2.76162-.06223-.00355-.12089-.01866-.184-.01866-.943 0-1.91009.36598-2.57689 1.03277C4.31188 9.24128 4 10.1543 4 11.0973c0 .943.3746 1.8473 1.0414 2.5141.45292.4529 1.01546.7711 1.62527.9285M12 14v3m0 0v3m0-3-2.12134-2.1212M12 17l2.1213 2.1214M12 17H9m3 0h3m-3 0-2.12134 2.1213M12 17l2.1213-2.1213M6 18h.01M18 18h.01"/>
  </symbol>
  <symbol id="cookie" fill="none" viewBox="0 0 24 24">
    <path stroke="currentColor" stroke-linecap="round" stroke-linejoin="round" stroke-width="2" d="M8.65692 9.41494h.01M7.27103 13h.01m7.67737 1.9156h.01M10.9999 17h.01m3.178-10.90671c-.8316.38094-1.8475.22903-2.5322-.45571-.3652-.36522-.5789-.82462-.6409-1.30001-.0574-.44-.0189-.98879.1833-1.39423-1.99351.20001-3.93304 1.06362-5.46025 2.59083-3.51472 3.51472-3.51472 9.21323 0 12.72793 3.51471 3.5147 9.21315 3.5147 12.72795 0 1.5601-1.5602 2.4278-3.5507 2.6028-5.5894-.2108.008-.6725.0223-.8328.0157-.635.0644-1.2926-.1466-1.779-.633-.3566-.3566-.5651-.8051-.6257-1.2692-.0561-.4293.0145-.87193.2117-1.26755-.1159.20735-.2619.40237-.4381.57865-1.0283 1.0282-2.6953 1.0282-3.7235 0-1.0282-1.02824-1.0282-2.69531 0-3.72352.0977-.09777.2013-.18625.3095-.26543"/>
  </symbol>
  <symbol id="cubes-stacked" fill="none" viewBox="0 0 24 24">
    <path stroke="currentColor" stroke-linecap="round" stroke-linejoin="round" stroke-width="2" d="M7.99999 10.8571 12 13.1428m-4.00001-2.2857L4 13.1428m3.99999-2.2857.00004-4.57139M12 13.1428v4.5715m0-4.5715-4.00001 2.2857M12 13.1428l4-2.2857m-4 2.2857V8.57143m0 4.57137 4 2.2858m-4 2.2857L7.99999 20M12 17.7143 16 20m-8.00001 0L4 17.7143v-4.5715M7.99999 20v-4.5715M4 13.1428l3.99999 2.2857M16 6.28571 12 4 8.00003 6.28571m7.99997 0v4.57139m0-4.57139-4 2.28572m4 2.28567 4 2.2858M8.00003 6.28571 12 8.57143m8 4.57147v4.5714L16 20m4-6.8571-4 2.2857M16 20v-4.5714"/>
  </symbol>
  <symbol id="droplet-bottle-alt" fill="none" viewBox="0 0 24 24">
    <path stroke="currentColor" stroke-linecap="round" stroke-linejoin="round" stroke-width="2" d="M10 6v2.5C10 9 7 9.75 7 12v7c0 .9375 0 2 2.14286 2h5.71424C17 21 17 19.9375 17 19v-7c0-2.25-3-3-3-3.5V6m-4 0H9V3h6v3h-1m-4 0h4m0 10c0 1.1046-.8954 2-2 2s-2-.8954-2-2c0-1.5 1.7874-4 2-4 .2126 0 2 2.5 2 4Z"/>
  </symbol>
  <symbol id="droplet-bottle" fill="none" viewBox="0 0 24 24">
    <path stroke="currentColor" stroke-linecap="round" stroke-linejoin="round" stroke-width="2" d="M9 6h6m-5-3v6c-2 1.5-3 3.5-3 5.5V19c0 1.1046.89543 2 2 2h6c1.1046 0 2-.8954 2-2v-4.5c0-2-1-4-3-5.5V3h-4Zm4 13c0 1.1046-.8954 2-2 2s-2-.8954-2-2 1.8849-4 2-4c.1151 0 2 2.8954 2 4Z"/>
  </symbol>
  <symbol id="drumstick-bite" fill="none" viewBox="0 0 24 24">
    <path stroke="currentColor" stroke-linecap="round" stroke-linejoin="round" stroke-width="2" d="M12.4427 9.88469 9.93591 7.50961c.81449-.81448.80559-2.06903-.02046-2.89511-.82608-.82607-2.08062-.83494-2.89511-.02046-.4791.47911-.71525 1.20118-.56606 1.82948-.6283-.14919-1.35037.08695-1.82948.56606-.81448.81448-.80561 2.06903.02047 2.89511.82607.82611 2.08062.83491 2.8951.02046l2.50233 2.29305m.8063-1.38c1.83-1.8299 5.1241-1.22213 7.1925.8462 2.0684 2.0684 2.3191 4.6228.2978 6.6441-1.0322 1.0321-2.1287 1.6094-3.2302 1.6518.5878-1.3405.2254-2.5874-.8127-3.2811-.918-.6135-2.1806-.7802-3.5479.179-1.10401-2.0578-1.30393-4.6355.1005-6.04Z"/>
  </symbol>
  <symbol id="egg" fill="none" viewBox="0 0 24 24">
    <path stroke="currentColor" stroke-linecap="round" stroke-linejoin="round" stroke-width="2" d="M10.0001 13c0-.8883.4022-2.3826 1-3.27163M18.05 14c0 3.3137-2.6862 6-6 6-3.31366 0-5.99995-2.6863-5.99995-6S8.73634 4 12.05 4c3.3138 0 6 6.6863 6 10Z"/>
  </symbol>
  <symbol id="fish-alt" fill="none" viewBox="0 0 24 24">
    <path stroke="currentColor" stroke-linecap="round" stroke-linejoin="round" stroke-width="2" d="M6 12c0 1.6 3.35786 4 7.5 4 4.1421 0 6.9231-3.2 7.5-4-.5769-.8-3.3579-4-7.5-4C9.35786 8 6 10.4 6 12Zm0 0L3 9m3 3-3 3m12.9866-3.3723h.01m-1.9995-3.61229c-1.7265 3.30199-1.7113 5.02539-.0015 7.96929m-4.6104-.7956L7.7 17.4c-.49443.6592-.02401 1.6.80004 1.6H10c1 0 2.7576-3.0256 2.7576-3.0256M9 5l3.056 3.09696"/>
  </symbol>
  <symbol id="fish" fill="none" viewBox="0 0 24 24">
    <path stroke="currentColor" stroke-linecap="round" stroke-linejoin="round" stroke-width="2" d="M6 12c0 1.6 3.35786 4 7.5 4 4.1421 0 6.9231-3.2 7.5-4-.5769-.8-3.3579-4-7.5-4C9.35786 8 6 10.4 6 12Zm0 0L3 9m3 3-3 3m12.9866-3.3723h.01M14 8c-1.7264 3.302-1.7098 5.0561 0 8"/>
  </symbol>
  <symbol id="flask" fill="none" viewBox="0 0 24 24">
    <path stroke="currentColor" stroke-linecap="round" stroke-linejoin="round" stroke-width="2" d="M10.05 3.00002v5C7.33127 8.93351 5.05005 11.2392 5.05005 14.2c0 3.7555 3.13401 6.8 6.99995 6.8 3.866 0 7-3.0445 7-6.8 0-2.9608-2.2812-5.26649-5-6.19998v-5m-4 0h4m-4 0H8.05005m5.99995 0h2M5.09798 15H19.0021"/>
  </symbol>
  <symbol id="glass-water-droplet" fill="none" viewBox="0 0 24 24">
    <path stroke="currentColor" stroke-linecap="round" stroke-linejoin="round" stroke-width="2" d="M7 17h10M6 3l1.07554 16.133C7.14558 20.1836 8.01818 21 9.07111 21h5.85779c1.0529 0 1.9255-.8164 1.9956-1.867L18 3H6Zm8 8c0 1.1046-.8954 2-2 2s-2-.8954-2-2c0-1.10457 1.7912-4 2-4 .2088 0 2 2.89543 2 4Z"/>
  </symbol>
  <symbol id="glass-water" fill="none" viewBox="0 0 24 24">
    <path stroke="currentColor" stroke-linecap="round" stroke-linejoin="round" stroke-width="2" d="M6.31531 7c1.41852 0 1.41852 1.5 2.83703 1.5C10.5709 8.5 10.5709 7 11.9894 7s1.4185 1.5 2.837 1.5S17.6635 7 17.6635 7M6 3l1.07554 16.133C7.14558 20.1836 8.01818 21 9.07111 21h5.85779c1.0529 0 1.9255-.8164 1.9956-1.867L18 3H6Z"/>
  </symbol>
  <symbol id="hotdog" fill="none" viewBox="0 0 24 24">
    <path stroke="currentColor" stroke-linecap="round" stroke-linejoin="round" stroke-width="2" d="m11.5 8.00003 1-1M11.5 12.5l1-1m-1 5.5 1-1M9 20V4.00003h-.5c-1.933 0-3.5 1.567-3.5 3.5V16.5C5 18.433 6.567 20 8.5 20H9Zm6 0V4.00003h.5c1.933 0 3.5 1.567 3.5 3.5V16.5c0 1.933-1.567 3.5-3.5 3.5H15Zm0-2V6.00003c0-1.65685-1.3431-3-3-3s-3 1.34315-3 3V18c0 1.6569 1.3431 3 3 3s3-1.3431 3-3Z"/>
  </symbol>
  <symbol id="icecream-alt" fill="none" viewBox="0 0 24 24">
    <path stroke="currentColor" stroke-linecap="round" stroke-linejoin="round" stroke-width="2" d="M9 6c0-1.65685 1.3431-3 3-3s3 1.34315 3 3M9 6c0 1.04349.53275 1.96254 1.3411 2.5M9 6C7.34315 6 6 7.34315 6 9c0 1.6569 1.34315 3 3 3m6.3893 0c1.6568 0 3-1.3431 3-3 0-1.65685-1.3432-3-3-3-.6134 0-1.1838.18408-1.6589.5M8 12h8l-4 9-4-9Z"/>
  </symbol>
  <symbol id="icecream" fill="none" viewBox="0 0 24 24">
    <path stroke="currentColor" stroke-linecap="round" stroke-linejoin="round" stroke-width="2" d="M7 8v6c0 .5523.44772 1 1 1h4M7 8c0-2.76142 2.23858-5 5-5 2.7614 0 5 2.23858 5 5v6c0 .5523-.4477 1-1 1h-4M7 8h2c1.1046 0 2 .89543 2 2v.5c0 .8284.6716 1.5 1.5 1.5s1.5-.6716 1.5-1.5c0-.82843.6716-1.5 1.5-1.5H17m-5 6v6"/>
  </symbol>
  <symbol id="jar-wheat" fill="none" viewBox="0 0 24 24">
    <path stroke="currentColor" stroke-linecap="round" stroke-linejoin="round" stroke-width="2" d="M16 6H8m8 0s3 2.5 3 5v8.002C19 20.6589 17.6569 22 16 22H8c-1.65685 0-3-1.3411-3-2.998V11c0-2.5 3-5 3-5m8 0V3H8v3m4 3v10M6 6h12m-4.8345 9.7454c-.323.2567-.9647 1.1716-.9257 1.2279.039.0563 1.0454-.4292 1.4008-.6387.3554-.2095.9274-1.1943.9-1.2298-.0275-.0356-1.0771.4039-1.3751.6406Zm0-3.972c-.323.2567-.9647 1.1716-.9257 1.228.039.0563 1.0454-.4292 1.4008-.6387.3554-.2096.9274-1.1943.9-1.2299-.0275-.0355-1.0771.404-1.3751.6406Zm-2.331 3.972c.323.2567.9647 1.1716.9257 1.2279-.0391.0563-1.0455-.4292-1.4009-.6387-.3553-.2095-.92738-1.1943-.8999-1.2298.02748-.0356 1.0771.4039 1.3751.6406Zm0-3.972c.323.2567.9647 1.1716.9257 1.228-.0391.0563-1.0455-.4292-1.4009-.6387-.3553-.2096-.92738-1.1943-.8999-1.2299.02748-.0355 1.0771.404 1.3751.6406Z"/>
  </symbol>
  <symbol id="jar" fill="none" viewBox="0 0 24 24">
    <path stroke="currentColor" stroke-linecap="round" stroke-linejoin="round" stroke-width="2" d="M16 6H8m8 0s3 2.5 3 5m-3-5V3H8v3m0 0s-3 2.5-3 5v8.002C5 20.6589 6.34315 22 8 22h8c1.6569 0 3-1.3411 3-2.998V11m0 0h-8v7h8v-7ZM6 6h12"/>
  </symbol>
  <symbol id="lemon" fill="none" viewBox="0 0 24 24">
    <path stroke="currentColor" stroke-linecap="round" stroke-linejoin="round" stroke-width="2" d="M12.3058 8.29519C9.55698 9.38222 8.81979 11.2498 9.00197 13.9395M14.667 4.18096l-1.0565.50487c-.3418.13297-1.523.3194-1.7152.3194-4.83207.6468-7.74553 5.76877-5.88136 10.33957l.4506 1.1049c.07315.1793.1279.4848.13448.5625.00656.0775.09722 1.1779.09749 1.1811.00001.0001 0 .0001.00001.0002.10784 1.3052 1.46355 2.1014 2.63163 1.5474.00336-.0016.00624-.003.00959-.0046.07162-.0347.97416-.4719 1.05206-.5027.081-.032.3576-.1377.5472-.1631l1.168-.1563c4.832-.6468 7.7455-5.7687 5.8813-10.33958l-.4506-1.10485c-.0731-.17935-.1185-.3691-.1345-.56253l-.0975-1.18113c-.1079-1.30718-1.4674-2.10389-2.6367-1.54515Z"/>
  </symbol>
  <symbol id="martini-glass-citrus" fill="none" viewBox="0 0 24 24">
    <path stroke="currentColor" stroke-linecap="round" stroke-linejoin="round" stroke-width="2" d="m10 14 6-6H4l6 6Zm0 0v6m-3.00004 0H13m.0354-12C13.0121 7.8367 13 7.66976 13 7.5 13 5.567 14.567 4 16.5 4S20 5.567 20 7.5 18.433 11 16.5 11c-.9537 0-1.8183-.3814-2.4495-1"/>
  </symbol>
  <symbol id="martini-glass-empty" fill="none" viewBox="0 0 24 24">
    <path stroke="currentColor" stroke-linecap="round" stroke-linejoin="round" stroke-width="2" d="m12 12 7-8H5l7 8Zm0 0v8m-3 0h6"/>
  </symbol>
  <symbol id="martini-glass" fill="none" viewBox="0 0 24 24">
    <path stroke="currentColor" stroke-linecap="round" stroke-linejoin="round" stroke-width="2" d="m12 12 7-8H5l7 8Zm0 0v8m-3 0h6M8.54939 8h6.95051"/>
  </symbol>
  <symbol id="mug-hot" fill="none" viewBox="0 0 24 24">
    <path stroke="currentColor" stroke-linecap="round" stroke-linejoin="round" stroke-width="2" d="M15 13h2c1.1046 0 2 .8954 2 2s-.8954 2-2 2h-2.5M10 3c0 2.4-3 1.6-3 4m8-4c0 2.4-3 1.6-3 4m-7 4 .6398 6.398C5.84428 19.4428 7.56494 21 9.61995 21H10.38c2.0551 0 3.7757-1.5572 3.9802-3.602L15 11H5Z"/>
  </symbol>
  <symbol id="mug-saucer" fill="none" viewBox="0 0 24 24">
    <path stroke="currentColor" stroke-linecap="round" stroke-linejoin="round" stroke-width="2" d="M15 8h2c1.1046 0 2 .89543 2 2 0 1.1046-.8954 2-2 2h-2.5M5 19h11M5 6l.6398 6.398C5.84428 14.4428 7.56494 16 9.61995 16H10.38c2.0551 0 3.7757-1.5572 3.9802-3.602L15 6H5Z"/>
  </symbol>
  <symbol id="pepper-hot" fill="none" viewBox="0 0 24 24">
    <path stroke="currentColor" stroke-linecap="round" stroke-linejoin="round" stroke-width="2" d="M11 11c1.4996-3.03293 3.1022-3.84719 4.5-3.50002 1.3978.34717 2.2863.9906 2.6776 2.60672.4633 2.1164-1.7429 4.9773-5.8373 8.2081-1.2064.9132-3.49445 2.0175-5.05111 2.6995-.69706.2941-1.59437.0537-2.09791-.6308-.50355-.6845-.3913-1.6162.24626-2.201.39377-.444.75319-.7599 1.11261-1.0758C8.1847 15.6213 9.50034 14.033 11 11Zm0 0h3v2h3m.1576-5.48485 1.2592-2.13563c.4624-.70043.1558-1.60694-.5447-2.0694-.7004-.46246-1.6069-.1558-2.0694.54463l-.0812.04692"/>
  </symbol>
  <symbol id="pizza-slice" fill="none" viewBox="0 0 24 24">
    <g clip-path="url(#a)">
      <path stroke="currentColor" stroke-linecap="round" stroke-linejoin="round" stroke-width="2" d="m10.4149 10.7623.0005.0109m3.0868 3.0764.0005.0108M8.91554 15.349l.00046.0108m-.8276-8.44549L4.39857 19.9133l12.95163-3.7371m-.8271-8.43475c2.0971 2.09707 3.269 4.77055 3.5172 7.51635.067.7413-.4619 1.3752-1.1869 1.5293-1.0146.2158-1.9613-.5811-2.0926-1.615-.2412-1.9-.9437-3.5721-2.52-5.1484-1.5779-1.57793-3.3173-2.3457-5.25302-2.61955-1.02139-.1445-1.79555-1.1099-1.5387-2.10314.17236-.66653.76818-1.14208 1.45754-1.08543 2.78088.22851 5.49388 1.40332 7.61648 3.52587Z"/>
    </g>
    <defs>
      <clipPath id="a">
        <path fill="#fff" d="M0 0h24v24H0z"/>
      </clipPath>
    </defs>
  </symbol>
  <symbol id="plate-wheat" fill="none" viewBox="0 0 24 24">
    <path stroke="currentColor" stroke-linecap="round" stroke-linejoin="round" stroke-width="2" d="M5 5.00003h1M5 11h1M3 8.00003h4m8.5 0c-.1016.11084-1.5385-1.15738-1.7964-1.482-.3299-.41512-.7812-1.43054-.6974-1.50634.0838-.0758 1.1161.68119 1.3741 1.00581.258.32462 1.2213 1.87169 1.1197 1.98253Zm0 0c-.1016-.11084-1.5385 1.15738-1.7964 1.482-.3299.41512-.7812 1.43057-.6974 1.50637.0838.0758 1.1161-.6812 1.3741-1.00584.258-.32462 1.2213-1.87169 1.1197-1.98253Zm4 0c-.1016.11084-1.5385-1.15738-1.7964-1.482-.3299-.41512-.7812-1.43054-.6974-1.50634.0838-.0758 1.1161.68119 1.3741 1.00581.258.32462 1.2213 1.87169 1.1197 1.98253Zm0 0c-.1016-.11084-1.5385 1.15738-1.7964 1.482-.3299.41512-.7812 1.43057-.6974 1.50637.0838.0758 1.1161-.6812 1.3741-1.00584.258-.32462 1.2213-1.87169 1.1197-1.98253Zm-8.5 0h10m-9.9943-.00001c-.1016.11084-1.53849-1.15738-1.79646-1.48201-.32987-.41511-.7812-1.43053-.69738-1.50633.08383-.0758 1.11614.68118 1.3741 1.00581.25794.32462 1.22124 1.87168 1.11974 1.98253Zm0 0c-.1016-.11085-1.53849 1.1574-1.79646 1.48203-.32987.41511-.7812 1.43055-.69738 1.50635.08383.0758 1.11614-.6812 1.3741-1.00582.25794-.32463 1.22124-1.87172 1.11974-1.98256ZM8.59868 18.0116V19h6.80262v-.9884C18.39 17.3447 20.5872 15.8251 21 14H3c.41284 1.8251 2.60995 3.3447 5.59868 4.0116Z"/>
  </symbol>
  <symbol id="seedling" fill="none" viewBox="0 0 24 24">
    <path stroke="currentColor" stroke-linecap="round" stroke-linejoin="round" stroke-width="2" d="M9.83892 12.4543s1.24988-3.08822-.21626-5.29004C8.15656 4.96245 4.58671 4.10885 4.39794 4.2436c-.18877.13476-1.11807 3.32546.34803 5.52727 1.4661 2.20183 5.09295 2.68343 5.09295 2.68343Zm0 0C10.3389 13.4543 12 15 12 18v2c0-2-.4304-3.4188 2.0696-5.9188m0 0s-.4894-2.7888 1.1206-4.35788c1.6101-1.56907 4.4903-1.54682 4.6701-1.28428.1798.26254.4317 2.84376-1.0809 4.31786-1.61 1.5691-4.7098 1.3243-4.7098 1.3243Z"/>
  </symbol>
  <symbol id="shrimp" fill="none" viewBox="0 0 24 24">
    <path stroke="currentColor" stroke-linecap="round" stroke-linejoin="round" stroke-width="2" d="M13.5241 12.4701H8c-1.65685 0-3-1.3432-3-3.00001V8.00003h5m3.5241 4.47007c1.6367 0 2.733 1.6825 2.072 3.1798-.3623.8206-1.1749 1.3501-2.072 1.3501H11c-1.10457 0-2 .8955-2 2v1h6.5m-1.9759-7.5299L15.5 7.76388m-5.5.23615c1.8455-1.2511 3.0772-1.40822 5.5-.23615m-5.5.23615v4.47007L8 14m7.5-6.23612c3.1804-.24503 5.5559 2.36222 4.7544 5.44972-.1054.4062-.2247.8398-.3594 1.3107.0165.8114-.0058 1.4881-.0632 2.0873C19.6315 18.7026 17.6006 20 15.5 20m0 0-1.2042-3.1354M15.6675 14h4.3753M10 4.00003H6c-1.10457 0-2 .89543-2 2s.89543 2 2 2"/>
  </symbol>
  <symbol id="stroopwafel" fill="none" viewBox="0 0 24 24">
    <path stroke="currentColor" stroke-linecap="round" stroke-linejoin="round" stroke-width="2" d="M21 12c0 4.9706-4.0294 9-9 9m9-9c0-4.97056-4.0294-9-9-9m9 9h-5m-4 9c-4.97056 0-9-4.0294-9-9m9 9v-5m-9-4c0-4.97056 4.02944-9 9-9m-9 9h5m4-9v5M8 3.93552V8m0 0v4m0-4H3.93552M8 8h4m-4 4v4m0-4h4m-4 4v4.0645M8 16H3.93552M8 16h4m0-8v4m0-4h4m-4 4v4m0-4h4m-4 4h4m0-12.06448V8m0 0v4m0-4h4.0645M16 12v4m0 0v4.0645M16 16h4.0645"/>
  </symbol>
  <symbol id="water-bottle" fill="none" viewBox="0 0 24 24">
    <path stroke="currentColor" stroke-linecap="round" stroke-linejoin="round" stroke-width="2" d="M11 6v2s-3 1-3 3.25 1 2.25 1 3-1 1.125-1 2.25V19c0 .9375 1 2 2.5 2s2-.9375 2-.9375S13 21 14.5 21s2.5-1.0625 2.5-2v-2.5c0-1.125-1-1.5-1-2.25s1-.75 1-3S14 8 14 8V6m-3 0h-1V3h5v3h-1m-3 0h3m-5.95629 6h8.91259M8 17h9"/>
  </symbol>
  <symbol id="wheat-exclamation" fill="none" viewBox="0 0 24 24">
    <path stroke="currentColor" stroke-linecap="round" stroke-linejoin="round" stroke-width="2" d="M8.54025 15.4598c-.15524.0503-.82936-1.9171-.89837-2.3619-.08825-.5688.03111-1.7696.15081-1.7963.1197-.0267.68672 1.2412.75573 1.686.06901.4447.14706 2.4219-.00817 2.4722Zm0 0c-.00841-.163 2.06645-.3049 2.51395-.2565.5722.062 1.7012.4881 1.696.6106-.0052.1225-1.3766.3421-1.8241.2936-.4475-.0484-2.37745-.4848-2.38585-.6477Zm3.71475-3.7147L4 20m8.255-8.2549 6.6038-6.6039m-6.6038 6.6039c-.1553.0503-.8294-1.91714-.8984-2.36191-.0883-.56876.0311-1.76956.1508-1.79626.1197-.0267.6867 1.24116.7557 1.68593.069.44477.1471 2.42194-.0081 2.47224Zm0 0c-.0084-.163 2.0664-.3049 2.5139-.2565.5722.062 1.7012.4881 1.696.6106-.0052.1225-1.3766.3421-1.8241.2936-.4475-.0484-2.3774-.4848-2.3858-.6477ZM20 8.95298l-1.2713 1.27132m-3.6816-6.22427-1.2713 1.27129M19.99 20H20m-.01-3v-3M5.26953 18.7305c-.15523.0503-.82935-1.9171-.89836-2.3619-.08825-.5687.0311-1.7696.1508-1.7963.1197-.0267.68673 1.2412.75574 1.686.06901.4447.14705 2.4219-.00818 2.4722Zm0 0c-.0084-.163 2.06645-.3049 2.51393-.2565.57221.062 1.70121.4881 1.69602.6106-.00519.1226-1.37661.3421-1.82408.2937-.44748-.0485-2.37746-.4848-2.38587-.6478Z"/>
  </symbol>
  <symbol id="wheat" fill="none" viewBox="0 0 24 24">
    <path stroke="currentColor" stroke-linecap="round" stroke-linejoin="round" stroke-width="2" d="M8.54025 15.4598c-.15524.0503-.82936-1.9171-.89837-2.3619-.08825-.5688.03111-1.7696.15081-1.7963.1197-.0267.68672 1.2412.75573 1.686.06901.4447.14706 2.4219-.00817 2.4722Zm0 0c-.00841-.163 2.06645-.3049 2.51395-.2565.5722.062 1.7012.4881 1.696.6106-.0052.1225-1.3766.3421-1.8241.2936-.4475-.0484-2.37745-.4848-2.38585-.6477Zm3.71475-3.7147L4 20m8.255-8.2549 6.6038-6.6039m-6.6038 6.6039c-.1553.0503-.8294-1.91714-.8984-2.36191-.0883-.56876.0311-1.76956.1508-1.79626.1197-.0267.6867 1.24116.7557 1.68593.069.44477.1471 2.42194-.0081 2.47224Zm0 0c-.0084-.163 2.0664-.3049 2.5139-.2565.5722.062 1.7012.4881 1.696.6106-.0052.1225-1.3766.3421-1.8241.2936-.4475-.0484-2.3774-.4848-2.3858-.6477ZM20 8.95298l-1.2713 1.27132m-3.6816-6.22427-1.2713 1.27129M5.26953 18.7305c-.15523.0503-.82935-1.9171-.89836-2.3619-.08825-.5687.0311-1.7696.1508-1.7963.1197-.0267.68673 1.2412.75574 1.686.06901.4447.14705 2.4219-.00818 2.4722Zm0 0c-.0084-.163 2.06645-.3049 2.51393-.2565.57221.062 1.70121.4881 1.69602.6106-.00519.1226-1.37661.3421-1.82408.2937-.44748-.0485-2.37746-.4848-2.38587-.6478Z"/>
  </symbol>
  <symbol id="whiskey-glass" fill="none" viewBox="0 0 24 24">
    <path stroke="currentColor" stroke-linecap="round" stroke-linejoin="round" stroke-width="2" d="M7 14h10M6 7l.84717 10.1661C6.93356 18.2027 7.80009 19 8.84027 19h6.31943c1.0402 0 1.9067-.7973 1.9931-1.8339L18 7H6Z"/>
  </symbol>
  <symbol id="wine-bottle" fill="none" viewBox="0 0 24 24">
    <path stroke="currentColor" stroke-linecap="round" stroke-linejoin="round" stroke-width="2" d="M10 8h4m-3-5c-.5523 0-1 .44772-1 1v6c-2 1-2 2.5-2 4.5V20c0 .5523.44772 1 1 1h6c.5523 0 1-.4477 1-1v-5.5c0-2 0-3.5-2-4.5V4c0-.55228-.4477-1-1-1h-2Zm5 10h-4v5h4v-5Z"/>
  </symbol>
  <symbol id="wine-glass-empty" fill="none" viewBox="0 0 24 24">
    <path stroke="currentColor" stroke-linecap="round" stroke-linejoin="round" stroke-width="2" d="M12 14c2.7614 0 5-2.6679 5-5.42928C17 7.18458 15.8809 4.06255 15.5 3h-7C8.15198 4.02095 7 7.17202 7 8.57072 7 11.3321 9.23858 14 12 14Zm0 0v7m-3 0h6"/>
  </symbol>
  <symbol id="wine-glass" fill="none" viewBox="0 0 24 24">
    <path stroke="currentColor" stroke-linecap="round" stroke-linejoin="round" stroke-width="2" d="M12 14c2.7614 0 5-2.6679 5-5.42928C17 7.18458 15.8809 4.06255 15.5 3h-7C8.15198 4.02095 7 7.17202 7 8.57072 7 11.3321 9.23858 14 12 14Zm0 0v7m0 0H9m3 0h3M7 9h9"/>
  </symbol>
</svg>