<svg xmlns="http://www.w3.org/2000/svg" xmlns:xlink="http://www.w3.org/1999/xlink">
  <symbol id="backward-step" fill="none" viewBox="0 0 24 24">
    <path stroke="currentColor" stroke-linecap="round" stroke-linejoin="round" stroke-width="2" d="M8 6v12m8-12v12l-8-6 8-6Z"/>
  </symbol>
  <symbol id="camera-photo" fill="none" viewBox="0 0 24 24">
    <path stroke="currentColor" stroke-linejoin="round" stroke-width="2" d="M4 18V8a1 1 0 0 1 1-1h1.5l1.707-1.707A1 1 0 0 1 8.914 5h6.172a1 1 0 0 1 .707.293L17.5 7H19a1 1 0 0 1 1 1v10a1 1 0 0 1-1 1H5a1 1 0 0 1-1-1Z"/>
    <path stroke="currentColor" stroke-linejoin="round" stroke-width="2" d="M15 12a3 3 0 1 1-6 0 3 3 0 0 1 6 0Z"/>
  </symbol>
  <symbol id="caption" fill="none" viewBox="0 0 24 24">
    <path stroke="currentColor" stroke-linecap="round" stroke-linejoin="round" stroke-width="2" d="M10.855 14.322a2.475 2.475 0 1 1 .133-4.241m6.053 4.241a2.475 2.475 0 1 1 .133-4.241M4 5h16a1 1 0 0 1 1 1v12a1 1 0 0 1-1 1H4a1 1 0 0 1-1-1V6a1 1 0 0 1 1-1Z"/>
  </symbol>
  <symbol id="circle-pause" fill="none" viewBox="0 0 24 24">
    <path stroke="currentColor" stroke-linecap="round" stroke-linejoin="round" stroke-width="2" d="M10 9v6m4-6v6m7-3a9 9 0 1 1-18 0 9 9 0 0 1 18 0Z"/>
  </symbol>
  <symbol id="clapperboard-play" fill="none" viewBox="0 0 24 24">
    <path stroke="currentColor" stroke-linecap="round" stroke-linejoin="round" stroke-width="2" d="M19 4H5a1 1 0 0 0-1 1v14a1 1 0 0 0 1 1h14a1 1 0 0 0 1-1V5a1 1 0 0 0-1-1Zm0 0-4 4m5 0H4m1 0 4-4m1 4 4-4m-4 7v6l4-3-4-3Z"/>
  </symbol>
  <symbol id="computer-speaker" fill="none" viewBox="0 0 24 24">
    <path stroke="currentColor" stroke-linecap="round" stroke-linejoin="round" stroke-width="2" d="M9 16H5a1 1 0 0 1-1-1V5a1 1 0 0 1 1-1h14a1 1 0 0 1 1 1v1M9 12H4m8 8V9h8v11h-8Zm0 0H9m8-4a1 1 0 1 0-2 0 1 1 0 0 0 2 0Z"/>
  </symbol>
  <symbol id="forward-step" fill="none" viewBox="0 0 24 24">
    <path stroke="currentColor" stroke-linecap="round" stroke-linejoin="round" stroke-width="2" d="M16 6v12M8 6v12l8-6-8-6Z"/>
  </symbol>
  <symbol id="headphones" fill="none" viewBox="0 0 24 24">
    <path stroke="currentColor" stroke-linejoin="round" stroke-width="2" d="M20 16v-4a8 8 0 1 0-16 0v4m16 0v2a2 2 0 0 1-2 2h-2v-6h2a2 2 0 0 1 2 2ZM4 16v2a2 2 0 0 0 2 2h2v-6H6a2 2 0 0 0-2 2Z"/>
  </symbol>
  <symbol id="incoming-call" fill="none" viewBox="0 0 24 24">
    <path stroke="currentColor" stroke-linecap="round" stroke-linejoin="round" stroke-width="2" d="M19.0225 4 14 8.98132m0 0 3.03.00002M14 8.98132V5.99998m4.2327 8.51492-1.1431-1.1439c-1.143-1.1439-1.9758-.3696-2.8382.4565-.3159.3161-.7443.4936-1.1911.4936-.4467 0-.8751-.1775-1.191-.4936L9.998 11.9549c-.65643-.6564-.92477-1.4591 0-2.38383.8488-.86837 1.6837-1.61177.4926-2.8037L9.2995 5.57544c-.90492-.90556-1.99137-.383-2.61843.23625-3.13257 3.1118-1.72021 6.77001 1.41066 9.90141s6.78747 4.5465 9.90477 1.4254c.1744-.1461.551-.565.6473-.7712.0962-.2062.1461-.4311.1461-.6587 0-.2277-.0499-.4525-.1461-.6588-.0963-.2062-.2366-.3888-.4111-.5349Z"/>
  </symbol>
  <symbol id="list-music" fill="none" viewBox="0 0 24 24">
    <path stroke="currentColor" stroke-linecap="round" stroke-linejoin="round" stroke-width="2" d="M17 15.5V5s3 1 3 4m-7-3H4m9 4H4m4 4H4m13 2.4c0 1.326-1.343 2.4-3 2.4s-3-1.075-3-2.4 1.343-2.4 3-2.4 3 1.075 3 2.4Z"/>
  </symbol>
  <symbol id="microphone-slash" fill="none" viewBox="0 0 24 24">
    <path fill="currentColor" d="M19.97 9.012a1 1 0 1 0-2 0h2Zm-1 2.988 1 .001V12h-1Zm-8.962 4.98-.001 1h.001v-1Zm-3.52-1.46.708-.708-.707.707ZM5.029 12h-1v.001l1-.001Zm3.984 7.963a1 1 0 1 0 0 2v-2Zm5.975 2a1 1 0 0 0 0-2v2ZM7.017 8.017a1 1 0 1 0 2 0h-2Zm6.641 4.862a1 1 0 1 0 .667 1.886l-.667-1.886Zm-7.63-2.87a1 1 0 1 0-2 0h2Zm9.953 5.435a1 1 0 1 0 1 1.731l-1-1.731ZM12 16.979h1a1 1 0 0 0-1-1v1ZM5.736 4.322a1 1 0 0 0-1.414 1.414l1.414-1.414Zm12.528 15.356a1 1 0 0 0 1.414-1.414l-1.414 1.414ZM17.97 9.012V12h2V9.012h-2Zm0 2.987a3.985 3.985 0 0 1-1.168 2.813l1.415 1.414a5.985 5.985 0 0 0 1.753-4.225l-2-.002Zm-7.962 3.98a3.985 3.985 0 0 1-2.813-1.167l-1.414 1.414a5.985 5.985 0 0 0 4.225 1.753l.002-2Zm-2.813-1.167a3.985 3.985 0 0 1-1.167-2.813l-2 .002a5.985 5.985 0 0 0 1.753 4.225l1.414-1.414Zm3.808-10.775h1.992v-2h-1.992v2Zm1.992 0c1.097 0 1.987.89 1.987 1.988h2a3.988 3.988 0 0 0-3.987-3.988v2Zm1.987 1.988v4.98h2v-4.98h-2Zm-5.967 0c0-1.098.89-1.988 1.988-1.988v-2a3.988 3.988 0 0 0-3.988 3.988h2Zm-.004 15.938H12v-2H9.012v2Zm2.988 0h2.987v-2H12v2ZM9.016 8.017V6.025h-2v1.992h2Zm5.967 2.987a1.99 1.99 0 0 1-1.325 1.875l.667 1.886a3.989 3.989 0 0 0 2.658-3.76h-2ZM6.03 12v-1.992h-2V12h2Zm10.774 2.812a3.92 3.92 0 0 1-.823.632l1.002 1.731a5.982 5.982 0 0 0 1.236-.949l-1.415-1.414ZM4.322 5.736l13.942 13.942 1.414-1.414L5.736 4.322 4.322 5.736ZM12 15.98h-1.992v2H12v-2Zm-1 1v3.984h2V16.98h-2Z"/>
  </symbol>
  <symbol id="microphone" fill="none" viewBox="0 0 24 24">
    <path stroke="currentColor" stroke-linecap="round" stroke-linejoin="round" stroke-width="2" d="M19 9v3a5.006 5.006 0 0 1-5 5h-4a5.006 5.006 0 0 1-5-5V9m7 9v3m-3 0h6M11 3h2a3 3 0 0 1 3 3v5a3 3 0 0 1-3 3h-2a3 3 0 0 1-3-3V6a3 3 0 0 1 3-3Z"/>
  </symbol>
  <symbol id="missed-call" fill="none" viewBox="0 0 24 24">
    <path stroke="currentColor" stroke-linecap="round" stroke-linejoin="round" stroke-width="2" d="m17.0896 13.371 1.1431 1.1439c.1745.1461.3148.3287.4111.5349.0962.2063.1461.4312.1461.6588 0 .2276-.0499.4525-.1461.6587-.0963.2063-.4729.6251-.6473.7712-3.1173 3.1211-6.7739 1.706-9.90477-1.4254-3.13087-3.1313-4.54323-6.7896-1.41066-9.90139.62706-.61925 1.71351-1.14182 2.61843-.23626l1.1911 1.19193c1.1911 1.19194.3562 1.93533-.4926 2.80371-.92477.92481-.65643 1.72741 0 2.38391l1.8713 1.8725c.3159.3161.7443.4936 1.191.4936.4468 0 .8752-.1775 1.1911-.4936.8624-.8261 1.6952-1.6004 2.8382-.4565Zm-2.2152-4.39103 2.1348-2.13485m0 0 2.1597-1.90738m-2.1597 1.90738 2.1597 2.15076m-2.1597-2.15076-2.1348-1.90738"/>
  </symbol>
  <symbol id="music-alt" fill="none" viewBox="0 0 24 24">
    <path stroke="currentColor" stroke-linecap="round" stroke-linejoin="round" stroke-width="2" d="M12 16.5c0 1.3807-1.1193 2.5-2.5 2.5C8.11929 19 7 17.8807 7 16.5S8.11929 14 9.5 14c1.3807 0 2.5 1.1193 2.5 2.5Zm0 0V5c2.5 0 6 2.5 4.5 7"/>
  </symbol>
  <symbol id="music" fill="none" viewBox="0 0 24 24">
    <path stroke="currentColor" stroke-linecap="round" stroke-linejoin="round" stroke-width="2" d="M8 18c0 1.1046-.89543 2-2 2s-2-.8954-2-2 .89543-2 2-2 2 .8954 2 2Zm0 0V6.33333L18 4v11.6667M8 10.3333 18 8m0 8c0 1.1046-.8954 2-2 2s-2-.8954-2-2 .8954-2 2-2 2 .8954 2 2Z"/>
  </symbol>
  <symbol id="outgoing-call" fill="none" viewBox="0 0 24 24">
    <path stroke="currentColor" stroke-linecap="round" stroke-linejoin="round" stroke-width="2" d="m17.0896 13.371 1.1431 1.1439c.1745.1461.3148.3287.4111.5349.0962.2063.1461.4312.1461.6588 0 .2276-.0499.4525-.1461.6587-.0963.2063-.4729.6251-.6473.7712-3.1173 3.1211-6.7739 1.706-9.90477-1.4254-3.13087-3.1313-4.54323-6.7896-1.41066-9.90139.62706-.61925 1.71351-1.14182 2.61843-.23626l1.1911 1.19193c1.1911 1.19194.3562 1.93533-.4926 2.80371-.92477.92481-.65643 1.72741 0 2.38391l1.8713 1.8725c.3159.3161.7443.4936 1.191.4936.4468 0 .8752-.1775 1.1911-.4936.8624-.8261 1.6952-1.6004 2.8382-.4565ZM14 8.98134l5.0225-4.98132m0 0L15.9926 4m3.0299.00002v2.98135"/>
  </symbol>
  <symbol id="pause" fill="none" viewBox="0 0 24 24">
    <path stroke="currentColor" stroke-linecap="round" stroke-linejoin="round" stroke-width="2" d="M9 6H8a1 1 0 0 0-1 1v10a1 1 0 0 0 1 1h1a1 1 0 0 0 1-1V7a1 1 0 0 0-1-1Zm7 0h-1a1 1 0 0 0-1 1v10a1 1 0 0 0 1 1h1a1 1 0 0 0 1-1V7a1 1 0 0 0-1-1Z"/>
  </symbol>
  <symbol id="play" fill="none" viewBox="0 0 24 24">
    <path stroke="currentColor" stroke-linecap="round" stroke-linejoin="round" stroke-width="2" d="M8 18V6l8 6-8 6Z"/>
  </symbol>
  <symbol id="rectangle-list" fill="none" viewBox="0 0 24 24">
    <path stroke="currentColor" stroke-linecap="round" stroke-linejoin="round" stroke-width="2" d="M11 9h6m-6 3h6m-6 3h6M6.996 9h.01m-.01 3h.01m-.01 3h.01M4 5h16a1 1 0 0 1 1 1v12a1 1 0 0 1-1 1H4a1 1 0 0 1-1-1V6a1 1 0 0 1 1-1Z"/>
  </symbol>
  <symbol id="shuffle" fill="none" viewBox="0 0 24 24">
    <path stroke="currentColor" stroke-linecap="round" stroke-linejoin="round" stroke-width="2" d="M13.484 9.166 15 7h5m0 0-3-3m3 3-3 3M4 17h4l1.577-2.253M4 7h4l7 10h5m0 0-3 3m3-3-3-3"/>
  </symbol>
  <symbol id="stop" fill="none" viewBox="0 0 24 24">
    <rect width="12" height="12" x="6" y="6" stroke="currentColor" stroke-linejoin="round" stroke-width="2" rx="1"/>
  </symbol>
  <symbol id="video-camera" fill="none" viewBox="0 0 24 24">
    <path stroke="currentColor" stroke-linecap="round" stroke-linejoin="round" stroke-width="2" d="M14 6H4a1 1 0 0 0-1 1v10a1 1 0 0 0 1 1h10a1 1 0 0 0 1-1V7a1 1 0 0 0-1-1Zm7 11-6-2V9l6-2v10Z"/>
  </symbol>
  <symbol id="volume-mute" fill="none" viewBox="0 0 24 24">
    <path stroke="currentColor" stroke-linecap="round" stroke-linejoin="round" stroke-width="2" d="M15.5 8.43A4.985 4.985 0 0 1 17 12c0 1.126-.5 2.5-1.5 3.5m2.864-9.864A8.972 8.972 0 0 1 21 12c0 2.023-.5 4.5-2.5 6M7.8 7.5l2.56-2.133a1 1 0 0 1 1.64.768V12m0 4.5v1.365a1 1 0 0 1-1.64.768L6 15H4a1 1 0 0 1-1-1v-4a1 1 0 0 1 1-1m1-4 14 14"/>
  </symbol>
</svg>