<svg xmlns="http://www.w3.org/2000/svg" xmlns:xlink="http://www.w3.org/1999/xlink">
  <symbol id="align-center" fill="none" viewBox="0 0 24 24">
    <path stroke="currentColor" stroke-linecap="round" stroke-linejoin="round" stroke-width="2" d="M8 6h8M6 10h12M8 14h8M6 18h12"/>
  </symbol>
  <symbol id="align-justify" fill="none" viewBox="0 0 24 24">
    <path stroke="currentColor" stroke-linecap="round" stroke-linejoin="round" stroke-width="2" d="M18 6H6m12 4H6m12 4H6m12 4H6"/>
  </symbol>
  <symbol id="align-left" fill="none" viewBox="0 0 24 24">
    <path stroke="currentColor" stroke-linecap="round" stroke-linejoin="round" stroke-width="2" d="M6 6h8m-8 4h12M6 14h8m-8 4h12"/>
  </symbol>
  <symbol id="align-right" fill="none" viewBox="0 0 24 24">
    <path stroke="currentColor" stroke-linecap="round" stroke-linejoin="round" stroke-width="2" d="M18 6h-8m8 4H6m12 4h-8m8 4H6"/>
  </symbol>
  <symbol id="font-color" fill="none" viewBox="0 0 24 24">
    <path stroke="currentColor" stroke-linecap="round" stroke-width="2" d="m6.08169 15.9817 1.57292-4m-1.57292 4h-1.1m1.1 0h1.65m-.07708-4 2.72499-6.92967c.0368-.09379.1673-.09379.2042 0l2.725 6.92967m-5.65419 0h-.00607m.00607 0h5.65419m0 0 .6169 1.569m5.1104 4.453c0 1.1025-.8543 1.9963-1.908 1.9963s-1.908-.8938-1.908-1.9963c0-1.1026 1.908-4.1275 1.908-4.1275s1.908 3.0249 1.908 4.1275Z"/>
  </symbol>
  <symbol id="font-family" fill="none" viewBox="0 0 24 24">
    <path stroke="currentColor" stroke-linecap="round" stroke-linejoin="round" stroke-width="2" d="m10.5785 19 4.2979-10.92966c.0369-.09379.1674-.09379.2042 0L19.3785 19m-8.8 0H9.47851m1.09999 0h1.65m7.15 0h-1.65m1.65 0h1.1m-7.7-3.9846h4.4M3 16l1.56685-3.9846m0 0 2.73102-6.94506c.03688-.09379.16738-.09379.20426 0l2.50367 6.94506H4.56685Z"/>
  </symbol>
  <symbol id="font-highlight" fill="none" viewBox="0 0 24 24">
    <path stroke="currentColor" stroke-linecap="round" stroke-width="2" d="M9 20H5.5c-.27614 0-.5-.2239-.5-.5v-3c0-.2761.22386-.5.5-.5h13c.2761 0 .5.2239.5.5v3c0 .2761-.2239.5-.5.5H18m-6-1 1.42 1.8933c.04.0534.12.0534.16 0L15 19m-7-6 3.9072-9.76789c.0335-.08381.1521-.08381.1856 0L16 13m-8 0H7m1 0h1.5m6.5 0h-1.5m1.5 0h1m-7-3.00001h4"/>
  </symbol>
  <symbol id="horizontal-lines" fill="none" viewBox="0 0 24 24">
    <path stroke="currentColor" stroke-linecap="round" stroke-width="2" d="M5 12h14"/>
    <path stroke="currentColor" stroke-linecap="round" d="M6 9.5h12m-12-2h12m-12-2h12m-12 13h12m-12-2h12m-12-2h12"/>
  </symbol>
  <symbol id="indent" fill="none" viewBox="0 0 24 24">
    <path stroke="currentColor" stroke-linecap="round" stroke-linejoin="round" stroke-width="2" d="M6 6h12M6 18h12m-5-8h5m-5 4h5M6 9v6l3.5-3L6 9Z"/>
  </symbol>
  <symbol id="language" fill="none" viewBox="0 0 24 24">
    <path stroke="currentColor" stroke-linecap="round" stroke-linejoin="round" stroke-width="2" d="m13 19 3.5-9 3.5 9m-6.125-2h5.25M3 7h7m0 0h2m-2 0c0 1.63-.793 3.926-2.239 5.655M7.5 6.818V5m.261 7.655C6.79 13.82 5.521 14.725 4 15m3.761-2.345L5 10m2.761 2.655L10.2 15"/>
  </symbol>
  <symbol id="letter-bold" fill="none" viewBox="0 0 24 24">
    <path stroke="currentColor" stroke-linecap="round" stroke-linejoin="round" stroke-width="2" d="M8 5h4.5a3.5 3.5 0 1 1 0 7H8m0-7v7m0-7H6m2 7h6.5a3.5 3.5 0 1 1 0 7H8m0-7v7m0 0H6"/>
  </symbol>
  <symbol id="letter-italic" fill="none" viewBox="0 0 24 24">
    <path stroke="currentColor" stroke-linecap="round" stroke-linejoin="round" stroke-width="2" d="m8.874 19 6.143-14M6 19h6.33m-.66-14H18"/>
  </symbol>
  <symbol id="letter-underline" fill="none" viewBox="0 0 24 24">
    <path stroke="currentColor" stroke-linecap="round" stroke-width="2" d="M6 19h12M8 5v9a4 4 0 0 0 8 0V5M6 5h4m4 0h4"/>
  </symbol>
  <symbol id="list" fill="none" viewBox="0 0 24 24">
    <path stroke="currentColor" stroke-linecap="round" stroke-width="2" d="M9 8h10M9 12h10M9 16h10M4.99 8H5m-.02 4h.01m0 4H5"/>
  </symbol>
  <symbol id="ordered-list" fill="none" viewBox="0 0 24 24">
    <path stroke="currentColor" stroke-linecap="round" stroke-linejoin="round" stroke-width="2" d="M12 6h8m-8 6h8m-8 6h8M4 16a2 2 0 1 1 3.321 1.5L4 20h5M4 5l2-1v6m-2 0h4"/>
  </symbol>
  <symbol id="outdent" fill="none" viewBox="0 0 24 24">
    <path stroke="currentColor" stroke-linecap="round" stroke-linejoin="round" stroke-width="2" d="M6 6h12M6 18h12m-5-8h5m-5 4h5M9.5 9v6L6 12l3.5-3Z"/>
  </symbol>
  <symbol id="paragraph" fill="none" viewBox="0 0 24 24">
    <path stroke="currentColor" stroke-linecap="round" stroke-linejoin="round" stroke-width="2" d="M12 5v7m0 7v-7m4-7v14m3-14H8.5A3.5 3.5 0 0 0 5 8.5v0A3.5 3.5 0 0 0 8.5 12H12"/>
  </symbol>
  <symbol id="quote" fill="none" viewBox="0 0 24 24">
    <path stroke="currentColor" stroke-linecap="round" stroke-linejoin="round" stroke-width="2" d="M10 11V8a1 1 0 0 0-1-1H6a1 1 0 0 0-1 1v3a1 1 0 0 0 1 1h3a1 1 0 0 0 1-1Zm0 0v2a4 4 0 0 1-4 4H5m14-6V8a1 1 0 0 0-1-1h-3a1 1 0 0 0-1 1v3a1 1 0 0 0 1 1h3a1 1 0 0 0 1-1Zm0 0v2a4 4 0 0 1-4 4h-1"/>
  </symbol>
  <symbol id="subscript" fill="none" viewBox="0 0 24 24">
    <path stroke="currentColor" stroke-linecap="round" stroke-linejoin="round" stroke-width="2" d="M20 20h-4v-.5c1.0989-1.0329 3.75-2.5 3.75-3.5v-1.0001c0-.5523-.4477-.9999-1-.9999H17c-.5522 0-1 .4477-1 1M4.00004 4l9.12206 11.3932m0-11.3932L4 15.3932"/>
  </symbol>
  <symbol id="superscript" fill="none" viewBox="0 0 24 24">
    <path stroke="currentColor" stroke-linecap="round" stroke-linejoin="round" stroke-width="2" d="M20 10h-4v-.5C17.0989 8.46711 19.75 7 19.75 6V4.99989c0-.55228-.4477-.99989-1-.99989H17c-.5523 0-1 .44772-1 1M4 7.30341l9.1221 11.39319m0-11.39319L4 18.6966"/>
  </symbol>
  <symbol id="text-size" fill="none" viewBox="0 0 24 24">
    <path stroke="currentColor" stroke-linecap="round" stroke-linejoin="round" stroke-width="2" d="M3 6.2V5h11v1.2M8 5v14m-3 0h6m2-6.8V11h8v1.2M17 11v8m-1.5 0h3"/>
  </symbol>
  <symbol id="text-slash" fill="none" viewBox="0 0 24 24">
    <path stroke="currentColor" stroke-linecap="round" stroke-linejoin="round" stroke-width="2" d="M7 6.2V5h12v1.2M7 19h6m.2-14-1.677 6.523M9.6 19l1.029-4M5 5l6.523 6.523M19 19l-7.477-7.477"/>
  </symbol>
  <symbol id="text-underline" fill="none" viewBox="0 0 24 24">
    <path stroke="currentColor" stroke-linecap="round" stroke-width="2" d="M5 19h14M7.6 16l4.2979-10.92963c.0368-.09379.1674-.09379.2042 0L16.4 16m-8.8 0H6.5m1.1 0h1.65m7.15 0h-1.65m1.65 0h1.1m-8.33315-4h5.66025"/>
  </symbol>
</svg>