<svg xmlns="http://www.w3.org/2000/svg" xmlns:xlink="http://www.w3.org/1999/xlink">
  <symbol id="moon-plus" fill="none" viewBox="0 0 24 24">
    <path stroke="currentColor" stroke-linecap="round" stroke-linejoin="round" stroke-width="2" d="M17 5v3m0 0v3m0-3h-3m3 0h3m-3.3556 7.0913c-1.6389 0-2.58-.2487-3.7085-.9576-1.1285-.709-2.0191-1.7196-2.5631-2.9086-.54402-1.1891-.71806-2.50523-.5009-3.78809.2172-1.28287.8161-2.47705 1.724-3.43701-1.3427.20491-2.60689.74436-3.66765 1.56511-1.06077.82074-1.88149 1.8944-2.38113 3.11496-.49965 1.22056-.66094 2.54583-.46795 3.84493.19298 1.2992.73357 2.5273 1.56839 3.563.83482 1.0358 1.93501 1.8435 3.19194 2.3433 1.2569.4999 2.6272.6745 3.9754.5068 1.3482-.1676 2.6279-.6719 3.7125-1.463 1.0847-.7911 1.937-1.8416 2.4726-3.0478-1.0063.5199-1.9323.664-3.3556.664Z"/>
  </symbol>
  <symbol id="moon" fill="none" viewBox="0 0 24 24">
    <path stroke="currentColor" stroke-linecap="round" stroke-linejoin="round" stroke-width="2" d="M12 21a9 9 0 0 1-.5-17.986V3c-.354.966-.5 1.911-.5 3a9 9 0 0 0 9 9c.239 0 .254.018.488 0A9.004 9.004 0 0 1 12 21Z"/>
  </symbol>
  <symbol id="sun" fill="none" viewBox="0 0 24 24">
    <path stroke="currentColor" stroke-linecap="round" stroke-linejoin="round" stroke-width="2" d="M12 5V3m0 18v-2M7.05 7.05 5.636 5.636m12.728 12.728L16.95 16.95M5 12H3m18 0h-2M7.05 16.95l-1.414 1.414M18.364 5.636 16.95 7.05M16 12a4 4 0 1 1-8 0 4 4 0 0 1 8 0Z"/>
  </symbol>
</svg>