<svg xmlns="http://www.w3.org/2000/svg" xmlns:xlink="http://www.w3.org/1999/xlink">
  <symbol id="apple" fill="currentColor" viewBox="0 0 24 24">
    <path d="M17.537 12.625a4.421 4.421 0 0 0 2.684 4.047 10.96 10.96 0 0 1-1.384 2.845c-.834 1.218-1.7 2.432-3.062 2.457-1.34.025-1.77-.794-3.3-.794-1.531 0-2.01.769-3.275.82-1.316.049-2.317-1.318-3.158-2.532-1.72-2.484-3.032-7.017-1.27-10.077A4.9 4.9 0 0 1 8.91 6.884c1.292-.025 2.51.869 3.3.869.789 0 2.27-1.075 3.828-.917a4.67 4.67 0 0 1 3.66 1.984 4.524 4.524 0 0 0-2.16 3.805m-2.52-7.432A4.4 4.4 0 0 0 16.06 2a4.482 4.482 0 0 0-2.945 1.516 4.185 4.185 0 0 0-1.061 3.093 3.708 3.708 0 0 0 2.967-1.416Z"/>
  </symbol>
  <symbol id="aws" fill="none" viewBox="0 0 24 24">
    <path fill="currentColor" d="M7.70858 10.176c-.0059.1918.02016.3833.07716.567.05635.1582.12675.3114.21041.4577.02989.0424.04691.0921.04909.1435-.00368.0394-.01708.0774-.03906.1107-.02198.0333-.05189.0609-.08718.0806l-.41382.2664c-.04921.0342-.10786.0533-.16833.0546-.03729-.0006-.07404-.0088-.10786-.0241-.03383-.0153-.06399-.0373-.08852-.0647-.09084-.0886-.17086-.1872-.23847-.2937-.06312-.1093-.12625-.2323-.19638-.3758-.23007.28-.52286.505-.85597.6577-.3331.1528-.69768.2293-1.0658.2236-.23782.0125-.47581-.0215-.69988-.1002-.22407-.0786-.42969-.2002-.60468-.3575-.16281-.1601-.28937-.3516-.37152-.5622s-.11806-.4357-.10542-.6607c-.0085-.2476.04-.49387.14195-.72084.10194-.22696.25475-.42883.44721-.59079.45708-.34704 1.02741-.5217 1.60615-.49187.23468-.00102.46912.01497.70137.04782.24549.03416.49097.08198.75048.13663V8.2153c.03746-.36552-.07329-.73083-.30861-1.0179-.30324-.22803-.68514-.33327-1.06609-.29376-.23624.00109-.47158.02859-.70138.08198-.23919.05528-.47367.12837-.70137.21861l-.23146.08198h-.09819c-.09819 0-.14027-.06832-.14027-.19812v-.31425c-.00622-.07522.00831-.15069.04208-.21861.05218-.0584.1168-.10503.18937-.13663.2626-.12306.53761-.21922.82061-.28693.33218-.08331.67398-.12464 1.01699-.12297.61832-.0525 1.23302.134 1.71136.5192.19644.21006.34589.45761.43886.72693.09297.26931.12744.55452.1012.83751L7.70858 10.176Zm-2.6512.9701c.23887.0003.47605-.039.70138-.1162.23999-.0798.45329-.2214.61721-.4099.10821-.114.18537-.2525.22444-.403.04532-.1811.06654-.36707.06312-.5534v-.28693c-.20607-.04171-.41451-.07136-.62422-.08881H5.4221c-.34289-.02679-.68477.06249-.9679.25277-.10942.08972-.19564.20325-.25168.33142-.05605.12815-.08036.26735-.07095.40635-.01155.1238.00371.2486.04479.3663.04108.1177.10706.2256.19367.3169.19501.1477.4422.214.68735.1845Zm5.25332.6831c-.0889.0081-.178-.0136-.2525-.0615-.07121-.069-.12-.1569-.14028-.2527l-1.529-4.91878c-.03108-.08355-.04997-.17094-.05611-.2596 0-.10247.04909-.15713.1543-.15713h.64527c.08889-.00805.17795.01364.25249.06149.06832.07011.11457.15783.13326.25277L10.6193 10.743l1.031-4.24242c.0108-.09596.0554-.1853.1263-.25277.0771-.04787.1684-.06949.2595-.06149h.526c.0933-.008.1868.01357.2665.06149.0658.07094.1096.15858.1263.25277l1.017 4.24242 1.1292-4.26292c.0187-.09493.0649-.18265.1332-.25277.0746-.04785.1636-.06953.2525-.06148h.6102c.0218-.00213.0437.00047.0643.00761.0205.00714.0392.01865.0547.03369.0154.01503.0272.03323.0345.05326.0074.02004.01.04141.0079.06257.0026.03411.0026.06836 0 .10247 0 0 0 .08881-.0421.15713l-1.5851 4.91874c-.0187.0949-.065.1826-.1333.2528-.0754.0459-.1638.0675-.2525.0614h-.5611c-.0922.0096-.1848-.0148-.2595-.0683-.0695-.0684-.1139-.1572-.1263-.2527l-1.0169-4.09899-1.01 4.09899c-.0124.0955-.0568.1843-.1263.2527-.0753.0524-.1674.0766-.2595.0683l-.5751.0137Zm8.4165.164c-.3399.0015-.6788-.0351-1.01-.1093-.2607-.051-.5131-.136-.7505-.2528-.0839-.039-.1545-.1006-.2034-.1776-.0272-.0579-.0415-.1208-.042-.1845v-.3211c0-.1298.0491-.1981.1473-.1981.0418-.0065.0844-.0065.1262 0l.1613.0683c.2248.0979.46.1712.7014.2186.2558.0543.5168.0818.7785.082.3323.0202.6634-.0534.9539-.2118.1055-.0624.1921-.1509.2512-.2565.0592-.1055.0886-.2244.0855-.3446.0033-.0818-.0106-.1633-.0407-.2397-.0302-.07633-.076-.14588-.1347-.20439-.1899-.16027-.4157-.27492-.6593-.33474l-.9468-.29376c-.4097-.1003-.7758-.32526-1.0451-.64217-.2118-.26596-.3277-.59251-.3296-.92909-.0039-.23873.0566-.47428.1753-.68316.1173-.2053.2774-.38447.4699-.52603.2109-.15082.4487-.26203.7014-.32792.2689-.07547.5478-.11229.8276-.1093.1448-.00996.2901-.00996.4349 0l.4278.06831.3717.10247.2736.10931c.0734.04221.1396.09522.1964.15713.0391.06392.0585.13741.0561.21178v.30058c0 .13664-.0491.20495-.1473.20495-.0891-.00994-.1751-.03786-.2525-.08198-.3981-.16851-.8285-.25236-1.2625-.24593-.3007-.01421-.6002.04695-.8697.17762-.1001.05934-.1817.14411-.236.24521-.0544.1011-.0795.21471-.0726.32864-.0003.08419.0169.16757.0507.24507.0337.07751.0833.14753.1457.20581.207.16139.4457.27994.7014.34842l.9258.28692c.3924.10142.7444.31568 1.01.61484.201.25675.3073.57207.3016.89491.0041.2554-.0535.5082-.1684.7378-.1126.22-.2758.4117-.4769.5602-.2081.163-.4461.2859-.7014.3621-.3061.0959-.6253.1465-.9468.1503l.021-.0068ZM1.95721 14.0043c.08851-.1117.25276-.1417.40291-.0501 2.956 1.6699 6.30435 2.5466 9.71118 2.5424 2.547-.0102 5.0667-.5176 7.4139-1.4927.2212-.0923.442-.0252.5504.1273.0544.0765.0784.1732.056.2731-.0223.0994-.088.1913-.1929.2664l-.0025.0018c-2.374 1.591-5.18 2.437-8.0499 2.4273-3.62804.0192-7.13297-1.2975-9.82873-3.6929.00006 0-.00007-.0001 0 0-.06599-.0585-.10575-.1289-.1154-.2033-.00962-.0742.01189-.1449.05504-.1993Z"/>
    <path fill="currentColor" d="M21.9852 13.2357c-.0506-.0587-.1329-.1058-.2258-.1441-.0959-.0396-.2151-.0746-.3508-.1035-.2719-.0579-.6185-.093-.9967-.0876-.7541.0108-1.6508.183-2.3341.6748-.1118.0805-.1949.1945-.1751.3147.0225.1362.1551.1917.2864.1917l.0241-.003c.375-.0465.9652-.1198 1.5-.134.2706-.0072.5225.0009.7232.0339.1003.0164.1845.0386.2506.0663.0667.028.1084.0591.1318.0896l.001.0013c.0211.0266.0396.072.0489.1434.0092.0704.0085.1579-.0018.2604-.0204.2049-.0773.456-.1527.723-.1173.4156-.2758.8577-.4014 1.2081-.0355.0991-.0684.1909-.097.2727-.0253.0645-.0344.13-.0204.1901.0147.063.0538.1145.1113.143.1108.0549.2469.0095.3548-.0833.6431-.5509 1.0488-1.3947 1.2591-2.1349.1055-.3712.1632-.7208.1764-1.0006.0065-.1398.0021-.2647-.0141-.3675-.0155-.099-.0442-.1922-.0977-.2545Z"/>
  </symbol>
  <symbol id="bitcoin" fill="none" viewBox="0 0 24 24">
    <path fill="currentColor" d="M10.7367 14.5876c.895.2365 2.8528.754 3.1643-.4966.3179-1.2781-1.5795-1.7039-2.5053-1.9117-.1034-.0232-.1947-.0437-.2694-.0623l-.6025 2.4153c.0611.0152.1328.0341.2129.0553Zm.8452-3.5291c.7468.1993 2.3746.6335 2.6581-.5025.2899-1.16213-1.2929-1.5124-2.066-1.68348-.0869-.01923-.1635-.03619-.2262-.0518l-.5462 2.19058c.0517.0129.1123.0291.1803.0472Z"/>
    <path fill="currentColor" fill-rule="evenodd" d="M9.57909 21.7008c5.35781 1.3356 10.78401-1.9244 12.11971-7.2816 1.3356-5.35745-1.9247-10.78433-7.2822-12.11995C9.06034.963624 3.6344 4.22425 2.2994 9.58206.963461 14.9389 4.22377 20.3652 9.57909 21.7008ZM14.2085 8.0526c1.3853.47719 2.3984 1.1925 2.1997 2.5231-.1441.9741-.6844 1.4456-1.4013 1.6116.9844.5128 1.485 1.2987 1.0078 2.6612-.5915 1.6919-1.9987 1.8347-3.8697 1.4807l-.454 1.8196-1.0972-.2734.4481-1.7953c-.2844-.0706-.575-.1456-.8741-.2269l-.44996 1.8038-1.09594-.2735.45407-1.8234c-.10059-.0258-.20185-.0522-.30385-.0788-.15753-.0411-.3168-.0827-.47803-.1231l-1.42812-.3559.54468-1.2563s.80844.215.7975.1991c.31063.0769.44844-.1256.50282-.2606l.71781-2.8766.11562.0288c-.04375-.0175-.08343-.0288-.11406-.0366l.51188-2.05344c.01375-.23312-.06688-.52719-.51125-.63812.01718-.01157-.79688-.19813-.79688-.19813l.29188-1.17187 1.51313.37781-.0013.00562c.2275.05657.4619.11032.7007.16469l.4497-1.80187 1.0965.27343-.4406 1.76657c.2944.06718.5906.135.8787.20687l.4375-1.755 1.0975.27344-.4493 1.8025Z" clip-rule="evenodd"/>
  </symbol>
  <symbol id="css" fill="currentColor" viewBox="0 0 24 24">
    <path d="m3 2 1.578 17.834L12 22l7.468-2.165L21 2H3Zm13.3 14.722-4.293 1.204H12l-4.297-1.204-.297-3.167h2.108l.15 1.526 2.335.639 2.34-.64.245-3.05h-7.27l-.187-2.006h7.64l.174-2.006H6.924l-.176-2.006h10.506l-.954 10.71Z"/>
  </symbol>
  <symbol id="discord" fill="currentColor" viewBox="0 0 24 24">
    <path d="M18.942 5.556a16.3 16.3 0 0 0-4.126-1.3 12.04 12.04 0 0 0-.529 1.1 15.175 15.175 0 0 0-4.573 0 11.586 11.586 0 0 0-.535-1.1 16.274 16.274 0 0 0-4.129 1.3 17.392 17.392 0 0 0-2.868 11.662 15.785 15.785 0 0 0 4.963 2.521c.41-.564.773-1.16 1.084-1.785a10.638 10.638 0 0 1-1.706-.83c.143-.106.283-.217.418-.331a11.664 11.664 0 0 0 10.118 0c.137.114.277.225.418.331-.544.328-1.116.606-1.71.832a12.58 12.58 0 0 0 1.084 1.785 16.46 16.46 0 0 0 5.064-2.595 17.286 17.286 0 0 0-2.973-11.59ZM8.678 14.813a1.94 1.94 0 0 1-1.8-2.045 1.93 1.93 0 0 1 1.8-2.047 1.918 1.918 0 0 1 1.8 2.047 1.929 1.929 0 0 1-1.8 2.045Zm6.644 0a1.94 1.94 0 0 1-1.8-2.045 1.93 1.93 0 0 1 1.8-2.047 1.919 1.919 0 0 1 1.8 2.047 1.93 1.93 0 0 1-1.8 2.045Z"/>
  </symbol>
  <symbol id="dribbble" fill="currentColor" viewBox="0 0 24 24">
    <path fill-rule="evenodd" d="M12 2a10 10 0 1 0 10 10A10.009 10.009 0 0 0 12 2Zm6.613 4.614a8.523 8.523 0 0 1 1.93 5.32 20.093 20.093 0 0 0-5.949-.274c-.059-.149-.122-.292-.184-.441a23.879 23.879 0 0 0-.566-1.239 11.41 11.41 0 0 0 4.769-3.366ZM10 3.707a8.82 8.82 0 0 1 2-.238 8.5 8.5 0 0 1 5.664 2.152 9.608 9.608 0 0 1-4.476 3.087A45.755 45.755 0 0 0 10 3.707Zm-6.358 6.555a8.57 8.57 0 0 1 4.73-5.981 53.99 53.99 0 0 1 3.168 4.941 32.078 32.078 0 0 1-7.9 1.04h.002Zm2.01 7.46a8.51 8.51 0 0 1-2.2-5.707v-.262a31.641 31.641 0 0 0 8.777-1.219c.243.477.477.964.692 1.449-.114.032-.227.067-.336.1a13.569 13.569 0 0 0-6.942 5.636l.009.003ZM12 20.556a8.508 8.508 0 0 1-5.243-1.8 11.717 11.717 0 0 1 6.7-5.332.509.509 0 0 1 .055-.02 35.65 35.65 0 0 1 1.819 6.476 8.476 8.476 0 0 1-3.331.676Zm4.772-1.462A37.232 37.232 0 0 0 15.113 13a12.513 12.513 0 0 1 5.321.364 8.56 8.56 0 0 1-3.66 5.73h-.002Z" clip-rule="evenodd"/>
  </symbol>
  <symbol id="dropbox" fill="currentColor" viewBox="0 0 24 24">
    <path d="M12.013 6.175 7.006 9.369l5.007 3.194-5.007 3.193L2 12.545l5.006-3.193L2 6.175l5.006-3.194 5.007 3.194ZM6.981 17.806l5.006-3.193 5.006 3.193L11.987 21l-5.006-3.194Z"/>
    <path d="m12.013 12.545 5.006-3.194-5.006-3.176 4.98-3.194L22 6.175l-5.007 3.194L22 12.562l-5.007 3.194-4.98-3.211Z"/>
  </symbol>
  <symbol id="facebook" fill="currentColor" viewBox="0 0 24 24">
    <path fill-rule="evenodd" d="M13.135 6H15V3h-1.865a4.147 4.147 0 0 0-4.142 4.142V9H7v3h2v9.938h3V12h2.021l.592-3H12V6.591A.6.6 0 0 1 12.592 6h.543Z" clip-rule="evenodd"/>
  </symbol>
  <symbol id="flowbite" fill="currentColor" viewBox="0 0 24 24">
    <path d="M15.907 11.998 10.332 9.23a.9.9 0 0 1-.16-.037l-.018-.007v6.554c0 .017.008.034.01.051l2.388-2.974 3.355-.82Z"/>
    <path d="m11.463 4.054 5.579 3.323A4.02 4.02 0 0 1 18.525 9c.332.668.47 1.414.398 2.155a3.07 3.07 0 0 1-.745 1.65 3.108 3.108 0 0 1-1.55.951c-.022.007-.045.005-.07.01-.062.03-.126.057-.191.08l-2.72.667-1.992 2.48c-.18.227-.41.409-.67.534.047.034.085.077.137.107a2.05 2.05 0 0 0 1.995.035c.592-.33 2.15-1.201 4.636-2.892l.28-.19c1.328-.895 3.616-2.442 3.967-4.215a9.94 9.94 0 0 0-1.713-4.154 10.027 10.027 0 0 0-3.375-2.989 10.107 10.107 0 0 0-8.802-.418c1.162.287 2.287.704 3.354 1.243Z"/>
    <path d="M5.382 17.082v-6.457a3.7 3.7 0 0 1 .45-1.761 3.733 3.733 0 0 1 1.238-1.34 3.915 3.915 0 0 1 3.433-.245c.176.03.347.084.508.161l5.753 2.856c.082.05.161.105.236.165a2.128 2.128 0 0 0-.953-1.455l-5.51-3.284c-1.74-.857-3.906-1.523-5.244-1.097a9.96 9.96 0 0 0-2.5 3.496 9.895 9.895 0 0 0 .283 8.368 9.973 9.973 0 0 0 2.73 3.322 17.161 17.161 0 0 1-.424-2.729Z"/>
    <path d="m19.102 16.163-.272.183c-2.557 1.74-4.169 2.64-4.698 2.935a4.083 4.083 0 0 1-2 .53 3.946 3.946 0 0 1-1.983-.535 3.788 3.788 0 0 1-1.36-1.361 3.752 3.752 0 0 1-.51-1.85 1.812 1.812 0 0 1-.043-.26V9.143c0-.024.009-.046.01-.07-.056.02-.11.043-.162.07a1.796 1.796 0 0 0-.787 1.516v6.377a10.67 10.67 0 0 0 1.113 4.27 10.11 10.11 0 0 0 8.505-.53 10.022 10.022 0 0 0 3.282-2.858 9.936 9.936 0 0 0 1.75-3.97 19.615 19.615 0 0 1-2.845 2.216Z"/>
  </symbol>
  <symbol id="github" fill="currentColor" viewBox="0 0 24 24">
    <path fill-rule="evenodd" d="M12.006 2a9.847 9.847 0 0 0-6.484 2.44 10.32 10.32 0 0 0-3.393 6.17 10.48 10.48 0 0 0 1.317 6.955 10.045 10.045 0 0 0 5.4 4.418c.504.095.683-.223.683-.494 0-.245-.01-1.052-.014-1.908-2.78.62-3.366-1.21-3.366-1.21a2.711 2.711 0 0 0-1.11-1.5c-.907-.637.07-.621.07-.621.317.044.62.163.885.346.266.183.487.426.647.71.135.253.318.476.538.655a2.079 2.079 0 0 0 2.37.196c.045-.52.27-1.006.635-1.37-2.219-.259-4.554-1.138-4.554-5.07a4.022 4.022 0 0 1 1.031-2.75 3.77 3.77 0 0 1 .096-2.713s.839-.275 2.749 1.05a9.26 9.26 0 0 1 5.004 0c1.906-1.325 2.74-1.05 2.74-1.05.37.858.406 1.828.101 2.713a4.017 4.017 0 0 1 1.029 2.75c0 3.939-2.339 4.805-4.564 5.058a2.471 2.471 0 0 1 .679 1.897c0 1.372-.012 2.477-.012 2.814 0 .272.18.592.687.492a10.05 10.05 0 0 0 5.388-4.421 10.473 10.473 0 0 0 1.313-6.948 10.32 10.32 0 0 0-3.39-6.165A9.847 9.847 0 0 0 12.007 2Z" clip-rule="evenodd"/>
  </symbol>
  <symbol id="gitlab" fill="none" viewBox="0 0 24 24">
    <path fill="currentColor" d="m20.7011 10.1255-.0253-.0672-2.4501-6.63953c-.0498-.13013-.1381-.24053-.2521-.31534-.1141-.07354-.2472-.10896-.3812-.10147-.1341.00748-.2628.05751-.3686.14332-.1047.08828-.1806.2079-.2175.34259l-1.6543 5.2556H8.65334l-1.65429-5.2556c-.03588-.13542-.11197-.25564-.21745-.34356-.10584-.08582-.23449-.13584-.36857-.14333-.13409-.00748-.26716.02794-.38125.10148-.11376.07511-.20195.18541-.25213.31534l-2.45472 6.6367-.02437.0671c-.35269.9569-.39623 2.007-.12404 2.9918.27219.9849.84535 1.8511 1.63305 2.4682l.00844.0068.02249.0166 3.73223 2.9022 1.84647 1.4512 1.1247.8817c.1316.1037.2922.1599.4574.1599.1652 0 .3258-.0562.4574-.1599l1.1247-.8817 1.8464-1.4512 3.7548-2.9198.0093-.0077c.786-.6172 1.3578-1.4826 1.6296-2.4661.2717-.9835.2288-2.0321-.1224-2.9881Z"/>
  </symbol>
  <symbol id="google" fill="currentColor" viewBox="0 0 24 24">
    <path fill-rule="evenodd" d="M12.037 21.998a10.313 10.313 0 0 1-7.168-3.049 9.888 9.888 0 0 1-2.868-7.118 9.947 9.947 0 0 1 3.064-6.949A10.37 10.37 0 0 1 12.212 2h.176a9.935 9.935 0 0 1 6.614 2.564L16.457 6.88a6.187 6.187 0 0 0-4.131-1.566 6.9 6.9 0 0 0-4.794 1.913 6.618 6.618 0 0 0-2.045 4.657 6.608 6.608 0 0 0 1.882 4.723 6.891 6.891 0 0 0 4.725 2.07h.143c1.41.072 2.8-.354 3.917-1.2a5.77 5.77 0 0 0 2.172-3.41l.043-.117H12.22v-3.41h9.678c.075.617.109 1.238.1 1.859-.099 5.741-4.017 9.6-9.746 9.6l-.215-.002Z" clip-rule="evenodd"/>
  </symbol>
  <symbol id="html" fill="currentColor" viewBox="0 0 24 24">
    <path d="m3 2 1.578 17.824L12 22l7.467-2.175L21 2H3Zm14.049 6.048H9.075l.172 2.016h7.697l-.626 6.565-4.246 1.381-4.281-1.455-.288-2.932h2.024l.16 1.411 2.4.815 2.346-.763.297-3.005H7.416l-.562-6.05h10.412l-.217 2.017Z"/>
  </symbol>
  <symbol id="instagram" fill="none" viewBox="0 0 24 24">
    <path fill="currentColor" fill-rule="evenodd" d="M3 8a5 5 0 0 1 5-5h8a5 5 0 0 1 5 5v8a5 5 0 0 1-5 5H8a5 5 0 0 1-5-5V8Zm5-3a3 3 0 0 0-3 3v8a3 3 0 0 0 3 3h8a3 3 0 0 0 3-3V8a3 3 0 0 0-3-3H8Zm7.597 2.214a1 1 0 0 1 1-1h.01a1 1 0 1 1 0 2h-.01a1 1 0 0 1-1-1ZM12 9a3 3 0 1 0 0 6 3 3 0 0 0 0-6Zm-5 3a5 5 0 1 1 10 0 5 5 0 0 1-10 0Z" clip-rule="evenodd"/>
  </symbol>
  <symbol id="laravel" fill="none" viewBox="0 0 24 24">
    <path stroke="currentColor" stroke-linejoin="round" d="m17 13 3.4641-2V7L17 5l-3.4641 2v4M17 13l-3.4641-2M17 13v4l-7.00001 4M17 13V9m0 4-7.00001 4m3.53591-6L10.5 12.7348M9.99999 21l-3.4641-2.1318M9.99999 21v-4m-3.4641 2v-.1318m0 0V15L10.5 12.7348m-3.96411 6.1334L3.5 17V5m0 0L7 3l3.5 2m-7 0 2.99999 2M10.5 5v7.7348M10.5 5 6.49999 7M17 9l3.5-2M17 9l-3.5-2M9.99999 17l-3.5-2m0 .5V7"/>
  </symbol>
  <symbol id="linkedin" fill="currentColor" viewBox="0 0 24 24">
    <path fill-rule="evenodd" d="M12.51 8.796v1.697a3.738 3.738 0 0 1 3.288-1.684c3.455 0 4.202 2.16 4.202 4.97V19.5h-3.2v-5.072c0-1.21-.244-2.766-2.128-2.766-1.827 0-2.139 1.317-2.139 2.676V19.5h-3.19V8.796h3.168ZM7.2 6.106a1.61 1.61 0 0 1-.988 1.483 1.595 1.595 0 0 1-1.743-.348A1.607 1.607 0 0 1 5.6 4.5a1.601 1.601 0 0 1 1.6 1.606Z" clip-rule="evenodd"/>
    <path d="M7.2 8.809H4V19.5h3.2V8.809Z"/>
  </symbol>
  <symbol id="mastercard" fill="none" viewBox="0 0 24 24">
    <path fill="currentColor" fill-rule="evenodd" d="M4 4a2 2 0 0 0-2 2v12a2 2 0 0 0 2 2h16a2 2 0 0 0 2-2V6a2 2 0 0 0-2-2H4Zm5.178 12.137a4.137 4.137 0 1 1 1.036-8.144A6.113 6.113 0 0 0 8.726 12c0 1.531.56 2.931 1.488 4.006a4.114 4.114 0 0 1-1.036.131ZM10.726 12c0-1.183.496-2.252 1.294-3.006A4.125 4.125 0 0 1 13.315 12a4.126 4.126 0 0 1-1.294 3.006A4.126 4.126 0 0 1 10.726 12Zm4.59 0a6.11 6.11 0 0 1-1.489 4.006 4.137 4.137 0 1 0 0-8.013A6.113 6.113 0 0 1 15.315 12Z" clip-rule="evenodd"/>
  </symbol>
  <symbol id="mongo-db" fill="none" viewBox="0 0 24 24">
    <path fill="currentColor" fill-rule="evenodd" d="M7.29395 11.8039c0-3.96638 2.13959-6.41723 3.53335-8.01378.6733-.7712 1.1725-1.34306 1.1725-1.79012 0 .44706.4993 1.01892 1.1725 1.79013 1.3938 1.59654 3.5334 4.04739 3.5334 8.01377 0 4.3266-2.7501 6.9507-4.0764 7.7654L12.3701 22h-.7071l-.2906-2.4295c-1.3255-.8132-4.07845-3.4378-4.07845-7.7666Zm4.06395 6.7007.6419-9.44578.649 9.44578-.649.7503-.6419-.7503Z" clip-rule="evenodd"/>
  </symbol>
  <symbol id="npm" fill="currentColor" viewBox="0 0 24 24">
    <path stroke="currentColor" stroke-linecap="round" stroke-linejoin="round" stroke-width="2" d="M12 3.87H4v16h8v-13h5v13h3v-16h-8Z"/>
  </symbol>
  <symbol id="react" fill="currentColor" viewBox="0 0 24 24">
    <path d="M21.718 12c0-1.429-1.339-2.681-3.467-3.5.029-.18.077-.37.1-.545.217-2.058-.273-3.543-1.379-4.182-1.235-.714-2.983-.186-4.751 1.239C10.45 3.589 8.7 3.061 7.468 3.773c-1.107.639-1.6 2.124-1.379 4.182.018.175.067.365.095.545-2.127.819-3.466 2.071-3.466 3.5 0 1.429 1.339 2.681 3.466 3.5-.028.18-.077.37-.095.545-.218 2.058.272 3.543 1.379 4.182.376.213.803.322 1.235.316a5.987 5.987 0 0 0 3.514-1.56 5.992 5.992 0 0 0 3.515 1.56 2.44 2.44 0 0 0 1.236-.316c1.106-.639 1.6-2.124 1.379-4.182-.019-.175-.067-.365-.1-.545 2.132-.819 3.471-2.071 3.471-3.5Zm-6.01-7.548a1.5 1.5 0 0 1 .76.187c.733.424 1.055 1.593.884 3.212-.012.106-.043.222-.058.33-.841-.243-1.7-.418-2.57-.523a16.165 16.165 0 0 0-1.747-1.972 4.9 4.9 0 0 1 2.731-1.234Zm-7.917 8.781c.172.34.335.68.529 1.017.194.337.395.656.6.969a14.09 14.09 0 0 1-1.607-.376 14.38 14.38 0 0 1 .478-1.61Zm-.479-4.076a14.085 14.085 0 0 1 1.607-.376c-.205.313-.405.634-.6.969-.195.335-.357.677-.529 1.017-.19-.527-.35-1.064-.478-1.61ZM8.3 12a19.32 19.32 0 0 1 .888-1.75c.33-.568.69-1.118 1.076-1.65.619-.061 1.27-.1 1.954-.1.684 0 1.333.035 1.952.1a19.63 19.63 0 0 1 1.079 1.654c.325.567.621 1.15.887 1.746a18.869 18.869 0 0 1-1.953 3.403 19.218 19.218 0 0 1-3.931 0 20.169 20.169 0 0 1-1.066-1.653A19.324 19.324 0 0 1 8.3 12Zm7.816 2.25c.2-.337.358-.677.53-1.017.191.527.35 1.065.478 1.611a14.48 14.48 0 0 1-1.607.376c.202-.314.404-.635.597-.97h.002Zm.53-3.483c-.172-.34-.335-.68-.53-1.017a20.214 20.214 0 0 0-.6-.97c.542.095 1.078.22 1.606.376a14.111 14.111 0 0 1-.478 1.611h.002ZM12.217 6.34c.4.375.777.773 1.13 1.193-.37-.02-.746-.033-1.129-.033s-.76.013-1.131.033c.353-.42.73-.817 1.13-1.193Zm-4.249-1.7a1.5 1.5 0 0 1 .76-.187 4.9 4.9 0 0 1 2.729 1.233A16.253 16.253 0 0 0 9.71 7.658c-.87.105-1.728.28-2.569.524-.015-.109-.047-.225-.058-.331-.171-1.619.151-2.787.885-3.211ZM3.718 12c0-.9.974-1.83 2.645-2.506.218.857.504 1.695.856 2.506-.352.811-.638 1.65-.856 2.506C4.692 13.83 3.718 12.9 3.718 12Zm4.25 7.361c-.734-.423-1.056-1.593-.885-3.212.011-.106.043-.222.058-.331.84.243 1.697.418 2.564.524a16.37 16.37 0 0 0 1.757 1.982c-1.421 1.109-2.714 1.488-3.494 1.037Zm3.11-2.895c.374.021.753.034 1.14.034.387 0 .765-.013 1.139-.034a14.4 14.4 0 0 1-1.14 1.215 14.248 14.248 0 0 1-1.139-1.215Zm5.39 2.895c-.782.451-2.075.072-3.5-1.038a16.248 16.248 0 0 0 1.757-1.981 16.41 16.41 0 0 0 2.565-.523c.015.108.046.224.058.33.175 1.619-.148 2.789-.88 3.212Zm1.6-4.854A16.563 16.563 0 0 0 17.216 12c.352-.812.638-1.65.856-2.507 1.671.677 2.646 1.607 2.646 2.507 0 .9-.975 1.83-2.646 2.507h-.004Z"/>
    <path d="M12.215 13.773a1.792 1.792 0 1 0-1.786-1.8v.006a1.787 1.787 0 0 0 1.786 1.794Z"/>
  </symbol>
  <symbol id="reddit" fill="none" viewBox="0 0 24 24">
    <path fill="currentColor" d="M12.008 16.521a3.84 3.84 0 0 0 2.47-.77v.04a.281.281 0 0 0 .005-.396.281.281 0 0 0-.395-.005 3.291 3.291 0 0 1-2.09.61 3.266 3.266 0 0 1-2.081-.63.27.27 0 0 0-.38.381 3.84 3.84 0 0 0 2.47.77Z"/>
    <path fill="currentColor" fill-rule="evenodd" d="M22 12c0 5.523-4.477 10-10 10S2 17.523 2 12 6.477 2 12 2s10 4.477 10 10Zm-4.845-1.407A1.463 1.463 0 0 1 18.67 12a1.46 1.46 0 0 1-.808 1.33c.01.146.01.293 0 .44 0 2.242-2.61 4.061-5.829 4.061s-5.83-1.821-5.83-4.061a3.25 3.25 0 0 1 0-.44 1.458 1.458 0 0 1-.457-2.327 1.458 1.458 0 0 1 2.063-.064 7.163 7.163 0 0 1 3.9-1.23l.738-3.47v-.006a.31.31 0 0 1 .37-.236l2.452.49a1 1 0 1 1-.132.611l-2.14-.45-.649 3.12a7.11 7.11 0 0 1 3.85 1.23c.259-.246.6-.393.957-.405Z" clip-rule="evenodd"/>
    <path fill="currentColor" d="M15.305 13a1 1 0 1 1-2 0 1 1 0 0 1 2 0Zm-4.625 0a1 1 0 1 1-2 0 1 1 0 0 1 2 0Z"/>
  </symbol>
  <symbol id="stackoverflow" fill="currentColor" viewBox="0 0 24 24">
    <path d="M17 20v-5h2v6.988H3V15h1.98v5H17Z"/>
    <path d="m6.84 14.522 8.73 1.825.369-1.755-8.73-1.825-.369 1.755Zm1.155-4.323 8.083 3.764.739-1.617-8.083-3.787-.739 1.64Zm3.372-5.481L10.235 6.08l6.859 5.704 1.132-1.362-6.859-5.704ZM15.57 17H6.655v2h8.915v-2ZM12.861 3.111l6.193 6.415 1.414-1.415-6.43-6.177-1.177 1.177Z"/>
  </symbol>
  <symbol id="tailwind" fill="currentColor" viewBox="0 0 24 24">
    <path d="M11.782 5.72a4.773 4.773 0 0 0-4.8 4.173 3.43 3.43 0 0 1 2.741-1.687c1.689 0 2.974 1.972 3.758 2.587a5.733 5.733 0 0 0 5.382.935c2-.638 2.934-2.865 3.137-3.921-.969 1.379-2.44 2.207-4.259 1.231-1.253-.673-2.19-3.438-5.959-3.318ZM6.8 11.979A4.772 4.772 0 0 0 2 16.151a3.431 3.431 0 0 1 2.745-1.687c1.689 0 2.974 1.972 3.758 2.587a5.733 5.733 0 0 0 5.382.935c2-.638 2.933-2.865 3.137-3.921-.97 1.379-2.44 2.208-4.259 1.231-1.253-.673-2.19-3.443-5.963-3.317Z"/>
  </symbol>
  <symbol id="twitter" fill="currentColor" viewBox="0 0 24 24">
    <path fill-rule="evenodd" d="M22 5.892a8.178 8.178 0 0 1-2.355.635 4.074 4.074 0 0 0 1.8-2.235 8.343 8.343 0 0 1-2.605.981A4.13 4.13 0 0 0 15.85 4a4.068 4.068 0 0 0-4.1 4.038c0 .31.035.618.105.919A11.705 11.705 0 0 1 3.4 4.734a4.006 4.006 0 0 0 1.268 5.392 4.165 4.165 0 0 1-1.859-.5v.05A4.057 4.057 0 0 0 6.1 13.635a4.192 4.192 0 0 1-1.856.07 4.108 4.108 0 0 0 3.831 2.807A8.36 8.36 0 0 1 2 18.184 11.732 11.732 0 0 0 8.291 20 11.502 11.502 0 0 0 19.964 8.5c0-.177 0-.349-.012-.523A8.143 8.143 0 0 0 22 5.892Z" clip-rule="evenodd"/>
  </symbol>
  <symbol id="visa" fill="currentColor" viewBox="0 0 24 24">
    <path fill="none" d="M17.4 12.6h1l-.3-1.4v-.4l-.2.4-.5 1.4Z"/>
    <path fill="currentColor" fill-rule="evenodd" d="M2 6.3c0-1.1.9-2 2-2h16a2 2 0 0 1 2 2v12a2 2 0 0 1-2 2H4a2 2 0 0 1-2-2v-12Zm12.5 3.2c.4 0 .8 0 1.1.2l-.1 1h-.1a2 2 0 0 0-1-.3c-.5 0-.7.3-.7.5s.2.3.7.5c.7.4 1 .8 1 1.3 0 1-.8 1.7-2.2 1.7-.6 0-1.1-.2-1.4-.3l.2-1h.1c.4.2.7.3 1.2.3.4 0 .8-.2.8-.5 0-.2-.2-.3-.7-.6-.5-.2-1.1-.6-1.1-1.3 0-.9 1-1.5 2.2-1.5Zm3.5 0h1l1 4.8h-1.2l-.2-.7H17l-.3.7h-1.3l1.9-4.4c.1-.3.3-.3.7-.3Zm-6.2 0h-1.3l-.8 4.8H11l.8-4.8Zm-4.5 3.3-.1-.7-.5-2.2c0-.3-.3-.3-.6-.4h-2v.1l1.2.5.1.2 1.1 4H8l2-4.7H8.7l-1.3 3.2Z" clip-rule="evenodd"/>
  </symbol>
  <symbol id="vue" fill="currentColor" viewBox="0 0 24 24">
    <path d="M14.5 3 12 7.156 9.857 3H2l10 18L22 3h-7.5ZM4.486 4.5h2.4L12 13.8l5.107-9.3h2.4L12 18.021 4.486 4.5Z"/>
  </symbol>
  <symbol id="whatsapp" fill="none" viewBox="0 0 24 24">
    <path fill="currentColor" fill-rule="evenodd" d="M12 4a8 8 0 0 0-6.895 12.06l.569.718-.697 2.359 2.32-.648.379.243A8 8 0 1 0 12 4ZM2 12C2 6.477 6.477 2 12 2s10 4.477 10 10-4.477 10-10 10a9.96 9.96 0 0 1-5.016-1.347l-4.948 1.382 1.426-4.829-.006-.007-.033-.055A9.958 9.958 0 0 1 2 12Z" clip-rule="evenodd"/>
    <path fill="currentColor" d="M16.735 13.492c-.038-.018-1.497-.736-1.756-.83a1.008 1.008 0 0 0-.34-.075c-.196 0-.362.098-.49.291-.146.217-.587.732-.723.886-.018.02-.042.045-.057.045-.013 0-.239-.093-.307-.123-1.564-.68-2.751-2.313-2.914-2.589-.023-.04-.024-.057-.024-.057.005-.021.058-.074.085-.101.08-.079.166-.182.249-.283l.117-.14c.121-.14.175-.25.237-.375l.033-.066a.68.68 0 0 0-.02-.64c-.034-.069-.65-1.555-.715-1.711-.158-.377-.366-.552-.655-.552-.027 0 0 0-.112.005-.137.005-.883.104-1.213.311-.35.22-.94.924-.94 2.16 0 1.112.705 2.162 1.008 2.561l.041.06c1.161 1.695 2.608 2.951 4.074 3.537 1.412.564 2.081.63 2.461.63.16 0 .288-.013.4-.024l.072-.007c.488-.043 1.56-.599 1.804-1.276.192-.534.243-1.117.115-1.329-.088-.144-.239-.216-.43-.308Z"/>
  </symbol>
  <symbol id="windows" fill="none" viewBox="0 0 24 24">
    <path fill="currentColor" fill-rule="evenodd" d="M3.005 12 3 6.408l6.8-.923v6.517H3.005ZM11 5.32 19.997 4v8H11V5.32ZM20.067 13l-.069 8-9.065-1.275L11 13h9.067ZM9.8 19.58l-6.795-.931V13H9.8v6.58Z" clip-rule="evenodd"/>
  </symbol>
  <symbol id="X" fill="currentColor" viewBox="0 0 24 24">
    <path d="M13.795 10.533 20.68 2h-3.073l-5.255 6.517L7.69 2H1l7.806 10.91L1.47 22h3.074l5.705-7.07L15.31 22H22l-8.205-11.467Zm-2.38 2.95L9.97 11.464 4.36 3.627h2.31l4.528 6.317 1.443 2.02 6.018 8.409h-2.31l-4.934-6.89Z"/>
  </symbol>
  <symbol id="youtube" fill="currentColor" viewBox="0 0 24 24">
    <path fill-rule="evenodd" d="M21.7 8.037a4.26 4.26 0 0 0-.789-1.964 2.84 2.84 0 0 0-1.984-.839c-2.767-.2-6.926-.2-6.926-.2s-4.157 0-6.928.2a2.836 2.836 0 0 0-1.983.839 4.225 4.225 0 0 0-.79 1.965 30.146 30.146 0 0 0-.2 3.206v1.5a30.12 30.12 0 0 0 .2 3.206c.094.712.364 1.39.784 1.972.604.536 1.38.837 2.187.848 1.583.151 6.731.2 6.731.2s4.161 0 6.928-.2a2.844 2.844 0 0 0 1.985-.84 4.27 4.27 0 0 0 .787-1.965 30.12 30.12 0 0 0 .2-3.206v-1.516a30.672 30.672 0 0 0-.202-3.206Zm-11.692 6.554v-5.62l5.4 2.819-5.4 2.801Z" clip-rule="evenodd"/>
  </symbol>
</svg>