<svg xmlns="http://www.w3.org/2000/svg" xmlns:xlink="http://www.w3.org/1999/xlink">
  <symbol id="font-scale" viewBox="0 0 44 42" fill="none">
    <path fill-rule="evenodd" clip-rule="evenodd" d="M22.1666 4.56004C28.4473 4.26111 33.7828 9.08754 34.0836 15.3403C34.3841 21.5934 29.5354 26.9052 23.2545 27.2046C16.9735 27.5038 11.638 22.6775 11.3375 16.4243C11.0369 10.1711 15.8854 4.85913 22.1666 4.56004ZM31.3238 15.2368C30.9603 10.4888 26.791 6.93767 22.023 7.31493C17.2771 7.6907 13.7306 11.8183 14.0924 16.5444C14.4543 21.2704 18.5882 24.8149 23.3365 24.4702C28.1068 24.1237 31.6872 19.9848 31.3238 15.2368Z" fill="currentColor"/>
    <path d="M22.2881 9.9043C22.7425 9.94245 23.5854 9.91918 24.0684 9.9209C24.587 11.0329 25.289 13.3185 25.708 14.5752L28.1338 21.6514C27.5529 21.6526 26.9768 21.6621 26.3975 21.6172C26.3472 21.2521 26.1583 20.7371 26.043 20.3779C25.7884 19.5847 25.4916 18.8019 25.2773 17.9961L24.1211 18.001C23.0785 17.9937 22.0358 17.9932 20.9932 17.998C20.7814 19.0746 20.1753 20.47 19.8965 21.6494C19.3432 21.6572 18.7789 21.6533 18.2246 21.6543C18.6177 20.7117 18.874 19.6186 19.2383 18.6572C20.3332 15.7675 21.1577 12.7782 22.2881 9.9043ZM23.1738 11.2842C22.6676 12.7467 22.3522 13.8962 21.8096 15.4922C21.6563 15.9092 21.5299 16.3715 21.3789 16.7744C21.9771 16.7658 22.5756 16.7614 23.1738 16.7607C23.7477 16.7625 24.3282 16.759 24.9014 16.7686C24.5531 15.5819 24.2075 14.4532 23.8223 13.2686C23.6842 12.8439 23.3235 11.6115 23.1738 11.2842Z" fill="currentColor"/>
    <path d="M32.7146 26.5853C33.5203 26.5474 34.0219 26.6449 34.5976 27.2514C35.2212 27.9083 35.7093 28.6494 36.2572 29.3664L38.352 32.1049C38.897 32.8167 40.2628 34.3081 40.4204 35.1176C40.5348 35.7143 40.4012 36.3316 40.0504 36.8285C39.6898 37.3459 39.2652 37.5877 38.6604 37.6921C37.0359 37.8291 36.5985 36.9319 35.736 35.7904L34.4145 34.0696L32.3328 31.3397C31.497 30.2358 30.2577 29.1021 31.2035 27.6303C31.5509 27.099 32.0932 26.724 32.7146 26.5853Z" fill="currentColor"/>
    <path d="M10.6963 21.1113C10.8079 21.5757 11.1081 22.3786 11.2705 22.8594C11.6238 23.9305 11.9918 24.9968 12.375 26.0576C12.6162 26.7131 13.0825 27.9876 13.2178 28.6621L12.168 28.6631C11.9698 27.8531 11.607 27.129 11.4346 26.293L10.7646 26.2725C10.073 26.2672 9.38068 26.2765 8.68945 26.2988C8.52569 26.9986 8.20552 27.9881 7.95605 28.6602C7.60764 28.6535 7.25865 28.6523 6.91016 28.6553C7.07326 28.1229 7.32168 27.5143 7.50781 26.9727L8.69043 23.4785C8.89168 22.8899 9.33069 21.683 9.41309 21.1211C9.82411 21.13 10.2818 21.1156 10.6963 21.1113ZM10.0742 22.165C9.72282 23.2902 9.2997 24.3832 8.94434 25.5107C9.30431 25.5144 9.68472 25.5252 10.043 25.5195L11.1719 25.5088C10.9207 24.7349 10.4151 23.1986 10.4072 23.1748C10.4072 23.1748 10.1804 22.4615 10.0742 22.165Z" fill="currentColor"/>
    <path d="M5.25781 29.1211C5.35443 29.5857 5.65029 30.3711 5.81152 30.8535C6.17938 31.9589 6.55532 33.0622 6.93945 34.1621C6.86172 34.162 6.51602 34.1721 6.46094 34.1768C5.97641 34.2183 6.01403 32.9035 5.66895 32.6211C5.58493 32.5524 5.49073 32.5773 5.36621 32.5762C4.88026 32.5819 4.3941 32.5794 3.9082 32.5693C3.76664 33.0784 3.55884 33.6627 3.39062 34.1709C3.17739 34.1587 2.91989 34.1704 2.70312 34.1748C3.08531 33.0974 3.45618 32.0161 3.81445 30.9307C3.97544 30.4487 4.28694 29.5939 4.37988 29.123L5.25781 29.1211ZM4.82715 29.8809C4.40743 31.2389 4.27458 31.411 4.05664 32.1152H4.85156L5.55273 32.1143C5.46144 31.8032 5.03704 30.4032 4.82715 29.8809Z" fill="currentColor"/>
    <path d="M32.1608 24.0703C32.3878 24.4187 32.8716 25.0232 33.1517 25.34C32.1808 26.1279 31.1679 26.8634 30.2059 27.6625C30.0802 27.7668 29.9593 27.873 29.8495 27.9942C29.4767 27.5629 29.1387 27.1788 28.7832 26.7311C29.4846 26.119 30.2517 25.563 30.9839 24.9894C31.2914 24.7485 31.9199 24.3248 32.1608 24.0703Z" fill="currentColor"/>
  </symbol>

  <symbol id="negative-font" viewBox="0 0 24 24" fill="none">
    <path d="M6.61134 5.00586C6.86832 5.02489 7.11656 5.11034 7.33204 5.25391C7.57841 5.41811 7.77084 5.65153 7.88478 5.9248L11.9229 15.6152C12.1351 16.125 11.8945 16.7104 11.3848 16.9229C10.875 17.1353 10.2896 16.8936 10.0772 16.3838L6.50001 7.80078L2.92286 16.3848C2.71023 16.8942 2.12485 17.1352 1.61525 16.9229C1.10557 16.7104 0.864892 16.1249 1.07716 15.6152L5.11622 5.9248L5.16212 5.82422C5.27862 5.59416 5.45334 5.39762 5.66896 5.25391L5.76271 5.19629C5.9873 5.06937 6.24177 5.00195 6.50099 5.00195L6.61134 5.00586Z" fill="currentColor"/>
    <path d="M9.69629 12C10.2486 12 10.6963 12.4477 10.6963 13C10.6963 13.5523 10.2486 14 9.69629 14H3.30469C2.7524 14 2.30469 13.5523 2.30469 13C2.30469 12.4477 2.7524 12 3.30469 12H9.69629Z" fill="currentColor"/>
    <path d="M22 11C22.5523 11 23 11.4477 23 12C23 12.5523 22.5523 13 22 13H14C13.4477 13 13 12.5523 13 12C13 11.4477 13.4477 11 14 11H22Z" fill="currentColor"/>
  </symbol>

  <symbol id="positive-font" viewBox="0 0 24 24" fill="none">
    <path d="M6.61134 5.00586C6.86832 5.02489 7.11656 5.11034 7.33204 5.25391C7.57841 5.41811 7.77084 5.65153 7.88478 5.9248L11.9229 15.6152C12.1351 16.125 11.8945 16.7104 11.3848 16.9229C10.875 17.1353 10.2896 16.8936 10.0772 16.3838L6.50001 7.80078L2.92286 16.3848C2.71023 16.8942 2.12485 17.1352 1.61525 16.9229C1.10557 16.7104 0.864892 16.1249 1.07716 15.6152L5.11622 5.9248L5.16212 5.82422C5.27862 5.59416 5.45334 5.39762 5.66896 5.25391L5.76271 5.19629C5.9873 5.06937 6.24177 5.00195 6.50099 5.00195L6.61134 5.00586Z" fill="currentColor"/>
    <path d="M9.69629 12C10.2486 12 10.6963 12.4477 10.6963 13C10.6963 13.5523 10.2486 14 9.69629 14H3.30469C2.7524 14 2.30469 13.5523 2.30469 13C2.30469 12.4477 2.7524 12 3.30469 12H9.69629Z" fill="currentColor"/>
    <path d="M22 11C22.5523 11 23 11.4477 23 12C23 12.5523 22.5523 13 22 13H14C13.4477 13 13 12.5523 13 12C13 11.4477 13.4477 11 14 11H22Z" fill="currentColor"/>
    <path d="M19.0059 16.0059C19.0059 16.5581 18.5581 17.0059 18.0059 17.0059C17.4536 17.0059 17.0059 16.5581 17.0059 16.0059L17.0059 8.00586C17.0059 7.45357 17.4536 7.00586 18.0059 7.00586C18.5581 7.00586 19.0059 7.45357 19.0059 8.00586L19.0059 16.0059Z" fill="currentColor"/>
  </symbol>
</svg>
